<svg width="16" height="16" viewBox="0 0 16 16" fill="none" xmlns="http://www.w3.org/2000/svg">
<path fill-rule="evenodd" clip-rule="evenodd" d="M7.8208 0.5C8.2348 0.5 8.5708 0.753585 8.5708 1.06604V7.25H14.7548C15.0672 7.25 15.3208 7.586 15.3208 8C15.3208 8.414 15.0672 8.75 14.7548 8.75H8.5708V14.934C8.5708 15.2464 8.2348 15.5 7.8208 15.5C7.4068 15.5 7.0708 15.2464 7.0708 14.934V8.75H0.886839C0.574386 8.75 0.320801 8.414 0.320801 8C0.320801 7.586 0.574386 7.25 0.886839 7.25H7.0708V1.06604C7.0708 0.753585 7.4068 0.5 7.8208 0.5Z" fill="#CCCECE"/>
</svg>
