<svg width="16" height="16" viewBox="0 0 16 16" fill="none" xmlns="http://www.w3.org/2000/svg">
<path fill-rule="evenodd" clip-rule="evenodd" d="M0 7.99999C0 7.85384 0.0861235 7.65979 0.173509 7.56562L5.09652 2.19712C5.32637 1.95324 5.69874 1.92498 5.96671 2.17249C6.20629 2.39376 6.21225 2.82532 5.99072 3.06561L2.03884 7.36828H15.3846C15.7245 7.36828 16 7.65104 16 7.99986C16 8.34868 15.7245 8.63147 15.3846 8.63147H2.03884L5.99072 12.9342C6.21222 13.1744 6.1965 13.5954 5.96671 13.8272C5.7241 14.072 5.32286 14.0503 5.09652 13.8026L0.173509 8.43413C0.028861 8.28852 0.00242996 8.14828 0 7.99999Z" fill="#194FA1"/>
</svg>
