<svg width="24" height="24" viewBox="0 0 24 24" fill="none" xmlns="http://www.w3.org/2000/svg">
<g clip-path="url(#clip0_9240_52021)">
<path fill-rule="evenodd" clip-rule="evenodd" d="M23.6814 17.8455C24.1074 18.2667 24.1074 18.9495 23.6814 19.3706L19.3177 23.6841C19.1131 23.8864 18.8357 24 18.5463 24C18.257 24 17.9795 23.8864 17.775 23.6841L13.4113 19.3706C12.9853 18.9495 12.9853 18.2667 13.4113 17.8455C13.8373 17.4244 14.5281 17.4244 14.9541 17.8455L17.4554 20.3181V1.06667C17.4554 0.471089 17.9438 0 18.5463 0C19.1488 0 19.6373 0.471089 19.6373 1.06667V20.3181L22.1386 17.8455C22.5646 17.4244 23.2553 17.4244 23.6814 17.8455Z" fill="#6D7881"/>
<path d="M5.30957 0V11H3.31689V1.93897H3.25245L0.679688 3.58252V1.75635L3.41357 0H5.30957Z" fill="#6D7881"/>
<path d="M3.86352 13.0002C4.37587 13.0037 4.87428 13.0943 5.35874 13.2721C5.84668 13.4463 6.28584 13.7321 6.6762 14.1295C7.06656 14.5233 7.37676 15.0514 7.60679 15.7136C7.83682 16.3758 7.95185 17.1948 7.95185 18.1707C7.95533 19.0909 7.85774 19.9134 7.65907 20.6384C7.46389 21.3598 7.18332 21.9698 6.81736 22.4682C6.4514 22.9666 6.0105 23.3465 5.49467 23.6079C4.97883 23.8693 4.39852 24 3.75373 24C3.07756 24 2.47809 23.8676 1.95528 23.6027C1.43597 23.3378 1.01598 22.9753 0.695332 22.5152C0.374673 22.0552 0.177753 21.5289 0.104561 20.9364H2.0128C2.11038 21.3616 2.30905 21.6997 2.60879 21.9506C2.91201 22.1981 3.29366 22.3218 3.75373 22.3218C4.49611 22.3218 5.0677 21.9994 5.46852 21.3546C5.86934 20.7098 6.06975 19.8141 6.06975 18.6674H5.99656C5.82577 18.9741 5.60445 19.239 5.3326 19.4621C5.06074 19.6816 4.75228 19.8507 4.40724 19.9692C4.06567 20.0877 3.70319 20.1469 3.31981 20.1469C2.69243 20.1469 2.12781 19.9971 1.62592 19.6973C1.12751 19.3976 0.731927 18.9863 0.439156 18.4635C0.14987 17.9407 0.00348494 17.343 0 16.6703C0 15.9732 0.160326 15.3476 0.480978 14.7934C0.805117 14.2358 1.25647 13.7966 1.83504 13.476C2.41361 13.1518 3.08977 12.9932 3.86352 13.0002ZM3.86874 14.5686C3.49233 14.5686 3.1525 14.661 2.84928 14.8457C2.54953 15.027 2.31254 15.2744 2.13827 15.5881C1.96748 15.8983 1.88209 16.2451 1.88209 16.6285C1.88558 17.0084 1.97096 17.3534 2.13827 17.6636C2.30905 17.9738 2.54083 18.2195 2.8336 18.4008C3.12985 18.582 3.46793 18.6726 3.84784 18.6726C4.13015 18.6726 4.39329 18.6186 4.63727 18.5106C4.88124 18.4025 5.09385 18.2527 5.27509 18.061C5.45981 17.8658 5.60271 17.6445 5.70378 17.397C5.80834 17.1495 5.85888 16.8881 5.8554 16.6128C5.8554 16.2468 5.76827 15.9088 5.594 15.5986C5.42321 15.2884 5.18795 15.0392 4.88821 14.8509C4.59196 14.6627 4.25214 14.5686 3.86874 14.5686Z" fill="#6D7881"/>
</g>
<defs>
<clipPath id="clip0_9240_52021">
<rect width="24" height="24" fill="white"/>
</clipPath>
</defs>
</svg>
