<svg width="16" height="16" viewBox="0 0 16 16" fill="none" xmlns="http://www.w3.org/2000/svg">
<path fill-rule="evenodd" clip-rule="evenodd" d="M12.7289 0.603391C12.7289 0.270147 12.4588 0 12.1255 0C11.7923 0 11.5221 0.270147 11.5221 0.603391V13.6281L10.1386 12.2446C9.90297 12.0089 9.52092 12.0089 9.28528 12.2446C9.04964 12.4802 9.04964 12.8622 9.28528 13.0979L11.6988 15.5114C11.9345 15.7471 12.3165 15.7471 12.5522 15.5114L14.9657 13.0979C15.2014 12.8622 15.2014 12.4802 14.9657 12.2446C14.7301 12.0089 14.348 12.0089 14.1124 12.2446L12.7289 13.6281V0.603391ZM3.78906 0.219742H3.49609H2.96387H2.67578L0 7.32912H1.28418L1.8581 5.66408H4.6103L5.18555 7.32912H6.47461L3.78906 0.219742ZM4.2746 4.6924H2.19303L3.23262 1.67639L4.2746 4.6924ZM5.61035 15.0306V16.0023H1.12793H0.673829H0.307618V15.2259L4.01624 9.86944H0.336915V8.89288H4.69238H5.04395H5.49805V9.64971L1.79638 15.0306H5.61035Z" fill="#6D7881"/>
</svg>
