<svg width="16" height="16" viewBox="0 0 16 16" fill="none" xmlns="http://www.w3.org/2000/svg">
	<path d="M4.50063 15.0009C4.63324 15.0009 4.76042 14.9482 4.85418 14.8545C4.94795 14.7607 5.00063 14.6335 5.00063 14.5009V2.70792L6.14663 3.85492C6.24052 3.9488 6.36786 4.00155 6.50063 4.00155C6.63341 4.00155 6.76074 3.9488 6.85463 3.85492C6.94852 3.76103 7.00126 3.63369 7.00126 3.50092C7.00126 3.36814 6.94852 3.2408 6.85463 3.14692L4.85463 1.14692C4.80819 1.10035 4.75301 1.06341 4.69226 1.0382C4.63152 1.013 4.5664 1.00002 4.50063 1.00002C4.43486 1.00002 4.36974 1.013 4.309 1.0382C4.24825 1.06341 4.19308 1.10035 4.14663 1.14692L2.14663 3.14692C2.05274 3.2408 2 3.36814 2 3.50092C2 3.63369 2.05274 3.76103 2.14663 3.85492C2.24052 3.9488 2.36786 4.00155 2.50063 4.00155C2.63341 4.00155 2.76074 3.9488 2.85463 3.85492L4.00063 2.70792V14.5009C4.00063 14.6335 4.05331 14.7607 4.14708 14.8545C4.24085 14.9482 4.36802 15.0009 4.50063 15.0009Z" fill="white"/>
	<path d="M10.0974 6.73747H10.1959C10.524 6.73747 10.8192 6.70318 11.0817 6.6346C11.3442 6.56602 11.5689 6.46003 11.7559 6.31663C11.9429 6.17012 12.0856 5.98152 12.1841 5.75083C12.2858 5.51703 12.3366 5.23491 12.3366 4.90448V3.49699C12.3366 3.27878 12.3169 3.09018 12.2776 2.9312C12.2382 2.76909 12.1808 2.63505 12.1053 2.52906C12.0299 2.42307 11.9396 2.34513 11.8346 2.29526C11.7297 2.24226 11.6115 2.21576 11.4803 2.21576C11.3491 2.21576 11.2326 2.25161 11.1309 2.32331C11.0325 2.39189 10.9472 2.48542 10.875 2.60387C10.8061 2.71922 10.7536 2.85014 10.7175 2.99666C10.6814 3.14006 10.6634 3.28501 10.6634 3.43153C10.6634 3.59675 10.6814 3.75106 10.7175 3.89446C10.7569 4.03474 10.8127 4.15787 10.8848 4.26386C10.9603 4.36673 11.0538 4.44778 11.1654 4.50701C11.2802 4.56624 11.4131 4.59586 11.564 4.59586C11.7149 4.59586 11.8445 4.57092 11.9528 4.52104C12.0643 4.46805 12.1562 4.39947 12.2283 4.3153C12.3005 4.22801 12.353 4.13449 12.3858 4.03474C12.4219 3.93498 12.4383 3.83678 12.435 3.74015L12.9173 4.1002C12.9173 4.29971 12.8698 4.4961 12.7746 4.68938C12.6795 4.88265 12.5482 5.05878 12.3809 5.21777C12.2136 5.37364 12.02 5.49833 11.8002 5.59185C11.5837 5.68537 11.354 5.73213 11.1112 5.73213C10.7864 5.73213 10.4928 5.67758 10.2303 5.56847C9.97113 5.45936 9.74967 5.3035 9.56594 5.10087C9.38222 4.89824 9.24114 4.65665 9.14272 4.37609C9.04757 4.09241 9 3.77756 9 3.43153C9 3.09797 9.0607 2.78468 9.18209 2.49165C9.30348 2.19862 9.47572 1.94144 9.69882 1.72011C9.92192 1.49566 10.186 1.31953 10.4911 1.19172C10.7963 1.06391 11.1309 1 11.4951 1C11.8396 1 12.1627 1.06235 12.4646 1.18704C12.7664 1.30862 13.0322 1.48786 13.2618 1.72478C13.4915 1.9617 13.6719 2.25317 13.8031 2.5992C13.9344 2.94522 14 3.34113 14 3.78691V4.32933C14 4.81251 13.9377 5.24894 13.813 5.63861C13.6883 6.02828 13.5112 6.37119 13.2815 6.66733C13.0518 6.96037 12.7795 7.20664 12.4646 7.40615C12.1529 7.60254 11.8068 7.75061 11.4262 7.85037C11.0489 7.95012 10.6486 8 10.2254 8H10.0974V6.73747Z" fill="white"/>
	<path d="M13 9V15H11.4888V10.5659L10 10.9657V9.91071L12.861 9H13Z" fill="white"/>
</svg>
