<?xml version="1.0" encoding="UTF-8" standalone="no"?>
<!-- Generated by IcoMoon.io -->

<svg
   xmlns:dc="http://purl.org/dc/elements/1.1/"
   xmlns:cc="http://creativecommons.org/ns#"
   xmlns:rdf="http://www.w3.org/1999/02/22-rdf-syntax-ns#"
   xmlns:svg="http://www.w3.org/2000/svg"
   xmlns="http://www.w3.org/2000/svg"
   xmlns:sodipodi="http://sodipodi.sourceforge.net/DTD/sodipodi-0.dtd"
   xmlns:inkscape="http://www.inkscape.org/namespaces/inkscape"
   version="1.1"
   width="32"
   height="32"
   viewBox="0 0 32 32"
   id="svg3007"
   inkscape:version="0.48.4 r9939"
   sodipodi:docname="BalloonMarker.svg">
  <metadata
     id="metadata3017">
    <rdf:RDF>
      <cc:Work
         rdf:about="">
        <dc:format>image/svg+xml</dc:format>
        <dc:type
           rdf:resource="http://purl.org/dc/dcmitype/StillImage" />
        <dc:title />
      </cc:Work>
    </rdf:RDF>
  </metadata>
  <defs
     id="defs3015" />
  <sodipodi:namedview
     pagecolor="#ffffff"
     bordercolor="#666666"
     borderopacity="1"
     objecttolerance="10"
     gridtolerance="10"
     guidetolerance="10"
     inkscape:pageopacity="0"
     inkscape:pageshadow="2"
     inkscape:window-width="1405"
     inkscape:window-height="864"
     id="namedview3013"
     showgrid="false"
     inkscape:zoom="11.940043"
     inkscape:cx="6.0322186"
     inkscape:cy="14.140568"
     inkscape:window-x="140"
     inkscape:window-y="79"
     inkscape:window-maximized="0"
     inkscape:current-layer="svg3007" />
  <g
     id="g2995">
    <g
       id="g4529">
      <path
         sodipodi:type="arc"
         style="fill:#ffffff;fill-opacity:1;stroke:none"
         id="path4324"
         sodipodi:cx="-19.75"
         sodipodi:cy="14.625"
         sodipodi:rx="4.875"
         sodipodi:ry="4.375"
         d="m -14.875,14.625 a 4.875,4.375 0 1 1 -9.75,0 4.875,4.375 0 1 1 9.75,0 z"
         transform="matrix(1.4615385,0,0,1.5857143,44.240385,-14.128572)" />
      <path
         inkscape:connector-curvature="0"
         style="fill:#ff0000;stroke:#ff0000;stroke-width:2.19199991;stroke-miterlimit:4;stroke-dasharray:none"
         d="m 15.65625,1.40625 c -0.297845,0.00574 -0.578209,0.059805 -0.875,0.09375 -0.03468,0.00397 -0.09037,-0.00435 -0.125,0 -3.71735,0.2191432 -7.1952035,2.5847985 -7.375,6.25 -0.1198292,2.442755 0.1437184,3.727941 2.8125,7.75 1.761878,2.655288 3.57604,6.130236 4.1875,8.375 L 15.5,28.5 15.53125,28.34375 15.5625,28.4375 16.65625,24.28125 16.8125,23.8125 c 0.0068,-0.02483 -0.0071,-0.03737 0,-0.0625 0.630252,-2.246906 2.413859,-5.686583 4.15625,-8.3125 2.668781,-4.022057 2.932328,-5.307246 2.8125,-7.75 -0.192014,-3.9141936 -4.13327,-6.3581868 -8.125,-6.28125 z m -0.09375,0.375 c 4.228938,0 7.65625,3.2118296 7.65625,7.15625 0,3.94442 -3.427312,7.125 -7.65625,7.125 -4.228938,0 -7.65625,-3.18058 -7.65625,-7.125 0,-3.9444204 3.427312,-7.15625 7.65625,-7.15625 z"
         id="path4183" />
      <g
         id="g4456"
         transform="matrix(0.53970395,0,0,0.53970395,8.0354603,0.5522365)"
         style="fill:#800000">
        <g
           id="g4446"
           style="fill:#800000" />
        <path
           id="path4448"
           d="m 18.286,16 q 0,1.893 -1.339,3.232 -1.339,1.339 -3.232,1.339 -1.893,0 -3.232,-1.339 Q 9.144,17.893 9.144,16 q 0,-1.893 1.339,-3.232 1.339,-1.339 3.232,-1.339 1.893,0 3.232,1.339 1.339,1.339 1.339,3.232 z M 13.714,6.286 q -2.643,0 -4.875,1.304 -2.232,1.304 -3.536,3.536 -1.304,2.232 -1.304,4.875 0,2.643 1.304,4.875 1.304,2.232 3.536,3.536 2.232,1.304 4.875,1.304 2.643,0 4.875,-1.304 2.232,-1.304 3.536,-3.536 1.304,-2.232 1.304,-4.875 0,-2.643 -1.304,-4.875 Q 20.821,8.894 18.589,7.59 16.357,6.286 13.714,6.286 z M 27.429,16 q 0,3.732 -1.839,6.884 -1.839,3.152 -4.991,4.991 -3.152,1.839 -6.884,1.839 -3.732,0 -6.884,-1.839 Q 3.679,26.036 1.84,22.884 0.001,19.732 0.001,16 0.001,12.268 1.84,9.116 3.679,5.964 6.831,4.125 9.983,2.286 13.715,2.286 q 3.732,0 6.884,1.839 3.152,1.839 4.991,4.991 1.839,3.152 1.839,6.884 z"
           inkscape:connector-curvature="0"
           style="fill:#800000" />
      </g>
    </g>
  </g>
</svg>
