<svg width="18" height="18" viewBox="0 0 18 18" fill="none" xmlns="http://www.w3.org/2000/svg">
<path fill-rule="evenodd" clip-rule="evenodd" d="M10.2484 1.256C10.2484 1.30797 10.2453 1.35921 10.2392 1.40953C12.6732 2.02176 14.7153 4.34905 14.7153 6.87875C14.7153 9.6879 15.4465 12.3816 16.6711 13.6482L16.8857 13.8702C17.5256 14.5321 17.3006 15.0693 16.3823 15.0693H16.0744H9.00001H1.92558H1.61767C0.69997 15.0693 0.474009 14.5325 1.11428 13.8702L1.32897 13.6482C2.55354 12.3816 3.28473 9.6879 3.28473 6.87875C3.28473 4.34905 5.32678 2.02176 7.76081 1.40953C7.75472 1.35921 7.75158 1.30797 7.75158 1.256C7.75158 0.56233 8.31052 0 9.00001 0C9.6895 0 10.2484 0.56233 10.2484 1.256ZM3.53945 13.3947C4.27441 11.9442 4.9493 9.08172 4.9493 6.87875C4.9493 4.87004 6.96584 2.92801 9.00001 2.92801C11.0342 2.92801 13.0507 4.87004 13.0507 6.87875C13.0507 9.03527 13.6094 11.8773 14.5394 13.3947H9.00001H3.53945ZM11.0807 15.9067C11.0807 17.0628 10.1492 18 9.00001 18C7.85086 18 6.91929 17.0628 6.91929 15.9067H11.0807Z" fill="#194FA1"/>
</svg>
