<svg width="14" height="14" viewBox="0 0 14 14" fill="none" xmlns="http://www.w3.org/2000/svg">
<path fill-rule="evenodd" clip-rule="evenodd" d="M7.97099 0.976888C7.97099 1.01731 7.96855 1.05717 7.96381 1.0963C9.85694 1.57248 11.4452 3.38259 11.4452 5.35014C11.4452 7.53504 12.0139 9.63011 12.9664 10.6152L13.1333 10.788C13.631 11.3027 13.456 11.7206 12.7418 11.7206H12.5023H6.99999H1.49765H1.25817C0.544401 11.7206 0.368653 11.303 0.866641 10.788L1.03362 10.6152C1.98607 9.63011 2.55477 7.53504 2.55477 5.35014C2.55477 3.38259 4.14303 1.57248 6.03617 1.0963C6.03143 1.05717 6.02899 1.01731 6.02899 0.976888C6.02899 0.437368 6.46372 0 6.99999 0C7.53626 0 7.97099 0.437368 7.97099 0.976888ZM2.75289 10.4181C3.32452 9.2899 3.84943 7.06356 3.84943 5.35014C3.84943 3.78781 5.41786 2.27734 6.99999 2.27734C8.58212 2.27734 10.1505 3.78781 10.1505 5.35014C10.1505 7.02743 10.5851 9.23791 11.3084 10.4181H6.99999H2.75289ZM8.61832 12.3719C8.61832 13.2711 7.89377 14 6.99999 14C6.1062 14 5.38165 13.2711 5.38165 12.3719H8.61832Z" fill="#6D7881"/>
</svg>
