<?xml version="1.0" encoding="UTF-8" standalone="no"?>
<!-- Created with Inkscape (http://www.inkscape.org/) -->

<svg
   xmlns:dc="http://purl.org/dc/elements/1.1/"
   xmlns:cc="http://creativecommons.org/ns#"
   xmlns:rdf="http://www.w3.org/1999/02/22-rdf-syntax-ns#"
   xmlns:svg="http://www.w3.org/2000/svg"
   xmlns="http://www.w3.org/2000/svg"
   xmlns:sodipodi="http://sodipodi.sourceforge.net/DTD/sodipodi-0.dtd"
   xmlns:inkscape="http://www.inkscape.org/namespaces/inkscape"
   width="20"
   height="16"
   id="svg2"
   version="1.1"
   inkscape:version="0.48.5 r10040"
   sodipodi:docname="BreakStopUnpaidArrived.svg">
  <defs
     id="defs4" />
  <sodipodi:namedview
     id="base"
     pagecolor="#ffffff"
     bordercolor="#666666"
     borderopacity="1.0"
     inkscape:pageopacity="0.0"
     inkscape:pageshadow="2"
     inkscape:zoom="31.678384"
     inkscape:cx="6.3337274"
     inkscape:cy="7.238367"
     inkscape:document-units="px"
     inkscape:current-layer="layer1"
     showgrid="false"
     inkscape:window-width="1920"
     inkscape:window-height="1057"
     inkscape:window-x="-8"
     inkscape:window-y="-8"
     inkscape:window-maximized="1"
     fit-margin-top="0"
     fit-margin-left="0"
     fit-margin-right="0"
     fit-margin-bottom="0" />
  <metadata
     id="metadata7">
    <rdf:RDF>
      <cc:Work
         rdf:about="">
        <dc:format>image/svg+xml</dc:format>
        <dc:type
           rdf:resource="http://purl.org/dc/dcmitype/StillImage" />
        <dc:title></dc:title>
      </cc:Work>
    </rdf:RDF>
  </metadata>
  <g
     inkscape:label="Layer 1"
     inkscape:groupmode="layer"
     id="layer1"
     transform="translate(-297.7142,-308.93368)">
    <g
       id="g3009"
       transform="matrix(0.57511083,0,0,0.59900953,298.20449,306.67598)"
       style="fill:#8b4513;fill-opacity:1;stroke:#000000;stroke-width:1.60000002;stroke-miterlimit:4;stroke-opacity:1;stroke-dasharray:none">
      <g
         id="g2999"
         style="fill:#8b4513;fill-opacity:1;stroke:#000000;stroke-width:1.60000002;stroke-miterlimit:4;stroke-opacity:1;stroke-dasharray:none" />
      <path
         id="path3001"
         d="m 29.714,11.429 q 0,-1.429 -1,-2.429 -1,-1 -2.429,-1 h -1.143 v 6.857 h 1.143 q 1.429,0 2.429,-1 1,-1 1,-2.429 z M 0,25.143 h 32 q 0,1.893 -1.339,3.232 -1.339,1.339 -3.232,1.339 H 4.572 Q 2.679,29.714 1.34,28.375 0.001,27.036 0.001,25.143 z M 33.143,11.429 q 0,2.839 -2.009,4.848 -2.009,2.009 -4.848,2.009 h -1.143 v 0.571 q 0,1.643 -1.179,2.821 -1.179,1.178 -2.821,1.179 H 8.572 q -1.643,0 -2.821,-1.179 Q 4.573,20.499 4.572,18.857 V 5.714 Q 4.572,5.25 4.911,4.91 5.25,4.57 5.715,4.571 h 20.571 q 2.839,0 4.848,2.009 2.009,2.009 2.009,4.848 z"
         inkscape:connector-curvature="0"
         style="fill:#8b4513;fill-opacity:1;stroke:#000000;stroke-width:1.60000002;stroke-miterlimit:4;stroke-opacity:1;stroke-dasharray:none" />
    </g>
  </g>
</svg>
