<svg width="14" height="14" viewBox="0 0 14 14" fill="none" xmlns="http://www.w3.org/2000/svg">
<path fill-rule="evenodd" clip-rule="evenodd" d="M9.33333 0V1.75058H10.5V7.58392H14V14H0V7.58392H3.5V1.75058H4.66667V0H9.33333ZM9.39167 2.85833H4.60833V12.8917H9.39167V2.85833ZM12.8917 8.69167H10.5V12.8917H12.8917V8.69167ZM3.5 8.69167H1.10833V12.8917H3.5V8.69167ZM12.2499 10.5002V11.0835H11.0833V10.5002H12.2499ZM2.91719 10.5002V11.0835H1.74994V10.5002H2.91719ZM12.2499 9.33351V9.91684H11.0833V9.33351H12.2499ZM2.91719 9.33351V9.91684H1.74994V9.33351H2.91719ZM8.74994 8.16684V8.75018H5.24994V8.16684H8.74994ZM8.74994 7.00017V7.58351H5.24994V7.00017H8.74994ZM8.74994 5.83292V6.41684H5.24994V5.83292H8.74994ZM8.74994 4.66684V5.25018H5.24994V4.66684H8.74994ZM8.225 1.10833H5.775V1.75058H8.225V1.10833Z" fill="#6D7881"/>
</svg>
