<svg width="12" height="14" viewBox="0 0 12 14" fill="none" xmlns="http://www.w3.org/2000/svg">
<path fill-rule="evenodd" clip-rule="evenodd" d="M6.00007 11.1422L10.2424 6.51409C10.6002 6.1237 11.2068 6.09731 11.5972 6.45517C11.6177 6.47395 11.6373 6.49361 11.6561 6.51409L11.7324 6.59734C12.0892 6.98656 12.0892 7.58396 11.7324 7.97318L6.75055 13.4081C6.37062 13.8226 5.72663 13.8506 5.31215 13.4707C5.2904 13.4507 5.26953 13.4298 5.24959 13.4081L0.267726 7.97318C-0.089054 7.58396 -0.0890541 6.98656 0.267726 6.59734L0.344028 6.5141C0.701883 6.1237 1.30846 6.09731 1.69886 6.45517C1.71935 6.47395 1.73901 6.49361 1.75779 6.51409L6.00007 11.1422Z" fill="#6D7881"/>
<path fill-rule="evenodd" clip-rule="evenodd" d="M6.00007 5.20101L10.2424 0.572932C10.6002 0.182533 11.2068 0.156152 11.5972 0.514007C11.6177 0.532786 11.6373 0.552446 11.6561 0.572932L11.7324 0.656174C12.0892 1.0454 12.0892 1.64279 11.7324 2.03202L6.75055 7.46693C6.37062 7.88141 5.72663 7.90942 5.31215 7.52949C5.2904 7.50956 5.26953 7.48868 5.24959 7.46693L0.267726 2.03202C-0.089054 1.64279 -0.0890541 1.0454 0.267726 0.656174L0.344028 0.572933C0.701883 0.182534 1.30846 0.156152 1.69886 0.514008C1.71935 0.532786 1.73901 0.552447 1.75779 0.572933L6.00007 5.20101Z" fill="#6D7881"/>
</svg>
