<svg width="12" height="8" viewBox="0 0 12 8" fill="none" xmlns="http://www.w3.org/2000/svg">
<path fill-rule="evenodd" clip-rule="evenodd" d="M5.99995 5.17147L10.2422 0.543391C10.6001 0.152992 11.2067 0.126611 11.5971 0.484466C11.6176 0.503245 11.6372 0.522905 11.656 0.543391L11.7323 0.626633C12.0891 1.01586 12.0891 1.61325 11.7323 2.00248L6.75043 7.43739C6.3705 7.85187 5.72651 7.87988 5.31203 7.49995C5.29028 7.48002 5.2694 7.45914 5.24947 7.43739L0.267604 2.00248C-0.0891761 1.61325 -0.0891761 1.01586 0.267604 0.626633L0.343906 0.543392C0.701761 0.152993 1.30834 0.126611 1.69874 0.484467C1.71923 0.503245 1.73889 0.522906 1.75767 0.543392L5.99995 5.17147Z" fill="#6D7881"/>
</svg>
