<svg width="8" height="12" viewBox="0 0 8 12" fill="none" xmlns="http://www.w3.org/2000/svg">
<path fill-rule="evenodd" clip-rule="evenodd" d="M2.82853 6.00007L7.45661 10.2424C7.84701 10.6002 7.87339 11.2068 7.51553 11.5972C7.49676 11.6177 7.47709 11.6373 7.45661 11.6561L7.37337 11.7324C6.98414 12.0892 6.38675 12.0892 5.99752 11.7324L0.562606 6.75055C0.148127 6.37062 0.120118 5.72663 0.500047 5.31215C0.519984 5.2904 0.540856 5.26953 0.562606 5.24959L5.99752 0.267726C6.38675 -0.089054 6.98414 -0.089054 7.37337 0.267726L7.45661 0.344029C7.84701 0.701883 7.87339 1.30846 7.51553 1.69886C7.49675 1.71935 7.47709 1.73901 7.45661 1.75779L2.82853 6.00007Z" fill="#6D7881"/>
</svg>
