<svg width="42" height="40" viewBox="0 0 42 40" fill="none" xmlns="http://www.w3.org/2000/svg">
<rect x="0.5" y="0.5" width="41" height="39" rx="1.5" fill="white"/>
<path fill-rule="evenodd" clip-rule="evenodd" d="M20.9999 18.8285L25.2422 23.4566C25.6001 23.847 26.2067 23.8734 26.5971 23.5155C26.6176 23.4968 26.6372 23.4771 26.656 23.4566L26.7323 23.3734C27.0891 22.9841 27.0891 22.3867 26.7323 21.9975L21.7504 16.5626C21.3705 16.1481 20.7265 16.1201 20.312 16.5C20.2903 16.52 20.2694 16.5409 20.2495 16.5626L15.2676 21.9975C14.9108 22.3867 14.9108 22.9841 15.2676 23.3734L15.3439 23.4566C15.7018 23.847 16.3083 23.8734 16.6987 23.5155C16.7192 23.4968 16.7389 23.4771 16.7577 23.4566L20.9999 18.8285Z" fill="#6D7881"/>
<rect x="0.5" y="0.5" width="41" height="39" rx="1.5" stroke="#CCCECE"/>
</svg>
