<svg width="11" height="11" viewBox="0 0 11 11" fill="none" xmlns="http://www.w3.org/2000/svg">
<path fill-rule="evenodd" clip-rule="evenodd" d="M4.06998 5.78467L7.90873 2.24939C8.23255 1.95118 8.25443 1.44569 7.95761 1.12035C7.94203 1.10328 7.92573 1.08689 7.90873 1.07124L7.83969 1.00766C7.51685 0.710338 7.02134 0.710338 6.69849 1.00766L2.19051 5.15926C1.84672 5.47587 1.82349 6.01254 2.13862 6.35794C2.15516 6.37607 2.17247 6.39346 2.19051 6.41008L6.69849 10.5617C7.02134 10.859 7.51685 10.859 7.83969 10.5617L7.90873 10.4981C8.23255 10.1999 8.25443 9.69438 7.95761 9.36905C7.94203 9.35198 7.92573 9.33559 7.90873 9.31994L4.06998 5.78467Z" fill="#6D7881"/>
</svg>
