<svg width="8" height="8" viewBox="0 0 8 8" fill="none" xmlns="http://www.w3.org/2000/svg">
<path d="M4 4.94398L1.17178 1.87297C0.933206 1.61392 0.528814 1.59641 0.268545 1.83387C0.254887 1.84633 0.24178 1.85938 0.229261 1.87297L0.178392 1.92821C-0.059464 2.18648 -0.059464 2.58289 0.178392 2.84116L3.49967 6.44755C3.75296 6.72258 4.1823 6.74117 4.45862 6.48906C4.47312 6.47583 4.48704 6.46198 4.50033 6.44755L7.82161 2.84116C8.05946 2.58289 8.05946 2.18648 7.82161 1.92821L7.77074 1.87297C7.53217 1.61392 7.12777 1.59641 6.8675 1.83387C6.85385 1.84633 6.84074 1.85938 6.82822 1.87297L4 4.94398Z" fill="white"/>
</svg>
