<svg width="16" height="21" viewBox="0 0 16 21" fill="none" xmlns="http://www.w3.org/2000/svg">
<path fill-rule="evenodd" clip-rule="evenodd" d="M11.18 10.7847L7.34127 7.24939C7.01745 6.95118 6.99557 6.44569 7.29239 6.12035C7.30797 6.10328 7.32428 6.08689 7.34127 6.07124L7.41031 6.00766C7.73316 5.71034 8.22866 5.71034 8.55151 6.00766L13.0595 10.1593C13.4033 10.4759 13.4265 11.0125 13.1114 11.3579C13.0948 11.3761 13.0775 11.3935 13.0595 11.4101L8.55151 15.5617C8.22866 15.859 7.73316 15.859 7.41031 15.5617L7.34127 15.4981C7.01745 15.1999 6.99557 14.6944 7.29239 14.369C7.30797 14.352 7.32428 14.3356 7.34127 14.3199L11.18 10.7847Z" fill="#6D7881"/>
<path fill-rule="evenodd" clip-rule="evenodd" d="M6.18002 10.7847L2.34127 7.24939C2.01745 6.95118 1.99557 6.44569 2.29239 6.12035C2.30797 6.10328 2.32428 6.08689 2.34127 6.07124L2.41031 6.00766C2.73316 5.71034 3.22866 5.71034 3.55151 6.00766L8.05949 10.1593C8.40328 10.4759 8.42651 11.0125 8.11138 11.3579C8.09485 11.3761 8.07753 11.3935 8.05949 11.4101L3.55151 15.5617C3.22866 15.859 2.73316 15.859 2.41031 15.5617L2.34127 15.4981C2.01745 15.1999 1.99557 14.6944 2.29239 14.369C2.30797 14.352 2.32428 14.3356 2.34127 14.3199L6.18002 10.7847Z" fill="#6D7881"/>
</svg>
