<svg width="42" height="40" viewBox="0 0 42 40" fill="none" xmlns="http://www.w3.org/2000/svg">
<rect x="0.5" y="0.5" width="41" height="39" rx="1.5" fill="white"/>
<path fill-rule="evenodd" clip-rule="evenodd" d="M22.1715 20L17.5434 24.2423C17.153 24.6001 17.1266 25.2067 17.4845 25.5971C17.5032 25.6176 17.5229 25.6373 17.5434 25.6561L17.6266 25.7324C18.0159 26.0891 18.6133 26.0891 19.0025 25.7324L24.4374 20.7505C24.8519 20.3706 24.8799 19.7266 24.5 19.3121C24.48 19.2903 24.4591 19.2695 24.4374 19.2495L19.0025 14.2677C18.6133 13.9109 18.0159 13.9109 17.6266 14.2677L17.5434 14.344C17.153 14.7018 17.1266 15.3084 17.4845 15.6988C17.5032 15.7193 17.5229 15.7389 17.5434 15.7577L22.1715 20Z" fill="#6D7881"/>
<rect x="0.5" y="0.5" width="41" height="39" rx="1.5" stroke="#CCCECE"/>
</svg>
