<svg width="12" height="12" viewBox="0 0 12 12" fill="none" xmlns="http://www.w3.org/2000/svg">
<path fill-rule="evenodd" clip-rule="evenodd" d="M6.91602 6L2.30952 1.75767C1.92094 1.39981 1.89468 0.793221 2.25087 0.402817C2.26956 0.382331 2.28913 0.36267 2.30952 0.343892L2.39237 0.267588C2.77979 -0.0891961 3.37439 -0.0891961 3.76181 0.267588L9.17139 5.24951C9.58394 5.62944 9.61181 6.27345 9.23366 6.68793C9.21381 6.70968 9.19304 6.73055 9.17139 6.75049L3.76181 11.7324C3.37439 12.0892 2.77979 12.0892 2.39237 11.7324L2.30952 11.6561C1.92094 11.2982 1.89468 10.6917 2.25087 10.3013C2.26956 10.2808 2.28913 10.2611 2.30952 10.2423L6.91602 6Z" fill="#194FA1"/>
</svg>
