<svg width="42" height="40" viewBox="0 0 42 40" fill="none" xmlns="http://www.w3.org/2000/svg">
<rect x="0.5" y="0.5" width="41" height="39" rx="1.5" fill="white"/>
<path fill-rule="evenodd" clip-rule="evenodd" d="M21.0001 15.8579L25.2424 20.4859C25.6002 20.8763 26.2068 20.9027 26.5972 20.5449C26.6177 20.5261 26.6373 20.5064 26.6561 20.4859L26.7324 20.4027C27.0892 20.0135 27.0892 19.4161 26.7324 19.0268L21.7506 13.5919C21.3706 13.1775 20.7266 13.1494 20.3121 13.5294C20.2904 13.5493 20.2695 13.5702 20.2496 13.5919L15.2677 19.0268C14.9109 19.4161 14.9109 20.0135 15.2677 20.4027L15.344 20.4859C15.7019 20.8763 16.3085 20.9027 16.6989 20.5449C16.7194 20.5261 16.739 20.5064 16.7578 20.4859L21.0001 15.8579Z" fill="#6D7881"/>
<path fill-rule="evenodd" clip-rule="evenodd" d="M21.0001 21.7991L25.2424 26.4272C25.6002 26.8176 26.2068 26.8439 26.5972 26.4861C26.6177 26.4673 26.6373 26.4476 26.6561 26.4272L26.7324 26.3439C27.0892 25.9547 27.0892 25.3573 26.7324 24.9681L21.7506 19.5332C21.3706 19.1187 20.7266 19.0907 20.3121 19.4706C20.2904 19.4905 20.2695 19.5114 20.2496 19.5332L15.2677 24.9681C14.9109 25.3573 14.9109 25.9547 15.2677 26.3439L15.344 26.4272C15.7019 26.8176 16.3085 26.8439 16.6989 26.4861C16.7194 26.4673 16.739 26.4476 16.7578 26.4272L21.0001 21.7991Z" fill="#6D7881"/>
<rect x="0.5" y="0.5" width="41" height="39" rx="1.5" stroke="#CCCECE"/>
</svg>
