<svg width="11" height="11" viewBox="0 0 11 11" fill="none" xmlns="http://www.w3.org/2000/svg">
<path fill-rule="evenodd" clip-rule="evenodd" d="M6.93002 5.78467L3.09127 2.24939C2.76745 1.95118 2.74557 1.44569 3.04239 1.12035C3.05797 1.10328 3.07427 1.08689 3.09127 1.07124L3.16031 1.00766C3.48315 0.710338 3.97866 0.710338 4.3015 1.00766L8.80949 5.15926C9.15328 5.47587 9.17651 6.01254 8.86138 6.35794C8.84484 6.37607 8.82753 6.39346 8.80949 6.41008L4.3015 10.5617C3.97866 10.859 3.48315 10.859 3.16031 10.5617L3.09127 10.4981C2.76745 10.1999 2.74557 9.69438 3.04239 9.36905C3.05797 9.35198 3.07427 9.33559 3.09127 9.31994L6.93002 5.78467Z" fill="#6D7881"/>
</svg>
