<svg width="16" height="16" viewBox="0 0 16 16" fill="none" xmlns="http://www.w3.org/2000/svg">
<path d="M8 9.88795L2.34356 3.74595C1.86641 3.22784 1.05763 3.19283 0.53709 3.66774C0.509775 3.69267 0.483561 3.71876 0.458522 3.74595L0.356784 3.85642C-0.118928 4.37297 -0.118928 5.16578 0.356784 5.68233L6.99934 12.8951C7.50592 13.4452 8.36459 13.4823 8.91724 12.9781C8.94624 12.9517 8.97407 12.924 9.00066 12.8951L15.6432 5.68233C16.1189 5.16578 16.1189 4.37297 15.6432 3.85642L15.5415 3.74595C15.0643 3.22784 14.2555 3.19283 13.735 3.66774C13.7077 3.69267 13.6815 3.71876 13.6564 3.74595L8 9.88795Z" fill="#194FA1"/>
</svg>
