<svg width="8" height="8" viewBox="0 0 8 8" fill="none" xmlns="http://www.w3.org/2000/svg">
<path fill-rule="evenodd" clip-rule="evenodd" d="M3.99996 3.27255L1.33308 6.18195C1.10812 6.42737 0.726796 6.44396 0.481374 6.219C0.468496 6.20719 0.456137 6.19483 0.444332 6.18195L0.396365 6.12962C0.172078 5.88494 0.172078 5.50939 0.396365 5.26471L3.52817 1.84809C3.76701 1.58754 4.17185 1.56993 4.43241 1.80877C4.44609 1.8213 4.45921 1.83442 4.47174 1.84809L7.60355 5.26471C7.82784 5.50939 7.82784 5.88494 7.60355 6.12962L7.55558 6.18195C7.33062 6.42737 6.9493 6.44396 6.70388 6.219C6.691 6.20719 6.67864 6.19483 6.66683 6.18195L3.99996 3.27255V3.27255Z" fill="#194FA1"/>
</svg>
