<svg width="42" height="40" viewBox="0 0 42 40" fill="none" xmlns="http://www.w3.org/2000/svg">
<rect x="0.5" y="0.5" width="41" height="39" rx="1.5" fill="white"/>
<path fill-rule="evenodd" clip-rule="evenodd" d="M19.8285 20L24.4566 24.2423C24.847 24.6001 24.8734 25.2067 24.5155 25.5971C24.4968 25.6176 24.4771 25.6373 24.4566 25.6561L24.3734 25.7324C23.9841 26.0891 23.3867 26.0891 22.9975 25.7324L17.5626 20.7505C17.1481 20.3706 17.1201 19.7266 17.5 19.3121C17.52 19.2903 17.5409 19.2695 17.5626 19.2495L22.9975 14.2677C23.3867 13.9109 23.9841 13.9109 24.3734 14.2677L24.4566 14.344C24.847 14.7018 24.8734 15.3084 24.5155 15.6988C24.4968 15.7193 24.4771 15.7389 24.4566 15.7577L19.8285 20Z" fill="#6D7881"/>
<rect x="0.5" y="0.5" width="41" height="39" rx="1.5" stroke="#CCCECE"/>
</svg>
