<svg width="16" height="21" viewBox="0 0 16 21" fill="none" xmlns="http://www.w3.org/2000/svg">
<path fill-rule="evenodd" clip-rule="evenodd" d="M3.81998 10.7847L7.65874 7.24939C7.98255 6.95118 8.00444 6.44569 7.70761 6.12035C7.69204 6.10328 7.67573 6.08689 7.65874 6.07124L7.58969 6.00766C7.26685 5.71034 6.77134 5.71034 6.4485 6.00766L1.94052 10.1593C1.59672 10.4759 1.57349 11.0125 1.88862 11.3579C1.90516 11.3761 1.92247 11.3935 1.94052 11.4101L6.4485 15.5617C6.77134 15.859 7.26685 15.859 7.58969 15.5617L7.65874 15.4981C7.98255 15.1999 8.00444 14.6944 7.70761 14.369C7.69204 14.352 7.67573 14.3356 7.65874 14.3199L3.81998 10.7847Z" fill="#6D7881"/>
<path fill-rule="evenodd" clip-rule="evenodd" d="M8.81998 10.7847L12.6587 7.24939C12.9826 6.95118 13.0044 6.44569 12.7076 6.12035C12.692 6.10328 12.6757 6.08689 12.6587 6.07124L12.5897 6.00766C12.2669 5.71034 11.7713 5.71034 11.4485 6.00766L6.94052 10.1593C6.59672 10.4759 6.57349 11.0125 6.88862 11.3579C6.90516 11.3761 6.92247 11.3935 6.94052 11.4101L11.4485 15.5617C11.7713 15.859 12.2669 15.859 12.5897 15.5617L12.6587 15.4981C12.9826 15.1999 13.0044 14.6944 12.7076 14.369C12.692 14.352 12.6757 14.3356 12.6587 14.3199L8.81998 10.7847Z" fill="#6D7881"/>
</svg>
