<svg width="8" height="12" viewBox="0 0 8 12" fill="none" xmlns="http://www.w3.org/2000/svg">
<path fill-rule="evenodd" clip-rule="evenodd" d="M5.17147 6.00007L0.543392 10.2424C0.152992 10.6002 0.126611 11.2068 0.484466 11.5972C0.503245 11.6177 0.522905 11.6373 0.543391 11.6561L0.626633 11.7324C1.01586 12.0892 1.61325 12.0892 2.00248 11.7324L7.43739 6.75055C7.85187 6.37062 7.87988 5.72663 7.49995 5.31215C7.48002 5.2904 7.45914 5.26953 7.43739 5.24959L2.00248 0.267726C1.61325 -0.089054 1.01586 -0.089054 0.626634 0.267726L0.543392 0.344029C0.152993 0.701883 0.126611 1.30846 0.484467 1.69886C0.503246 1.71935 0.522906 1.73901 0.543392 1.75779L5.17147 6.00007Z" fill="#6D7881"/>
</svg>
