<svg width="42" height="40" viewBox="0 0 42 40" fill="none" xmlns="http://www.w3.org/2000/svg">
<rect x="0.5" y="-0.5" width="41" height="39" rx="1.5" transform="matrix(1 0 0 -1 0 39)" fill="white"/>
<path fill-rule="evenodd" clip-rule="evenodd" d="M21.0001 24.1422L25.2424 19.5141C25.6002 19.1237 26.2068 19.0973 26.5972 19.4552C26.6177 19.4739 26.6373 19.4936 26.6561 19.5141L26.7324 19.5973C27.0892 19.9866 27.0892 20.584 26.7324 20.9732L21.7506 26.4081C21.3706 26.8226 20.7266 26.8506 20.3121 26.4707C20.2904 26.4507 20.2695 26.4298 20.2496 26.4081L15.2677 20.9732C14.9109 20.584 14.9109 19.9866 15.2677 19.5973L15.344 19.5141C15.7019 19.1237 16.3085 19.0973 16.6989 19.4552C16.7194 19.4739 16.739 19.4936 16.7578 19.5141L21.0001 24.1422Z" fill="#6D7881"/>
<path fill-rule="evenodd" clip-rule="evenodd" d="M21.0001 18.2009L25.2424 13.5728C25.6002 13.1824 26.2068 13.156 26.5972 13.5139C26.6177 13.5327 26.6373 13.5523 26.6561 13.5728L26.7324 13.6561C27.0892 14.0453 27.0892 14.6427 26.7324 15.0319L21.7506 20.4668C21.3706 20.8813 20.7266 20.9093 20.3121 20.5294C20.2904 20.5094 20.2695 20.4886 20.2496 20.4668L15.2677 15.0319C14.9109 14.6427 14.9109 14.0453 15.2677 13.6561L15.344 13.5728C15.7019 13.1824 16.3085 13.156 16.6989 13.5139C16.7194 13.5327 16.739 13.5523 16.7578 13.5728L21.0001 18.2009Z" fill="#6D7881"/>
<rect x="0.5" y="-0.5" width="41" height="39" rx="1.5" transform="matrix(1 0 0 -1 0 39)" stroke="#CCCECE"/>
</svg>
