<svg width="12" height="14" viewBox="0 0 12 14" fill="none" xmlns="http://www.w3.org/2000/svg">
<path fill-rule="evenodd" clip-rule="evenodd" d="M6.00007 2.85783L10.2424 7.48591C10.6002 7.8763 11.2068 7.90269 11.5972 7.54483C11.6177 7.52605 11.6373 7.50639 11.6561 7.48591L11.7324 7.40266C12.0892 7.01344 12.0892 6.41604 11.7324 6.02682L6.75055 0.591903C6.37062 0.177424 5.72663 0.149415 5.31215 0.529344C5.2904 0.549281 5.26953 0.570153 5.24959 0.591903L0.267726 6.02682C-0.089054 6.41604 -0.0890541 7.01344 0.267726 7.40266L0.344028 7.4859C0.701883 7.8763 1.30846 7.90269 1.69886 7.54483C1.71935 7.52605 1.73901 7.50639 1.75779 7.48591L6.00007 2.85783Z" fill="#6D7881"/>
<path fill-rule="evenodd" clip-rule="evenodd" d="M6.00007 8.79899L10.2424 13.4271C10.6002 13.8175 11.2068 13.8438 11.5972 13.486C11.6177 13.4672 11.6373 13.4476 11.6561 13.4271L11.7324 13.3438C12.0892 12.9546 12.0892 12.3572 11.7324 11.968L6.75055 6.53307C6.37062 6.11859 5.72663 6.09058 5.31215 6.47051C5.2904 6.49044 5.26953 6.51132 5.24959 6.53307L0.267726 11.968C-0.089054 12.3572 -0.0890541 12.9546 0.267726 13.3438L0.344028 13.4271C0.701883 13.8175 1.30846 13.8438 1.69886 13.486C1.71935 13.4672 1.73901 13.4476 1.75779 13.4271L6.00007 8.79899Z" fill="#6D7881"/>
</svg>
