<svg width="8" height="8" viewBox="0 0 8 8" fill="none" xmlns="http://www.w3.org/2000/svg">
<path d="M4.10512 4.77164L1.43824 1.86224C1.21328 1.61682 0.831959 1.60023 0.586538 1.82519C0.573659 1.837 0.5613 1.84936 0.549495 1.86224L0.501528 1.91457C0.277241 2.15925 0.277241 2.5348 0.501528 2.77948L3.63334 6.19609C3.87218 6.45665 4.27702 6.47426 4.53758 6.23542C4.55125 6.22289 4.56437 6.20977 4.57691 6.19609L7.70871 2.77948C7.933 2.5348 7.933 2.15925 7.70871 1.91457L7.66075 1.86224C7.43578 1.61682 7.05446 1.60023 6.80904 1.82519C6.79616 1.837 6.7838 1.84936 6.772 1.86224L4.10512 4.77164V4.77164Z" fill="#6D7881"/>
</svg>
