<svg width="12" height="8" viewBox="0 0 12 8" fill="none" xmlns="http://www.w3.org/2000/svg">
<path fill-rule="evenodd" clip-rule="evenodd" d="M5.99995 2.82853L10.2422 7.45661C10.6001 7.84701 11.2067 7.87339 11.5971 7.51553C11.6176 7.49676 11.6372 7.47709 11.656 7.45661L11.7323 7.37337C12.0891 6.98414 12.0891 6.38675 11.7323 5.99752L6.75043 0.562607C6.3705 0.148127 5.72651 0.120118 5.31203 0.500047C5.29028 0.519984 5.2694 0.540857 5.24947 0.562607L0.267604 5.99752C-0.0891761 6.38675 -0.0891761 6.98414 0.267604 7.37337L0.343906 7.45661C0.701761 7.84701 1.30834 7.87339 1.69874 7.51553C1.71923 7.49675 1.73889 7.47709 1.75767 7.45661L5.99995 2.82853Z" fill="#6D7881"/>
</svg>
