<svg width="42" height="40" viewBox="0 0 42 40" fill="none" xmlns="http://www.w3.org/2000/svg">
<rect x="0.5" y="-0.5" width="41" height="39" rx="1.5" transform="matrix(1 0 0 -1 0 39)" fill="white"/>
<path fill-rule="evenodd" clip-rule="evenodd" d="M20.9999 21.1715L25.2422 16.5434C25.6001 16.153 26.2067 16.1266 26.5971 16.4845C26.6176 16.5032 26.6372 16.5229 26.656 16.5434L26.7323 16.6266C27.0891 17.0159 27.0891 17.6133 26.7323 18.0025L21.7504 23.4374C21.3705 23.8519 20.7265 23.8799 20.312 23.5C20.2903 23.48 20.2694 23.4591 20.2495 23.4374L15.2676 18.0025C14.9108 17.6133 14.9108 17.0159 15.2676 16.6266L15.3439 16.5434C15.7018 16.153 16.3083 16.1266 16.6987 16.4845C16.7192 16.5032 16.7389 16.5229 16.7577 16.5434L20.9999 21.1715Z" fill="#6D7881"/>
<rect x="0.5" y="-0.5" width="41" height="39" rx="1.5" transform="matrix(1 0 0 -1 0 39)" stroke="#CCCECE"/>
</svg>
