<svg width="16" height="16" viewBox="0 0 16 16" fill="none" xmlns="http://www.w3.org/2000/svg">
<path fill-rule="evenodd" clip-rule="evenodd" d="M8 6.77855L2.34356 12.9206C1.86641 13.4387 1.05763 13.4737 0.53709 12.9988C0.509775 12.9738 0.483561 12.9477 0.458522 12.9206L0.356784 12.8101C-0.118928 12.2935 -0.118928 11.5007 0.356784 10.9842L6.99934 3.7714C7.50592 3.22134 8.36459 3.18417 8.91724 3.68838C8.94624 3.71484 8.97407 3.74254 9.00066 3.7714L15.6432 10.9842C16.1189 11.5007 16.1189 12.2935 15.6432 12.8101L15.5415 12.9206C15.0643 13.4387 14.2555 13.4737 13.735 12.9988C13.7077 12.9738 13.6815 12.9477 13.6564 12.9206L8 6.77855Z" fill="#194FA1"/>
</svg>
