<svg width="19" height="20" viewBox="0 0 19 20" fill="none" xmlns="http://www.w3.org/2000/svg">
<path fill-rule="evenodd" clip-rule="evenodd" d="M6.96783 14.6523C6.22985 14.6523 5.63092 15.2499 5.63092 15.9892C5.63092 16.7285 6.22985 17.3261 6.96783 17.3261H10.6844L9.06945 14.6523H6.96783ZM5.8368 9.30462H4.29401C3.55603 9.30462 2.9571 9.90222 2.9571 10.6415C2.9571 11.3808 3.55603 11.9784 4.29401 11.9784H7.45313L5.8368 9.30462ZM2.67768 3.95697H1.69238C0.954405 3.95697 0.355469 4.55457 0.355469 5.29388C0.355469 6.0332 0.954405 6.6308 1.69238 6.6308H4.29401L2.67768 3.95697ZM17.6631 3.95697L8.83415 4.01045L6.84884 0.644111C6.46782 0.0144258 5.64161 -0.188785 5.01326 0.192235C4.38358 0.571917 4.18037 1.39813 4.56005 2.02781L15.0307 19.3555C15.4104 19.9852 16.2366 20.1884 16.8663 19.8087C17.496 19.4277 17.6992 18.6015 17.3195 17.9731L13.6524 11.9784H14.9866C15.7246 11.9784 16.3235 11.3808 16.3235 10.6415C16.3235 9.90222 15.7246 9.30462 14.9866 9.30462H12.0361L10.4491 6.68427L17.6631 6.6308C18.4011 6.6308 19 6.0332 19 5.29388C19 4.55457 18.4011 3.95697 17.6631 3.95697Z" fill="#194FA1"/>
</svg>
