<svg width="14" height="14" viewBox="0 0 14 14" fill="none" xmlns="http://www.w3.org/2000/svg">
<path fill-rule="evenodd" clip-rule="evenodd" d="M7.00004 13.4166C10.5439 13.4166 13.4167 10.5438 13.4167 6.99998C13.4167 3.45615 10.5439 0.583313 7.00004 0.583313C3.45621 0.583313 0.583374 3.45615 0.583374 6.99998C0.583374 10.5438 3.45621 13.4166 7.00004 13.4166ZM7.00004 12.1184C4.1732 12.1184 1.88159 9.82682 1.88159 6.99998C1.88159 4.17314 4.1732 1.88153 7.00004 1.88153C9.82688 1.88153 12.1185 4.17314 12.1185 6.99998C12.1185 9.82682 9.82688 12.1184 7.00004 12.1184ZM6.41671 4.13626C6.41671 3.7844 6.70176 3.49998 7.05299 3.49998C7.40422 3.49998 7.68928 3.7844 7.68928 4.13626V7.31768H9.59813C9.94936 7.31768 10.2344 7.6021 10.2344 7.95397C10.2344 8.30583 9.94936 8.59025 9.59813 8.59025H7.05299C6.70176 8.59025 6.41671 8.30583 6.41671 7.95397V4.13626Z" fill="#6D7881"/>
</svg>
