<svg width="12" height="12" viewBox="0 0 12 12" fill="none" xmlns="http://www.w3.org/2000/svg">
<g id="close">
<path id="icon-close" fill-rule="evenodd" clip-rule="evenodd" d="M11.2391 0.760913C11.5283 1.05011 11.5859 1.46196 11.3676 1.68023L7.04782 6L11.3676 10.3198C11.5859 10.538 11.5283 10.9499 11.2391 11.2391C10.9499 11.5283 10.538 11.5859 10.3198 11.3676L6 7.04782L1.68022 11.3676C1.46196 11.5859 1.05011 11.5283 0.760913 11.2391C0.471716 10.9499 0.414145 10.538 0.632408 10.3198L4.95218 6L0.632408 1.68023C0.414145 1.46196 0.471716 1.05011 0.760913 0.760914C1.05011 0.471716 1.46196 0.414146 1.68022 0.632408L6 4.95218L10.3198 0.632408C10.538 0.414145 10.9499 0.471716 11.2391 0.760913Z" fill="#6D7881"/>
</g>
</svg>
