<svg width="16" height="16" viewBox="0 0 16 16" fill="none" xmlns="http://www.w3.org/2000/svg">
	<path fill-rule="evenodd" clip-rule="evenodd" d="M14.9855 1.01457C15.3711 1.40017 15.4478 1.9493 15.1568 2.24032L9.39709 8.00002L15.1568 13.7597C15.4478 14.0507 15.371 14.5999 14.9855 14.9855C14.5999 15.3711 14.0507 15.4478 13.7597 15.1568L8.00001 9.39711L2.2403 15.1568C1.94929 15.4478 1.40015 15.3711 1.01456 14.9855C0.62896 14.5999 0.552199 14.0507 0.843215 13.7597L6.60292 8.00002L0.843215 2.24032C0.552199 1.9493 0.628959 1.40017 1.01456 1.01457C1.40015 0.628975 1.94929 0.552214 2.2403 0.84323L8 6.60293L13.7597 0.843229C14.0507 0.552213 14.5999 0.628974 14.9855 1.01457Z" fill="#194FA1"/>
</svg>
