<svg width="16" height="16" viewBox="0 0 16 16" fill="none" xmlns="http://www.w3.org/2000/svg">
    <path fill-rule="evenodd" clip-rule="evenodd" d="M14.9853 1.01451C15.3709 1.40011 15.4476 1.94924 15.1566 2.24026L9.39693 7.99996L15.1566 13.7597C15.4476 14.0507 15.3709 14.5998 14.9853 14.9854C14.5997 15.371 14.0506 15.4478 13.7595 15.1567L7.99984 9.39705L2.24014 15.1567C1.94912 15.4478 1.39999 15.371 1.01439 14.9854C0.628792 14.5998 0.552031 14.0507 0.843047 13.7597L6.60275 7.99996L0.843047 2.24026C0.552031 1.94924 0.628792 1.40011 1.01439 1.01451C1.39999 0.628914 1.94912 0.552153 2.24014 0.843169L7.99984 6.60287L13.7595 0.843168C14.0506 0.552151 14.5997 0.628913 14.9853 1.01451Z" fill="#6D7881" />
</svg>