<svg width="15" height="14" viewBox="0 0 15 14" fill="none" xmlns="http://www.w3.org/2000/svg">
<path fill-rule="evenodd" clip-rule="evenodd" d="M7.25 0C11.1098 0 14.25 2.72428 14.25 6.07313C14.25 9.42138 11.1098 12.1463 7.25 12.1463C6.85518 12.1463 6.44807 12.1141 6.03789 12.0518L2.78289 14V10.745C1.17105 9.58555 0.25 7.88931 0.25 6.07313C0.25 2.72428 3.39018 0 7.25 0ZM4.08711 11.6646L5.77939 10.6614L5.87395 10.6808C6.34061 10.779 6.8036 10.828 7.25 10.828C10.3736 10.828 12.9139 8.69502 12.9139 6.07313C12.9139 3.45063 10.3736 1.31701 7.25 1.31701C4.1264 1.31701 1.58553 3.45063 1.58553 6.07313C1.58553 7.61246 2.48386 9.06456 3.98886 9.95751L4.10982 10.029L4.08711 11.6646ZM10.873 5.23991C10.873 5.60339 10.5733 5.89842 10.2049 5.89842H4.29483C3.92641 5.89842 3.62738 5.60339 3.62738 5.23991C3.62738 4.87643 3.92641 4.58141 4.29483 4.58141H10.2049C10.5733 4.58141 10.873 4.87643 10.873 5.23991ZM10.0287 7.73883C10.0287 8.10231 9.72904 8.39794 9.36062 8.39794H5.13913C4.77071 8.39794 4.47168 8.10231 4.47168 7.73883C4.47168 7.37535 4.77071 7.08033 5.13913 7.08033H9.36062C9.72904 7.08033 10.0287 7.37535 10.0287 7.73883Z" fill="#6D7881"/>
</svg>
