<svg width="16" height="16" viewBox="0 0 16 16" fill="none" xmlns="http://www.w3.org/2000/svg">
     <path fill-rule="evenodd" clip-rule="evenodd" d="M11.9488 0.661123C11.9488 0.295995 11.6489 0 11.2755 0H4.72469C4.35282 0 4.05136 0.298817 4.05136 0.661123V2.09084C4.05136 2.19846 3.9677 2.28571 3.84978 2.28571H1.19559C0.903521 2.28571 0.666748 2.52808 0.666748 2.81699V2.89729C0.666748 3.19071 0.906011 3.42857 1.20442 3.42857H1.46256C1.64613 3.42857 1.79495 3.57851 1.79495 3.76483V15.333C1.79495 15.7014 2.08948 16 2.46218 16H13.538C13.9065 16 14.2052 15.7016 14.2052 15.333V3.76483C14.2052 3.57912 14.3527 3.42857 14.5376 3.42857H14.7957C15.0927 3.42857 15.3334 3.1862 15.3334 2.89729V2.81699C15.3334 2.52358 15.09 2.28571 14.8046 2.28571H12.1504C12.0391 2.28571 11.9488 2.1989 11.9488 2.09084V0.661123ZM10.4846 1.14286C10.6702 1.14286 10.8206 1.29227 10.8206 1.47957V1.949C10.8206 2.13496 10.6697 2.28571 10.4846 2.28571H5.51555C5.32999 2.28571 5.17957 2.13631 5.17957 1.949V1.47957C5.17957 1.29361 5.33045 1.14286 5.51555 1.14286H10.4846ZM12.7392 3.42857C12.9258 3.42857 13.077 3.57307 13.077 3.75828V14.5274C13.077 14.7095 12.9335 14.8571 12.7392 14.8571H3.26099C3.07441 14.8571 2.92316 14.7126 2.92316 14.5274V3.75828C2.92316 3.57619 3.0667 3.42857 3.26099 3.42857H12.7392ZM5.74367 5.71429L5.67248 5.71866C5.41621 5.7504 5.21559 5.95141 5.18393 6.20504L5.17957 6.27543V12.0103C5.17957 12.2955 5.39477 12.5323 5.67291 12.567L5.74367 12.5714L5.81486 12.5671C6.07113 12.5353 6.27176 12.3343 6.30341 12.0807L6.30777 12.0103V6.27543C6.30777 5.99023 6.09258 5.75342 5.81443 5.71867L5.74367 5.71429ZM8.00008 5.71429L7.92889 5.71866C7.67262 5.7504 7.472 5.95141 7.44034 6.20504L7.43598 6.27543V12.0103C7.43598 12.2955 7.65118 12.5323 7.92932 12.567L8.00008 12.5714L8.07127 12.5671C8.32754 12.5353 8.52817 12.3343 8.55982 12.0807L8.56418 12.0103V6.27543C8.56418 5.99023 8.34899 5.75342 8.07084 5.71867L8.00008 5.71429ZM10.2565 5.71429L10.1853 5.71866C9.92903 5.7504 9.72841 5.95141 9.69675 6.20504L9.69239 6.27543V12.0103C9.69239 12.2955 9.90759 12.5323 10.1857 12.567L10.2565 12.5714L10.3277 12.5671C10.584 12.5353 10.7846 12.3343 10.8162 12.0807L10.8206 12.0103V6.27543C10.8206 5.99023 10.6054 5.75342 10.3273 5.71867L10.2565 5.71429Z" fill="#6D7881" />
</svg>