<svg width="24" height="24" viewBox="0 0 24 24" fill="none" xmlns="http://www.w3.org/2000/svg">
<g clip-path="url(#clip0_9240_52023)">
<path fill-rule="evenodd" clip-rule="evenodd" d="M23.6805 17.8455C24.1065 18.2667 24.1065 18.9495 23.6805 19.3706L19.3168 23.6842C19.1123 23.8864 18.8348 24 18.5455 24C18.2561 24 17.9786 23.8864 17.7741 23.6842L13.4104 19.3706C12.9844 18.9495 12.9844 18.2667 13.4104 17.8455C13.8365 17.4244 14.5272 17.4244 14.9532 17.8455L17.4545 20.3182V1.06669C17.4545 0.471111 17.943 2.19345e-05 18.5455 2.19345e-05C19.1479 2.19345e-05 19.6364 0.471111 19.6364 1.06669V20.3182L22.1377 17.8455C22.5637 17.4244 23.2545 17.4244 23.6805 17.8455Z" fill="#6D7881"/>
<path d="M5.30957 12.9992V23.9992H3.31689V14.9382H3.25245L0.679688 16.5817V14.7556L3.41357 12.9992H5.30957Z" fill="#6D7881"/>
<path d="M3.86352 -0.000573316C4.37587 0.00291163 4.87428 0.0935317 5.35874 0.271285C5.84668 0.445553 6.28584 0.731352 6.6762 1.12868C7.06656 1.52253 7.37676 2.05056 7.60679 2.71277C7.83682 3.375 7.95185 4.19405 7.95185 5.16995C7.95533 6.09009 7.85774 6.91263 7.65907 7.63758C7.46389 8.35905 7.18332 8.96899 6.81736 9.4674C6.4514 9.96582 6.0105 10.3458 5.49467 10.6071C4.97883 10.8685 4.39852 10.9992 3.75373 10.9992C3.07756 10.9992 2.47809 10.8668 1.95528 10.6019C1.43597 10.337 1.01598 9.97455 0.695332 9.51445C0.374673 9.05438 0.177753 8.52809 0.104561 7.93558H2.0128C2.11038 8.3608 2.30905 8.69887 2.60879 8.94982C2.91201 9.19728 3.29366 9.32101 3.75373 9.32101C4.49611 9.32101 5.0677 8.99861 5.46852 8.35383C5.86934 7.70904 6.06975 6.8133 6.06975 5.66661H5.99656C5.82577 5.97333 5.60445 6.23821 5.3326 6.46127C5.06074 6.68085 4.75228 6.8499 4.40724 6.9684C4.06567 7.0869 3.70319 7.14615 3.31981 7.14615C2.69243 7.14615 2.12781 6.99628 1.62592 6.69654C1.12751 6.3968 0.731927 5.98553 0.439156 5.46272C0.14987 4.93992 0.00348494 4.34218 0 3.6695C0 2.97244 0.160326 2.34681 0.480978 1.79264C0.805117 1.23499 1.25647 0.795835 1.83504 0.475176C2.41361 0.15104 3.08977 -0.00754425 3.86352 -0.000573316ZM3.86874 1.56783C3.49233 1.56783 3.1525 1.6602 2.84928 1.84492C2.54953 2.02616 2.31254 2.27362 2.13827 2.5873C1.96748 2.89751 1.88209 3.2443 1.88209 3.62768C1.88558 4.00759 1.97096 4.35263 2.13827 4.66284C2.30905 4.97303 2.54083 5.21875 2.8336 5.39999C3.12985 5.58123 3.46793 5.67184 3.84784 5.67184C4.13015 5.67184 4.39329 5.61782 4.63727 5.50977C4.88124 5.40173 5.09385 5.25186 5.27509 5.06017C5.45981 4.86498 5.60271 4.64367 5.70378 4.39621C5.80834 4.14874 5.85888 3.88734 5.8554 3.612C5.8554 3.24604 5.76827 2.90796 5.594 2.59776C5.42321 2.28757 5.18795 2.03836 4.88821 1.85015C4.59196 1.66194 4.25214 1.56783 3.86874 1.56783Z" fill="#6D7881"/>
</g>
<defs>
<clipPath id="clip0_9240_52023">
<rect width="24" height="24" fill="white"/>
</clipPath>
</defs>
</svg>
