<svg width="16" height="16" viewBox="0 0 16 16" fill="none" xmlns="http://www.w3.org/2000/svg">
	<g clip-path="url(#clip0_3538_469567)">
		<path d="M3.054 9.6127L1.2588 15.6444H0L2.35323 8.53334H3.15782L3.054 9.6127ZM4.55505 15.6444L2.7512 9.6127L2.64306 8.53334H3.45198L5.81818 15.6444H4.55505ZM4.47286 13.0022V14.062H1.09442V13.0022H4.47286Z" fill="white"/>
		<path d="M5.81818 6.05617V7.11111H0.402716V6.05617H5.81818ZM5.7175 0.786325L1.00149 7.11111H0V6.30525L4.73721 0H5.7175V0.786325ZM5.19821 0V1.05983H0.0158967V0H5.19821Z" fill="white"/>
		<path fill-rule="evenodd" clip-rule="evenodd" d="M15.787 11.897C16.071 12.1778 16.071 12.633 15.787 12.9137L12.8779 15.7894C12.7415 15.9243 12.5565 16 12.3636 16C12.1708 16 11.9858 15.9243 11.8494 15.7894L8.94029 12.9137C8.65627 12.633 8.65627 12.1778 8.94029 11.897C9.2243 11.6163 9.68479 11.6163 9.96881 11.897L11.6364 13.5454V0.711111C11.6364 0.31406 11.962 0 12.3636 0C12.7653 0 13.0909 0.31406 13.0909 0.711111V13.5454L14.7585 11.897C15.0425 11.6163 15.503 11.6163 15.787 11.897Z" fill="white"/>
	</g>
	<defs>
		<clipPath id="clip0_3538_469567">
			<rect width="16" height="16" fill="white"/>
		</clipPath>
	</defs>
</svg>
