<?xml version="1.0" encoding="UTF-8" standalone="no"?>
<!-- Generated by IcoMoon.io -->

<svg
   xmlns:dc="http://purl.org/dc/elements/1.1/"
   xmlns:cc="http://creativecommons.org/ns#"
   xmlns:rdf="http://www.w3.org/1999/02/22-rdf-syntax-ns#"
   xmlns:svg="http://www.w3.org/2000/svg"
   xmlns="http://www.w3.org/2000/svg"
   xmlns:sodipodi="http://sodipodi.sourceforge.net/DTD/sodipodi-0.dtd"
   xmlns:inkscape="http://www.inkscape.org/namespaces/inkscape"
   version="1.1"
   width="26"
   height="18"
   viewBox="0 0 26 18"
   id="svg2985"
   inkscape:version="0.48.4 r9939"
   sodipodi:docname="OriginDepotIconImage.svg">
  <metadata
     id="metadata2995">
    <rdf:RDF>
      <cc:Work
         rdf:about="">
        <dc:format>image/svg+xml</dc:format>
        <dc:type
           rdf:resource="http://purl.org/dc/dcmitype/StillImage" />
        <dc:title />
      </cc:Work>
    </rdf:RDF>
  </metadata>
  <defs
     id="defs2993" />
  <sodipodi:namedview
     pagecolor="#ffffff"
     bordercolor="#666666"
     borderopacity="1"
     objecttolerance="10"
     gridtolerance="10"
     guidetolerance="10"
     inkscape:pageopacity="0"
     inkscape:pageshadow="2"
     inkscape:window-width="1373"
     inkscape:window-height="889"
     id="namedview2991"
     showgrid="false"
     inkscape:zoom="15.5"
     inkscape:cx="4.9354839"
     inkscape:cy="3.0967742"
     inkscape:window-x="1789"
     inkscape:window-y="79"
     inkscape:window-maximized="0"
     inkscape:current-layer="svg2985" />
  <g
     id="g2987"
     transform="translate(0,-14)" />
  <path
     d="m 22.683631,10.206195 v 6.093186 q 0,0.329861 -0.240996,0.571569 -0.240999,0.241708 -0.571571,0.240998 h -4.874689 v -4.87469 H 13.74682 v 4.87469 H 8.8721299 q -0.3298609,0 -0.5715693,-0.240998 -0.2417084,-0.240998 -0.2409974,-0.571569 v -6.093186 q 0,-0.0128 0.0064,-0.03839 0.0064,-0.02558 0.0064,-0.03839 l 7.2995958,-6.0171137 7.299594,6.0171177 q 0.0128,0.02558 0.0128,0.07607 z M 25.514463,9.3303584 24.72749,10.269466 q -0.101655,0.114456 -0.266591,0.139338 h -0.03839 q -0.164929,0 -0.26659,-0.08887 L 15.371242,2.9947546 6.5865638,10.31994 Q 6.4344297,10.421605 6.2815847,10.408807 6.1166541,10.383218 6.0149944,10.269468 L 5.2280204,9.3303584 Q 5.1263606,9.2031058 5.1391565,9.0317775 5.1519524,8.8604482 5.2784943,8.7587884 L 14.40583,1.1549267 q 0.405928,-0.32986062 0.964701,-0.32986062 0.558773,0 0.964701,0.32986062 L 19.432653,3.744761 V 1.2693834 q 0,-0.1777267 0.114456,-0.29218341 0.114457,-0.11445573 0.292184,-0.11445573 h 2.4377 q 0.177726,0 0.292182,0.11445573 0.114456,0.11445671 0.114456,0.29218341 V 6.4490518 L 25.463989,8.7595 q 0.127251,0.1016547 0.139337,0.2729882 0.01208,0.1713282 -0.08887,0.2985809 z"
     id="path2989"
     style="fill:#ffffff;fill-opacity:1;stroke:#000000;stroke-width:0.71090698;stroke-opacity:1"
     inkscape:connector-curvature="0" />
  <g
     id="g3813"
     transform="matrix(0.41422636,0,0,0.41422636,0.46584475,2.3363288)"
     style="fill:#ffffff;fill-opacity:1;stroke:#000000;stroke-width:1.75309598;stroke-miterlimit:4;stroke-opacity:1;stroke-dasharray:none">
    <g
       id="g3803"
       style="fill:#ffffff;fill-opacity:1;stroke:#000000;stroke-width:1.75309598;stroke-miterlimit:4;stroke-opacity:1;stroke-dasharray:none" />
    <path
       id="path3805"
       d="m 26.286,17.143 q 0,0.964 -0.661,1.625 L 14,30.393 q -0.696,0.661 -1.625,0.661 -0.911,0 -1.607,-0.661 L 9.429,29.054 Q 8.75,28.375 8.75,27.429 q 0,-0.946 0.679,-1.625 l 5.232,-5.232 H 2.09 q -0.929,0 -1.509,-0.67 -0.58,-0.67 -0.58,-1.616 V 16 q 0,-0.946 0.58,-1.616 0.58,-0.67 1.509,-0.67 H 14.661 L 9.429,8.464 Q 8.75,7.821 8.75,6.857 8.75,5.893 9.429,5.25 l 1.339,-1.339 q 0.679,-0.679 1.607,-0.679 0.946,0 1.625,0.679 l 11.625,11.625 q 0.661,0.625 0.661,1.607 z"
       inkscape:connector-curvature="0"
       style="fill:#ffffff;fill-opacity:1;stroke:#000000;stroke-width:1.75309598;stroke-miterlimit:4;stroke-opacity:1;stroke-dasharray:none" />
  </g>
</svg>
