<svg id="Layer_1" data-name="Layer 1" xmlns="http://www.w3.org/2000/svg" viewBox="0 0 54 54"><defs><style>.cls-1{fill:#f7991f;}.cls-2{fill:#fff;}.cls-3{fill:#221f1f;}</style></defs><title>detour_requested</title><path class="cls-1" d="M27,53.06a26,26,0,1,1,26-26A26,26,0,0,1,27,53.06Z" transform="translate(0 -0.06)"/><path class="cls-2" d="M27,2.06a25,25,0,1,1-25,25,25,25,0,0,1,25-25m0-2a27,27,0,1,0,27,27,27,27,0,0,0-27-27h0Z" transform="translate(0 -0.06)"/><path class="cls-3" d="M27.91,42.41H24.73v-4a3.48,3.48,0,0,1,1.65-2.93l4.2-2.67a0.52,0.52,0,0,0,.25-0.44V29.8a0.53,0.53,0,0,0-.22-0.43l-4.4-3.15a3.48,3.48,0,0,1-1.48-2.81V18.17h3.18v5.24a0.52,0.52,0,0,0,.22.42L32.53,27A3.49,3.49,0,0,1,34,29.8v2.54a3.47,3.47,0,0,1-1.65,2.93l-4.2,2.67a0.52,0.52,0,0,0-.25.44v4Z" transform="translate(0 -0.06)"/><polygon class="cls-3" points="31.08 19.42 26.32 11.65 21.56 19.42 31.08 19.42"/></svg>