<svg xmlns="http://www.w3.org/2000/svg" width="16" height="16" viewBox="0 0 16 16" fill="none">
	<path fill-rule="evenodd" clip-rule="evenodd" d="M8.72618 0.666748C10.6685 0.666748 12.4944 1.42302 13.8681 2.79666C15.2417 4.16958 15.9987 5.99626 15.9987 7.93857C15.9987 9.88087 15.2425 11.7068 13.8688 13.0805C12.4515 14.4977 10.5892 15.2067 8.72691 15.2067C6.8646 15.2067 5.00301 14.4985 3.58501 13.0805C3.30068 12.7961 3.30068 12.3366 3.58501 12.0522C3.86933 11.7679 4.32891 11.7679 4.61324 12.0522C6.88132 14.3203 10.5718 14.3203 12.8398 12.0522C13.9386 10.9535 14.5436 9.49255 14.5436 7.93857C14.5436 6.38458 13.9386 4.92367 12.8398 3.8249C11.7411 2.72613 10.2802 2.12111 8.72618 2.12111C7.17219 2.12111 5.71129 2.72613 4.61251 3.8249C3.51374 4.92367 2.90873 6.38458 2.90873 7.93857H4.36309L2.18155 10.8473L0 7.93857H1.45436C1.45436 5.99626 2.21063 4.17031 3.58428 2.79666C4.95793 1.42302 6.78388 0.666748 8.72618 0.666748ZM7.27182 4.30266C7.27182 3.90053 7.5976 3.57547 7.999 3.57547C8.4004 3.57547 8.72618 3.90053 8.72618 4.30266V7.93857H10.9077C11.3091 7.93857 11.6349 8.26362 11.6349 8.66575C11.6349 9.06788 11.3091 9.39293 10.9077 9.39293H7.999C7.5976 9.39293 7.27182 9.06788 7.27182 8.66575V4.30266Z" fill="#6D7881"/>
</svg>