<svg width="16" height="16" viewBox="0 0 16 16" fill="none" xmlns="http://www.w3.org/2000/svg">
    <path fill-rule="evenodd" clip-rule="evenodd" d="M14.6667 16H1.33333C0.596954 16 0 15.4035 0 14.6676V1.3433C0 0.607419 0.596954 0.0108713 1.33333 0.0108713H9.87333L8.54 1.3433H1.33333V14.6676H14.6667V7.4678L16 6.13537V14.6676C16 15.4035 15.403 16 14.6667 16ZM6.66667 12.6689L3.34 12.6783L3.33333 9.33786L12.3667 0.384617C12.6121 0.138402 12.9456 0 13.2933 0C13.6411 0 13.9746 0.138402 14.22 0.384617L15.6067 1.777C15.8532 2.02327 15.9917 2.35735 15.9917 2.70571C15.9917 3.05406 15.8532 3.38814 15.6067 3.63441L6.66667 12.6689ZM4.66667 11.3365H6.66667L4.66667 9.33786V11.3365ZM13.2933 1.31332L6 8.67165L7.33333 10.0041L14.68 2.70571L13.2933 1.31332Z" fill="#6D7881" />
</svg>