<svg width="16" height="16" viewBox="0 0 16 16" fill="none" xmlns="http://www.w3.org/2000/svg">
<path fill-rule="evenodd" clip-rule="evenodd" d="M11.0152 1.23873C12.0002 0.253758 13.5971 0.253756 14.5821 1.23873C15.5671 2.2237 15.5671 3.82066 14.5821 4.80563L4.87078 14.5169C4.85468 14.533 4.83868 14.5491 4.82275 14.565C4.60353 14.7848 4.39856 14.9902 4.15079 15.142C3.93351 15.2752 3.69664 15.3733 3.44885 15.4328C3.16628 15.5006 2.87608 15.5003 2.5657 15.4999C2.54314 15.4999 2.52048 15.4999 2.49771 15.4999H1.20325C0.715944 15.4999 0.320904 15.1049 0.320904 14.6176V13.3231C0.320904 13.3003 0.320878 13.2777 0.320852 13.2551C0.320496 12.9447 0.320162 12.6545 0.388001 12.372C0.447488 12.1242 0.545606 11.8873 0.678753 11.67C0.830588 11.4223 1.03603 11.2173 1.25575 10.9981C1.27172 10.9821 1.28776 10.9661 1.30386 10.95L11.0152 1.23873ZM13.3343 2.48656C13.0385 2.19074 12.5588 2.19074 12.263 2.48656L2.55169 12.1979C2.2546 12.495 2.21175 12.5458 2.1834 12.5921C2.14701 12.6515 2.1202 12.7162 2.10394 12.7839C2.09127 12.8367 2.0856 12.903 2.0856 13.3231V13.7352H2.49771C2.91786 13.7352 2.98413 13.7295 3.03689 13.7169C3.10461 13.7006 3.16935 13.6738 3.22873 13.6374C3.275 13.609 3.32587 13.5662 3.62296 13.2691L13.3343 3.5578C13.6301 3.26199 13.6301 2.78237 13.3343 2.48656ZM7.27811 14.6176C7.27811 14.1303 7.67315 13.7352 8.16045 13.7352H15.1177C15.605 13.7352 16 14.1303 16 14.6176C16 15.1049 15.605 15.4999 15.1177 15.4999H8.16045C7.67315 15.4999 7.27811 15.1049 7.27811 14.6176Z" fill="#194FA1"/>
</svg>
