<svg width="53" height="52" viewBox="0 0 53 52" fill="none" xmlns="http://www.w3.org/2000/svg">
<circle cx="26.6" cy="26" r="26" fill="#EBF3FD"/>
<g clip-path="url(#clip0_2096_199717)">
<path d="M37.9999 26C37.9999 32.0751 33.0751 37 26.9999 37C20.9248 37 15.9999 32.0751 15.9999 26M37.9999 26C37.9999 19.9249 33.0751 15 26.9999 15M37.9999 26H35.2499M15.9999 26C15.9999 19.9249 20.9248 15 26.9999 15M15.9999 26H18.7499M26.9999 15V17.75M34.7862 18.3L28.6498 24.35M34.7862 33.7863L34.5619 33.562C33.8009 32.801 33.4204 32.4205 32.9764 32.1484C32.5827 31.9071 32.1535 31.7294 31.7046 31.6216C31.1982 31.5 30.6601 31.5 29.5839 31.5L24.416 31.5C23.3398 31.5 22.8017 31.5 22.2953 31.6216C21.8464 31.7294 21.4172 31.9072 21.0235 32.1484C20.5795 32.4205 20.199 32.801 19.438 33.562L19.2137 33.7863M19.2137 18.3L21.1238 20.2101M29.1999 26C29.1999 27.215 28.215 28.2 26.9999 28.2C25.7849 28.2 24.7999 27.215 24.7999 26C24.7999 24.785 25.7849 23.8 26.9999 23.8C28.215 23.8 29.1999 24.785 29.1999 26Z" stroke="#6D7881" stroke-width="2" stroke-linecap="round" stroke-linejoin="round"/>
</g>
<defs>
<clipPath id="clip0_2096_199717">
<rect width="24" height="24" fill="white" transform="translate(14.9999 14)"/>
</clipPath>
</defs>
</svg>
