<svg width="53" height="52" viewBox="0 0 53 52" fill="none" xmlns="http://www.w3.org/2000/svg">
<circle cx="26.2" cy="26" r="26" fill="#EBF3FD"/>
<g clip-path="url(#clip0_2096_199624)">
<path fill-rule="evenodd" clip-rule="evenodd" d="M32.4268 26.5796H32.4245C32.3057 26.5796 32.2291 26.6323 32.1869 26.6768C32.1446 26.7213 32.0932 26.8009 32.0943 26.9262C32.0966 27.1288 32.2337 27.2705 32.4291 27.2705C32.5719 27.2811 32.6245 27.2178 32.6668 27.1722C32.7102 27.1277 32.7616 27.048 32.7605 26.9227C32.7582 26.7201 32.6222 26.5796 32.4268 26.5796ZM32.4302 28.4416C31.6064 28.4416 30.9585 27.7823 30.9516 26.9356C30.9482 26.5246 31.0979 26.1405 31.3733 25.8547C31.6487 25.569 32.02 25.4109 32.4177 25.4085H32.4268C33.2484 25.4085 33.8963 26.0679 33.9032 26.9145C33.9066 27.3232 33.7569 27.7074 33.4815 27.9943C33.2073 28.2812 32.837 28.4393 32.4371 28.4416H32.4302ZM19.7751 26.6768C19.7317 26.7201 19.6802 26.8009 19.6814 26.9262C19.6837 27.1288 19.8208 27.2705 20.0162 27.2705C20.135 27.2694 20.2116 27.2167 20.2539 27.1722C20.2973 27.1277 20.3487 27.048 20.3476 26.9227C20.3453 26.7201 20.2082 26.5796 20.0128 26.5796C19.8928 26.5796 19.8174 26.6323 19.7751 26.6768ZM18.5387 26.9356C18.5364 26.5246 18.685 26.1405 18.9615 25.8547C19.2357 25.569 19.606 25.4109 20.0048 25.4085C20.8355 25.4085 21.4834 26.0679 21.4902 26.9145C21.4925 27.3244 21.3428 27.7085 21.0674 27.9943C20.7932 28.2812 20.4218 28.4393 20.0242 28.4416C19.1935 28.4416 18.5456 27.7823 18.5387 26.9356ZM16.5676 30.8388H35.8286V25.6404C35.8286 25.5456 35.7669 25.3113 35.72 25.2305L34.2437 22.6261L32.3571 17.252C32.2988 17.0845 32.0269 16.8878 31.8543 16.8878H20.5407C20.3693 16.8878 20.0973 17.0845 20.039 17.252L18.0793 22.783L16.6761 25.2305C16.6304 25.3113 16.5676 25.5456 16.5676 25.6404V30.8388ZM17.0315 34.4422H18.8529V32.7254H17.0315V34.4422ZM33.5444 34.4422H35.3646V32.7254H33.5444V34.4422ZM36.2834 36.33H32.6245C32.1183 36.33 31.7046 35.9061 31.7046 35.3861V32.7254H20.6904V35.3861C20.6904 35.9061 20.2779 36.33 19.7717 36.33H16.1128C15.6066 36.33 15.1941 35.9061 15.1941 35.3861V32.6013C14.9176 32.4385 14.7302 32.1329 14.7302 31.7827V25.6404C14.7302 25.2071 14.8798 24.6438 15.0935 24.2714L16.4899 21.8239H15.1187C14.6125 21.8239 14.2 21.4011 14.2 20.8811C14.2 20.36 14.6125 19.9373 15.1187 19.9373H17.1423L18.309 16.6114C18.6313 15.6921 19.5911 15 20.5407 15H31.8543C32.8039 15 33.7638 15.6921 34.086 16.6114L35.2538 19.9373H37.2763C37.7837 19.9373 38.1962 20.36 38.1962 20.8811C38.1962 21.4011 37.7837 21.8239 37.2763 21.8239H35.9177L35.9417 21.8941L37.3049 24.2726C37.5175 24.645 37.666 25.2071 37.666 25.6404V31.7827C37.666 32.1329 37.4797 32.4385 37.2032 32.6013V35.3861C37.2032 35.9061 36.7907 36.33 36.2834 36.33Z" fill="#6D7881"/>
</g>
<defs>
<clipPath id="clip0_2096_199624">
<rect width="24" height="24" fill="white" transform="translate(14.2 14)"/>
</clipPath>
</defs>
</svg>
