<svg width="53" height="52" viewBox="0 0 53 52" fill="none" xmlns="http://www.w3.org/2000/svg">
<circle cx="26.8" cy="26" r="26" fill="#EBF3FD"/>
<path fill-rule="evenodd" clip-rule="evenodd" d="M17.3787 14.8787C16.8161 15.4413 16.5 16.2044 16.5 17V36.5H15.75C15.5511 36.5 15.3603 36.579 15.2197 36.7197C15.079 36.8603 15 37.0511 15 37.25C15 37.4489 15.079 37.6397 15.2197 37.7803C15.3603 37.921 15.5511 38 15.75 38H32.25C32.4489 38 32.6397 37.921 32.7803 37.7803C32.921 37.6397 33 37.4489 33 37.25C33 37.0511 32.921 36.8603 32.7803 36.7197C32.6397 36.579 32.4489 36.5 32.25 36.5H31.5V30.5C31.8978 30.5 32.2794 30.658 32.5607 30.9393C32.842 31.2206 33 31.6022 33 32V32.75C33 33.3467 33.2371 33.919 33.659 34.341C34.081 34.7629 34.6533 35 35.25 35C35.8467 35 36.419 34.7629 36.841 34.341C37.2629 33.919 37.5 33.3467 37.5 32.75V26H38.25C38.3486 26 38.4463 25.9806 38.5374 25.9428C38.6285 25.905 38.7112 25.8496 38.7809 25.7798C38.8505 25.71 38.9057 25.6271 38.9433 25.536C38.9809 25.4448 39.0002 25.3471 39 25.2485V20.486V20.4767C39 19.5538 39 18.3437 38.559 17.3645C38.319 16.8305 37.9425 16.346 37.368 16.004C36.801 15.665 36.096 15.5 35.25 15.5C35.0511 15.5 34.8603 15.579 34.7197 15.7197C34.579 15.8603 34.5 16.0511 34.5 16.25C34.5 16.4489 34.579 16.6397 34.7197 16.7803C34.8603 16.921 35.0511 17 35.25 17C35.904 17 36.324 17.1275 36.6 17.2925C36.8651 17.4527 37.0722 17.6934 37.191 17.9795C37.413 18.4715 37.476 19.0985 37.4925 19.8125H35.25C35.0511 19.8125 34.8603 19.8915 34.7197 20.0322C34.579 20.1728 34.5 20.3636 34.5 20.5625V25.25C34.5 25.4489 34.579 25.6397 34.7197 25.7803C34.8603 25.921 35.0511 26 35.25 26H36V32.75C36 32.9489 35.921 33.1397 35.7803 33.2803C35.6397 33.421 35.4489 33.5 35.25 33.5C35.0511 33.5 34.8603 33.421 34.7197 33.2803C34.579 33.1397 34.5 32.9489 34.5 32.75V32C34.5 31.2044 34.1839 30.4413 33.6213 29.8787C33.0587 29.3161 32.2956 29 31.5 29V17C31.5 16.2044 31.1839 15.4413 30.6213 14.8787C30.0587 14.3161 29.2956 14 28.5 14H19.5C18.7044 14 17.9413 14.3161 17.3787 14.8787ZM29.5607 15.9393C29.842 16.2206 30 16.6022 30 17V36.5H18V17C18 16.6022 18.158 16.2206 18.4393 15.9393C18.7206 15.658 19.1022 15.5 19.5 15.5H28.5C28.8978 15.5 29.2794 15.658 29.5607 15.9393ZM19.7197 17.2197C19.579 17.3603 19.5 17.5511 19.5 17.75V25.25C19.5 25.4489 19.579 25.6397 19.7197 25.7803C19.8603 25.921 20.0511 26 20.25 26H27.75C27.9489 26 28.1397 25.921 28.2803 25.7803C28.421 25.6397 28.5 25.4489 28.5 25.25V17.75C28.5 17.5511 28.421 17.3603 28.2803 17.2197C28.1397 17.079 27.9489 17 27.75 17H20.25C20.0511 17 19.8603 17.079 19.7197 17.2197Z" fill="#6D7881"/>
</svg>
