<svg width="53" height="52" viewBox="0 0 53 52" fill="none" xmlns="http://www.w3.org/2000/svg">
<circle cx="26.6" cy="26" r="26" fill="#EBF3FD"/>
<path fill-rule="evenodd" clip-rule="evenodd" d="M17.6 29.1852C17.6 34.0208 21.5341 37.9548 26.3696 37.9548C31.2057 37.9548 35.1392 34.0208 35.1388 29.1852C35.1388 24.6622 27.9247 15.3967 27.1018 14.3548C26.9248 14.1307 26.6549 14 26.3694 14C26.0838 14 25.814 14.1307 25.637 14.3548C24.8145 15.3981 17.6 24.664 17.6 29.1852ZM19.4667 29.1852C19.4667 26.2327 23.928 19.704 26.3696 16.4652C28.8113 19.704 33.2726 26.2327 33.2726 29.1852C33.2726 32.9915 30.1759 36.0877 26.3696 36.0877C22.5633 36.0877 19.4667 32.9911 19.4667 29.1852ZM25.4968 33.2884C25.4968 33.7808 25.8784 34.1889 26.3697 34.222C29.1498 34.2189 31.4028 31.9662 31.4064 29.1862C31.3734 28.6949 30.9653 28.3132 30.4729 28.3132C29.9805 28.3132 29.5723 28.6949 29.5393 29.1862C29.537 30.9356 28.1191 32.353 26.3697 32.3548C25.8784 32.3878 25.4968 32.796 25.4968 33.2884Z" fill="#6D7881"/>
</svg>
