<svg width="53" height="52" viewBox="0 0 53 52" fill="none" xmlns="http://www.w3.org/2000/svg">
<circle cx="26.4" cy="26" r="26" fill="#EBF3FD"/>
<g clip-path="url(#clip0_2096_199704)">
<path fill-rule="evenodd" clip-rule="evenodd" d="M26.2537 15.1724C23.2606 15.1724 20.2584 16.3655 17.9742 18.7526C15.6904 21.13 14.5577 24.2673 14.5577 27.3952C14.5577 30.5136 15.6996 33.6412 17.9742 36.0093C18.4994 36.5577 18.8586 36.9044 19.5033 36.9044C19.936 36.9044 20.1846 36.7792 20.5438 36.327C21.9251 34.6619 23.9695 33.6222 26.2537 33.6222C28.5378 33.6222 30.5822 34.6619 31.9635 36.327C32.3228 36.7792 32.5713 36.9044 33.004 36.9044C33.6487 36.9044 34.0079 36.5577 34.5331 36.0093C36.8077 33.6416 37.9496 30.5136 37.9496 27.3952C37.9496 24.2676 36.8173 21.13 34.5331 18.7526C32.249 16.3655 29.2467 15.1724 26.2537 15.1724ZM26.2537 16.8085C28.8691 16.8085 31.1897 17.8864 32.8384 19.359L32.1384 20.0999C31.8344 20.3983 31.8344 20.9661 32.1295 21.2645C32.4242 21.5725 32.949 21.5629 33.2342 21.2548L33.9434 20.5042C35.3984 22.2652 36.218 24.4021 36.3747 26.5867H35.3616C34.9473 26.5774 34.5697 26.9716 34.5697 27.3952C34.5697 27.8285 34.9473 28.2228 35.3616 28.2135H36.3655C36.3655 30.5619 34.8367 33.468 33.0228 35.22C31.3465 33.2659 28.952 31.9858 26.2537 31.9858C23.5557 31.9858 21.1609 33.2659 19.4846 35.2197C17.6703 33.468 16.1418 30.5615 16.1418 28.2131H17.1458C17.5603 28.2224 17.9377 27.8282 17.9377 27.3949C17.9377 26.9713 17.5603 26.577 17.1458 26.5863H16.1326C16.2894 24.4018 17.1089 22.2652 18.5639 20.5039L19.2732 21.2545C19.5587 21.5625 20.0927 21.5718 20.3782 21.2641C20.6729 20.9658 20.6729 20.398 20.369 20.0996L19.669 19.3586C21.3176 17.8864 23.6383 16.8085 26.2537 16.8085ZM26.2448 18.4156C25.8302 18.4252 25.4618 18.8198 25.471 19.2527V24.2476C24.1355 24.6136 23.1319 25.8837 23.1319 27.3949C23.1319 29.1848 24.5408 30.6578 26.2537 30.6578C27.9665 30.6578 29.3755 29.1848 29.3755 27.3949C29.3755 25.884 28.3715 24.6136 27.0363 24.2476V19.2531C27.0456 18.8102 26.6587 18.4156 26.2448 18.4156ZM26.2537 25.7688C27.1285 25.7688 27.8101 26.4908 27.8101 27.3952C27.8101 28.3094 27.1289 29.0313 26.2537 29.0313C25.3785 29.0313 24.6972 28.3094 24.6972 27.3952C24.6972 26.4908 25.3788 25.7688 26.2537 25.7688Z" fill="#6D7881"/>
</g>
<defs>
<clipPath id="clip0_2096_199704">
<rect width="24" height="24" fill="white" transform="translate(14.4 14)"/>
</clipPath>
</defs>
</svg>
