<svg width="52" height="52" viewBox="0 0 52 52" fill="none" xmlns="http://www.w3.org/2000/svg">
<circle cx="26" cy="26" r="26" fill="#EBF3FD"/>
<path fill-rule="evenodd" clip-rule="evenodd" d="M26 16.85C27.74 16.85 29.15 18.26 29.15 20C29.15 21.74 27.74 23.15 26 23.15C24.26 23.15 22.85 21.74 22.85 20C22.85 18.26 24.26 16.85 26 16.85ZM26 30.35C30.455 30.35 35.15 32.54 35.15 33.5V35.15H16.85V33.5C16.85 32.54 21.545 30.35 26 30.35ZM26 14C22.685 14 20 16.685 20 20C20 23.315 22.685 26 26 26C29.315 26 32 23.315 32 20C32 16.685 29.315 14 26 14ZM26 27.5C21.995 27.5 14 29.51 14 33.5V38H38V33.5C38 29.51 30.005 27.5 26 27.5Z" fill="#6D7881"/>
</svg>
