<svg width="53" height="52" viewBox="0 0 53 52" fill="none" xmlns="http://www.w3.org/2000/svg">
<circle cx="26.8" cy="26" r="26" fill="#EBF3FD"/>
<path fill-rule="evenodd" clip-rule="evenodd" d="M26.8017 22.4553C24.8484 22.4553 23.2585 24.044 23.2585 25.9973C23.2585 27.9506 24.8484 29.5394 26.8017 29.5394C28.7549 29.5394 30.3437 27.9506 30.3437 25.9973C30.3437 24.044 28.7549 22.4553 26.8017 22.4553ZM26.8017 31.2986C23.8782 31.2986 21.5014 28.9197 21.5014 25.9973C21.5014 23.0749 23.8782 20.696 26.8017 20.696C29.7251 20.696 32.1019 23.0749 32.1019 25.9973C32.1019 28.9197 29.7251 31.2986 26.8017 31.2986ZM25.8347 36.2504H27.7644L28.1021 34.2532C28.1535 33.9123 28.4076 33.6346 28.7474 33.5499C29.4593 33.3666 30.1336 33.0857 30.7543 32.7159C31.0566 32.539 31.4308 32.5529 31.7127 32.7566L33.3615 33.9305L34.7295 32.5626L33.5545 30.9073C33.3551 30.6254 33.3401 30.2501 33.5148 29.951C33.8847 29.3303 34.1656 28.6549 34.3489 27.9431C34.4336 27.6097 34.7102 27.3556 35.0522 27.2977L37.0505 26.9654L37.0548 25.0346L35.0575 24.6969C34.7166 24.6444 34.4379 24.3914 34.3532 24.0505C34.1699 23.3408 33.889 22.6654 33.5213 22.0447C33.3433 21.7413 33.3583 21.365 33.5609 21.0863L34.7338 19.4374L33.3551 18.0577L31.7277 19.2488C31.4436 19.4492 31.0695 19.4653 30.7693 19.2884C30.1293 18.9111 29.4368 18.627 28.7131 18.4458C28.3765 18.3611 28.1203 18.0824 28.0624 17.7361L27.729 15.7539H25.7993L25.4573 17.7661C25.3973 18.1027 25.1464 18.3783 24.8141 18.4694C24.1162 18.6495 23.4429 18.9325 22.8093 19.312C22.5113 19.49 22.1318 19.475 21.8477 19.2745L20.2075 18.1049L18.8395 19.4717L20.0242 21.1366C20.2257 21.4164 20.2439 21.7895 20.0692 22.0886C19.7058 22.7051 19.4302 23.3815 19.2501 24.0998C19.1654 24.4364 18.8878 24.6926 18.5404 24.7516L16.5571 25.085V27.0136L18.5694 27.3567C18.906 27.4146 19.1815 27.6665 19.2726 27.9988C19.4538 28.6989 19.7379 29.3721 20.1174 30.0036C20.2943 30.3059 20.2782 30.6833 20.0788 30.9663L18.9092 32.6076L20.2879 33.9862L21.9399 32.7898C22.2015 32.5979 22.596 32.5754 22.8908 32.7437C23.5169 33.1029 24.1773 33.3741 24.8559 33.5499C25.1893 33.6346 25.4434 33.9112 25.5013 34.2532L25.8347 36.2504ZM27.8362 38H25.7575C24.9374 38 24.2437 37.4125 24.1076 36.6042L23.8546 35.0787C23.3818 34.9254 22.9294 34.7388 22.5059 34.5244L21.2291 35.4335C20.587 35.8945 19.6489 35.8194 19.0818 35.2534L17.6153 33.7858C17.0331 33.2101 16.9559 32.3053 17.4341 31.6342L18.3271 30.3917C18.0945 29.9457 17.8972 29.4772 17.7396 28.9991L16.1937 28.7343C15.3865 28.5981 14.8 27.9056 14.8 27.0855V25.0132C14.8 24.1931 15.3865 23.4994 16.1937 23.3633L17.6999 23.1092C17.8522 22.6246 18.0441 22.154 18.2692 21.707L17.3601 20.4291C16.8852 19.7633 16.9602 18.8585 17.5402 18.2775L19.0121 16.8098C19.5696 16.2459 20.5216 16.1688 21.1659 16.6297L22.4116 17.5281C22.8619 17.2944 23.3304 17.0961 23.8053 16.9406L24.069 15.3947C24.2051 14.5875 24.8988 14 25.7178 14H27.7912C28.6113 14 29.3049 14.5875 29.44 15.3958L29.694 16.8999C30.1872 17.0553 30.676 17.2558 31.152 17.4992L32.4128 16.6008C33.0517 16.1398 33.9951 16.2149 34.5601 16.782L36.0277 18.2485C36.6088 18.8242 36.686 19.7301 36.2078 20.4001L35.3105 21.6577C35.5357 22.1004 35.7297 22.57 35.8884 23.0556L37.4128 23.314C38.2276 23.4512 38.8097 24.1459 38.7979 24.966V27.0361C38.7979 27.8563 38.2126 28.5499 37.4042 28.686L35.8798 28.9401C35.7308 29.4011 35.5357 29.8706 35.2998 30.337L36.1993 31.5988C36.6742 32.2667 36.5981 33.1726 36.0181 33.7515L34.5515 35.2191C33.979 35.7873 33.0378 35.8591 32.3978 35.3981L31.1413 34.5008C30.6986 34.727 30.229 34.9211 29.7434 35.0787L29.485 36.6042C29.3488 37.4125 28.6552 38 27.8362 38Z" fill="#6D7881"/>
</svg>
