<svg width="53" height="52" viewBox="0 0 53 52" fill="none" xmlns="http://www.w3.org/2000/svg">
<circle cx="26.2" cy="26" r="26" fill="#EBF3FD"/>
<g clip-path="url(#clip0_2096_199691)">
<path fill-rule="evenodd" clip-rule="evenodd" d="M26.2 15.4118C20.3522 15.4118 15.6117 20.1523 15.6117 26C15.6117 31.8477 20.3522 36.5882 26.2 36.5882C32.0477 36.5882 36.7882 31.8477 36.7882 26C36.7882 20.1523 32.0477 15.4118 26.2 15.4118ZM14.2 26C14.2 19.3726 19.5725 14 26.2 14C32.8274 14 38.2 19.3726 38.2 26C38.2 32.6274 32.8274 38 26.2 38C19.5725 38 14.2 32.6274 14.2 26ZM20.4701 19.9199C21.7454 18.6071 23.6811 17.2941 26.2 17.2941C28.7188 17.2941 30.6545 18.6071 31.9298 19.9199C32.5706 20.5796 33.061 21.2548 33.3941 21.8021C33.5605 22.0755 33.6918 22.3238 33.7843 22.5288C33.8302 22.6307 33.8702 22.73 33.9001 22.8215C33.9232 22.8923 33.9647 23.0283 33.9647 23.1765C33.9647 23.3061 33.9323 23.585 33.6778 23.789C33.445 23.9756 33.1899 23.963 33.0944 23.953C32.91 23.9337 32.7181 23.8514 32.6118 23.8058L32.6057 23.8032C32.5315 23.7714 32.4528 23.7363 32.3676 23.6983C32.1227 23.589 31.8244 23.456 31.4265 23.3094C30.3793 22.9236 28.6971 22.4706 26.2 22.4706C23.7028 22.4706 22.0206 22.9236 20.9734 23.3094C20.5755 23.456 20.2772 23.589 20.0323 23.6983C19.9471 23.7363 19.8684 23.7714 19.7942 23.8032L19.7881 23.8058C19.6818 23.8514 19.4899 23.9337 19.3055 23.953C19.21 23.963 18.9549 23.9756 18.7221 23.789C18.4676 23.585 18.4352 23.3061 18.4352 23.1765C18.4352 23.0283 18.4767 22.8923 18.4998 22.8215C18.5297 22.73 18.5697 22.6307 18.6156 22.5288C18.7081 22.3238 18.8394 22.0755 19.0058 21.8021C19.3389 21.2548 19.8293 20.5796 20.4701 19.9199ZM20.6109 21.9391C20.8511 21.6093 21.1425 21.2539 21.4827 20.9036C22.6074 19.7459 24.2012 18.7059 26.2 18.7059C28.1987 18.7059 29.7925 19.7459 30.9172 20.9036C31.2574 21.2539 31.5488 21.6093 31.789 21.9391C30.5977 21.5138 28.7866 21.0588 26.2 21.0588C23.6133 21.0588 21.8022 21.5138 20.6109 21.9391ZM26.2 24.8235C25.5502 24.8235 25.0235 25.3503 25.0235 26C25.0235 26.6497 25.5502 27.1765 26.2 27.1765C26.8497 27.1765 27.3764 26.6497 27.3764 26C27.3764 25.3503 26.8497 24.8235 26.2 24.8235ZM23.6117 26C23.6117 24.5706 24.7705 23.4118 26.2 23.4118C27.6294 23.4118 28.7882 24.5706 28.7882 26C28.7882 27.4294 27.6294 28.5882 26.2 28.5882C24.7705 28.5882 23.6117 27.4294 23.6117 26ZM20.2364 27.212C21.1778 27.3541 22.4031 27.753 23.4775 28.7851C24.3674 29.64 24.7997 30.9279 25.0186 31.9004C25.1316 32.4023 25.1951 32.8553 25.2306 33.1829C25.2484 33.3472 25.2593 33.4813 25.2657 33.5757C25.269 33.6229 25.2711 33.6604 25.2725 33.6868L25.274 33.7181L25.2744 33.7274L25.2745 33.7303L25.2745 33.7314C25.2746 33.7316 25.2746 33.7322 24.5692 33.7578C24.4487 34.4534 24.4485 34.4533 24.4483 34.4533L24.4466 34.453L24.4437 34.4525L24.4354 34.451L24.4097 34.4461C24.3885 34.442 24.3592 34.4361 24.3227 34.4281C24.2495 34.4122 24.1467 34.3881 24.0193 34.3538C23.7647 34.2852 23.4101 34.1754 22.9964 34.0078C22.1716 33.6736 21.0947 33.1028 20.1092 32.1561C19.1093 31.1956 18.5783 30.1518 18.2976 29.3458C18.1572 28.9429 18.0788 28.5976 18.0351 28.3483C18.0132 28.2235 17.9999 28.1223 17.992 28.0493C17.988 28.0128 17.9853 27.9833 17.9836 27.9614L17.9816 27.9342L17.9811 27.9251L17.9809 27.9216L17.9808 27.9202C17.9808 27.9199 17.9807 27.9189 18.6857 27.8823C18.5714 27.1858 18.5717 27.1857 18.572 27.1857L18.5742 27.1853L18.5779 27.1847L18.5879 27.1832L18.6185 27.1788C18.6434 27.1755 18.6774 27.1712 18.7198 27.1668C18.8044 27.1579 18.9226 27.1482 19.0686 27.1431C19.3598 27.133 19.7655 27.1409 20.2364 27.212ZM18.6857 27.8823L18.572 27.1857C18.2171 27.2439 17.9621 27.5597 17.9807 27.9189L18.6857 27.8823ZM19.5293 28.5579C19.5573 28.6582 19.5908 28.7666 19.6308 28.8815C19.8545 29.5238 20.2797 30.3623 21.0872 31.138C21.909 31.9275 22.8176 32.4121 23.5265 32.6993C23.6047 32.731 23.6802 32.7602 23.7527 32.787C23.7235 32.6079 23.687 32.4134 23.6413 32.2104C23.4373 31.304 23.0792 30.36 22.4995 29.8032C21.6911 29.0266 20.7651 28.7196 20.0257 28.608C19.8462 28.5809 19.6791 28.5656 19.5293 28.5579ZM24.5692 33.7578L24.4483 34.4533C24.6579 34.4896 24.8732 34.4295 25.0335 34.2895C25.1937 34.1496 25.2823 33.944 25.2745 33.7314L24.5692 33.7578ZM32.3516 28.608C31.6122 28.7196 30.6862 29.0266 29.8778 29.8032C29.2982 30.36 28.9401 31.304 28.736 32.2104C28.6904 32.4134 28.6538 32.6079 28.6246 32.787C28.6971 32.7602 28.7727 32.731 28.8508 32.6993C29.5597 32.4121 30.4683 31.9275 31.2901 31.138C32.0976 30.3623 32.5228 29.5238 32.7465 28.8815C32.7866 28.7666 32.82 28.6582 32.848 28.5579C32.6982 28.5656 32.5311 28.5809 32.3516 28.608ZM33.6917 27.8823C34.3966 27.9189 34.3966 27.9192 34.3966 27.9195L34.3965 27.9216L34.3963 27.9251L34.3957 27.9342L34.3937 27.9614C34.392 27.9833 34.3893 28.0128 34.3854 28.0493C34.3774 28.1223 34.3641 28.2235 34.3423 28.3483C34.2986 28.5976 34.2201 28.9429 34.0798 29.3458C33.799 30.1518 33.268 31.1956 32.2682 32.1561C31.2826 33.1028 30.2057 33.6736 29.381 34.0078C28.9672 34.1754 28.6126 34.2852 28.3581 34.3538C28.2306 34.3881 28.1278 34.4122 28.0547 34.4281C28.0181 34.4361 27.9889 34.442 27.9677 34.4461L27.9419 34.451L27.9337 34.4525L27.9307 34.453L27.9296 34.4532C27.9293 34.4533 27.9286 34.4534 27.8082 33.7578C27.1027 33.7322 27.1028 33.732 27.1028 33.7318L27.1028 33.7303L27.1029 33.7274L27.1033 33.7181L27.1048 33.6868C27.1062 33.6604 27.1083 33.6229 27.1116 33.5757C27.118 33.4813 27.1289 33.3472 27.1467 33.1829C27.1822 32.8553 27.2458 32.4023 27.3587 31.9004C27.5776 30.9279 28.0099 29.64 28.8998 28.7851C29.9742 27.753 31.1996 27.3541 32.1409 27.212C32.6118 27.1409 33.0175 27.133 33.3087 27.1431C33.4547 27.1482 33.573 27.1579 33.6576 27.1668C33.6999 27.1712 33.7339 27.1755 33.7588 27.1788L33.7894 27.1832L33.7994 27.1847L33.8031 27.1853L33.8046 27.1856C33.8049 27.1856 33.8059 27.1858 33.6917 27.8823ZM27.8082 33.7578L27.1028 33.7318C27.095 33.9444 27.1836 34.1496 27.3439 34.2895C27.5041 34.4295 27.7189 34.4897 27.9286 34.4534L27.8082 33.7578ZM33.6917 27.8823L33.8059 27.1858C34.1608 27.244 34.4152 27.5603 34.3966 27.9195L33.6917 27.8823Z" fill="#6D7881"/>
</g>
<defs>
<clipPath id="clip0_2096_199691">
<rect width="24" height="24" fill="white" transform="translate(14.2 14)"/>
</clipPath>
</defs>
</svg>
