<svg width="53" height="52" viewBox="0 0 53 52" fill="none" xmlns="http://www.w3.org/2000/svg">
<circle cx="26.4" cy="26" r="26" fill="#EBF3FD"/>
<g clip-path="url(#clip0_2096_199637)">
<path fill-rule="evenodd" clip-rule="evenodd" d="M27.4893 15C30.4028 15 33.1417 16.1344 35.2022 18.1949C37.2626 20.2543 38.3981 22.9943 38.3981 25.9077C38.3981 28.8212 37.2637 31.5601 35.2032 33.6206C33.0773 35.7465 30.2839 36.81 27.4904 36.81C24.6969 36.81 21.9045 35.7476 19.7775 33.6206C19.351 33.1941 19.351 32.5047 19.7775 32.0782C20.204 31.6517 20.8934 31.6517 21.3199 32.0782C24.722 35.4803 30.2577 35.4803 33.6598 32.0782C35.308 30.4301 36.2155 28.2387 36.2155 25.9077C36.2155 23.5767 35.308 21.3854 33.6598 19.7372C32.0116 18.0891 29.8203 17.1815 27.4893 17.1815C25.1583 17.1815 22.967 18.0891 21.3188 19.7372C19.6706 21.3854 18.7631 23.5767 18.7631 25.9077H20.9447L17.6723 30.2708L14.4 25.9077H16.5816C16.5816 22.9943 17.716 20.2553 19.7764 18.1949C21.8369 16.1344 24.5758 15 27.4893 15ZM25.3078 20.4539C25.3078 19.8507 25.7964 19.3631 26.3985 19.3631C27.0006 19.3631 27.4893 19.8507 27.4893 20.4539V25.9077H30.7616C31.3637 25.9077 31.8524 26.3953 31.8524 26.9985C31.8524 27.6017 31.3637 28.0893 30.7616 28.0893H26.3985C25.7964 28.0893 25.3078 27.6017 25.3078 26.9985V20.4539Z" fill="#6D7881"/>
</g>
<defs>
<clipPath id="clip0_2096_199637">
<rect width="24" height="24" fill="white" transform="translate(14.4 14)"/>
</clipPath>
</defs>
</svg>
