<svg width="52" height="52" viewBox="0 0 52 52" fill="none" xmlns="http://www.w3.org/2000/svg">
<circle cx="26" cy="26" r="26" fill="#EBF3FD"/>
<g clip-path="url(#clip0_2096_199611)">
<path fill-rule="evenodd" clip-rule="evenodd" d="M16.4902 35.4023V36.4885C16.4902 37.3209 17.196 38 18.0622 38H19.5176C20.3839 38 21.0897 37.3209 21.0897 36.4885V35.5545H30.9115V36.4885C30.9115 37.3209 31.615 38 32.4824 38H33.9378C34.8052 38 35.5098 37.3209 35.5098 36.4885V35.4023C36.3784 35.0838 37 34.2784 37 33.3293V29.5732V27.5488V15.5115C37 14.678 36.2942 14 35.4291 14H16.5709C15.7047 14 15 14.678 15 15.5115V27.5488V29.5732V33.3293C15 34.2784 15.6216 35.0838 16.4902 35.4023ZM19.4256 36.3988H18.1554V35.5535H19.4256V36.3988ZM33.848 36.3988H32.5755V35.5535H33.848V36.3988ZM16.6641 15.6001H35.337V25.424C35.2102 25.3873 35.0801 25.3635 34.9443 25.3495L34.4113 21.1928C34.381 19.9922 33.3565 19.0237 32.1009 19.0237H19.8991C18.6435 19.0237 17.619 19.9911 17.5887 21.1928L17.0568 25.3495C16.921 25.3635 16.7909 25.3884 16.663 25.424V15.6001H16.6641ZM33.2634 25.3247H18.7377L19.246 21.345C19.2494 21.3126 19.2517 21.2802 19.2517 21.2478C19.2517 20.9045 19.5423 20.6249 19.8991 20.6249H32.102C32.4577 20.6249 32.7483 20.9045 32.7483 21.2478C32.7483 21.2802 32.7506 21.3137 32.7551 21.345L33.2634 25.3247ZM16.6641 29.5732V27.5488C16.6641 27.2055 16.9547 26.9247 17.3115 26.9247H34.6907C35.0464 26.9247 35.337 27.2044 35.337 27.5488V29.5732V33.3293C35.337 33.6727 35.0464 33.9512 34.6907 33.9512H17.3115C16.9547 33.9512 16.6641 33.6727 16.6641 33.3293V29.5732ZM20.3207 31.7692C21.1461 31.7692 21.8152 31.1235 21.8152 30.3269C21.8152 29.5304 21.1461 28.8846 20.3207 28.8846C19.4952 28.8846 18.8261 29.5304 18.8261 30.3269C18.8261 31.1235 19.4952 31.7692 20.3207 31.7692ZM31.7989 31.7692C32.6243 31.7692 33.2935 31.1235 33.2935 30.3269C33.2935 29.5304 32.6243 28.8846 31.7989 28.8846C30.9735 28.8846 30.3043 29.5304 30.3043 30.3269C30.3043 31.1235 30.9735 31.7692 31.7989 31.7692Z" fill="#6D7881"/>
</g>
<defs>
<clipPath id="clip0_2096_199611">
<rect width="24" height="24" fill="white" transform="translate(14 14)"/>
</clipPath>
</defs>
</svg>
