<svg width="16" height="16" viewBox="0 0 16 16" fill="none" xmlns="http://www.w3.org/2000/svg">
<path fill-rule="evenodd" clip-rule="evenodd" d="M15.5 0H0.5C0.223858 0 0 0.223858 0 0.5V15.5C0 15.7761 0.223858 16 0.5 16H15.5C15.7761 16 16 15.7761 16 15.5V0.5C16 0.223858 15.7761 0 15.5 0ZM15 15H1V1H15V15Z" fill="#194FA1"/>
<path fill-rule="evenodd" clip-rule="evenodd" d="M10.2084 6.50091L12.5 4.205V6C12.5 6.27614 12.7238 6.5 13 6.5C13.2761 6.5 13.5 6.27614 13.5 6V3C13.5 2.72386 13.2761 2.5 13 2.5H9.99998C9.72384 2.5 9.49998 2.72386 9.49998 3C9.49998 3.27614 9.72384 3.5 9.99998 3.5H11.795L9.50374 5.79125C9.30816 5.98682 9.3076 6.30374 9.50248 6.5C9.6963 6.69519 10.0116 6.6963 10.2068 6.50249C10.2074 6.50197 10.2079 6.50144 10.2084 6.50091Z" fill="#194FA1"/>
<path fill-rule="evenodd" clip-rule="evenodd" d="M3 13.5H6C6.27614 13.5 6.5 13.2761 6.5 13C6.5 12.7238 6.27614 12.5 6 12.5H4.205L6.4975 10.2075C6.69218 10.0128 6.69218 9.69717 6.4975 9.50249C6.30282 9.30781 5.98718 9.30781 5.7925 9.50249L3.5 11.795V9.99999C3.5 9.72384 3.27614 9.49999 3 9.49999C2.72386 9.49999 2.5 9.72384 2.5 9.99999V13C2.5 13.2761 2.72386 13.5 3 13.5Z" fill="#194FA1"/>
</svg>

