<svg width="18" height="18" viewBox="0 0 18 18" fill="none" xmlns="http://www.w3.org/2000/svg">
<path fill-rule="evenodd" clip-rule="evenodd" d="M17.9959 6.43022C18.0271 6.7404 17.8791 7.0413 17.6144 7.20608C17.3497 7.37086 17.0143 7.37086 16.7496 7.20608C16.485 7.0413 16.337 6.7404 16.3681 6.43022V3.01602L9.03887 10.3433C8.78842 10.5945 8.42291 10.6931 8.08003 10.6019C7.73715 10.5107 7.46898 10.2435 7.37655 9.90108C7.28412 9.55861 7.38146 9.19286 7.63192 8.9416L14.9366 1.64053H11.5747C11.261 1.67493 10.9553 1.52702 10.7877 1.25977C10.6201 0.992518 10.6201 0.652993 10.7877 0.385744C10.9553 0.118495 11.261 -0.0294161 11.5747 0.00498324H16.9571C16.9734 0.00498324 16.9898 0.00498324 17.0062 0.00498324H17.0634C17.088 0.00498324 17.1043 0.0147965 17.1289 0.0164321C17.1534 0.0180676 17.1616 0.00498324 17.1779 0.00498324C17.3654 0.0100045 17.5439 0.0863432 17.6769 0.218422C17.6979 0.230848 17.7171 0.24597 17.7342 0.263399C17.7505 0.28139 17.7669 0.301835 17.7833 0.321461C17.9131 0.455925 17.9888 0.633528 17.9959 0.820302C17.9959 0.838293 17.9878 0.853831 17.9878 0.871822C17.9878 0.889813 17.9959 0.915164 17.9959 0.938879V6.42613V6.43022ZM1.636 16.3645H14.724V9.00457H16.36V16.3645C16.36 17.2678 15.6275 18.0001 14.724 18.0001H1.636C0.73246 18.0001 0 17.2678 0 16.3645V3.28016C0 2.37687 0.73246 1.64462 1.636 1.64462H8.99797V3.28016H1.636V16.3645Z" fill="#194FA1"/>
</svg>
