<svg width="20" height="20" viewBox="0 0 20 20" fill="none" xmlns="http://www.w3.org/2000/svg">
<path fill-rule="evenodd" clip-rule="evenodd" d="M7.07207 9.34992V19.1965C7.07207 19.9912 7.99165 20.1899 8.48649 19.8215L12.7668 15.8564C12.9771 15.6908 13.0596 15.4797 13.0596 15.2314V9.13883L19.7523 1.37828C20.2265 0.819515 20.0203 0 19.1296 0H0.837122C-0.111317 0 -0.152553 0.927128 0.214451 1.37828L7.07207 9.34992ZM8.53185 8.47246L2.66802 1.67214H17.2987L11.604 8.3069C11.4803 8.47246 11.3978 8.64216 11.3978 8.84911V14.8961L8.73803 17.3174V9.01467C8.73803 8.80772 8.65556 8.63802 8.53185 8.47246Z" fill="#194FA1"/>
</svg>
