<svg width="18" height="18" viewBox="0 0 18 18" fill="none" xmlns="http://www.w3.org/2000/svg">
<path fill-rule="evenodd" clip-rule="evenodd" d="M7.26989 3.86247C7.04694 4.09178 6.71748 4.18272 6.40846 4.10025C6.09944 4.01778 5.85911 3.77478 5.78006 3.46487C5.70101 3.15496 5.79558 2.82652 6.02087 2.61242L8.3794 0.253916C8.5213 0.114363 8.70616 0.0267987 8.90403 0.00540558C9.16734 -0.0239682 9.43107 0.0673227 9.62273 0.256032L11.9727 2.60612C12.2044 2.82652 12.299 3.15496 12.2199 3.46487C12.1409 3.77478 11.9006 4.01778 11.5915 4.10025C11.2825 4.18272 10.9531 4.09178 10.7337 3.86607L9.88362 3.01604L9.88359 6.31461C9.8881 6.63327 9.72068 6.92966 9.44544 7.0903C9.17021 7.25095 8.82979 7.25095 8.55456 7.0903C8.27932 6.92966 8.1119 6.63327 8.11637 6.3197V3.01602L7.26989 3.86247ZM3.12284 5.75893C3.50465 5.70359 3.87823 5.90234 4.04569 6.2499C4.21315 6.59746 4.13578 7.01349 3.86266 7.26975L3.01262 8.11979L6.3112 8.11982C6.62986 8.11531 6.92625 8.28273 7.08689 8.55797C7.24754 8.8332 7.24754 9.17362 7.08689 9.44885C6.92625 9.72409 6.62986 9.89151 6.31629 9.88704H3.01603L3.8562 10.7226C4.08795 10.943 4.18253 11.2714 4.10348 11.5813C4.02443 11.8912 3.78409 12.1342 3.47508 12.2167C3.16606 12.2992 2.8366 12.2082 2.6172 11.9825L0.262164 9.6275C0.0943999 9.46151 0 9.23532 0 8.99932C0 8.76332 0.0943999 8.53713 0.260803 8.37249L2.61499 6.01831C2.75097 5.87809 2.92961 5.78685 3.12284 5.75893ZM14.1433 7.27557C13.8934 7.03694 13.8054 6.67451 13.9183 6.34789C14.0311 6.02126 14.324 5.79037 14.668 5.7569C14.9347 5.73097 15.1987 5.82745 15.3828 6.0161L17.7378 8.37114C17.9056 8.53713 18 8.76332 18 8.99932C18 9.23532 17.9056 9.46151 17.7392 9.62614L15.3864 11.9789C15.1634 12.2082 14.8339 12.2992 14.5249 12.2167C14.2159 12.1342 13.9756 11.8912 13.8965 11.5813C13.8175 11.2714 13.912 10.943 14.1381 10.7282L14.984 9.88695L11.7006 9.88664C11.385 9.9015 11.0855 9.74684 10.9149 9.48094C10.7443 9.21503 10.7285 8.8783 10.8735 8.5976C11.0185 8.31691 11.3022 8.1349 11.6177 8.12018C11.6592 8.11888 11.6592 8.11888 11.6837 8.11978H14.9874L14.1433 7.27557ZM8.11646 11.6949C8.10661 11.237 8.44818 10.8475 8.9034 10.7975C9.15631 10.7696 9.40904 10.8522 9.59678 11.0241C9.78451 11.1959 9.88903 11.4404 9.88363 11.6871V14.9826L10.7301 14.1362C10.9531 13.9069 11.2825 13.8159 11.5915 13.8984C11.9006 13.9809 12.1409 14.2239 12.2199 14.5338C12.299 14.8437 12.2044 15.1721 11.9791 15.3862L9.62127 17.7441C9.27701 18.0844 8.72299 18.0844 8.37727 17.7426L6.02683 15.392C5.77689 15.1534 5.68898 14.791 5.80182 14.4643C5.91465 14.1377 6.20752 13.9068 6.5515 13.8734C6.8182 13.8474 7.08226 13.9439 7.26634 14.1326L8.11639 14.9826L8.11646 11.6949Z" fill="#6D7881"/>
</svg>
