<svg width="34" height="24" viewBox="0 0 34 24" fill="none" xmlns="http://www.w3.org/2000/svg">
<path d="M10.5167 16.8438L5.30659 12.8053C4.91208 12.4995 4.89714 11.888 5.26849 11.5705C5.31948 11.511 5.37924 11.4599 5.44567 11.4195L10.4612 7.17459C10.9491 6.76133 11.6803 7.12832 11.6823 7.78739L11.6927 11.3323L17.5 11.3507L23.3073 11.3323L23.3177 7.78739C23.3197 7.12832 24.0509 6.76133 24.5388 7.17459L29.5543 11.4195C29.6208 11.4599 29.6805 11.511 29.7315 11.5705C30.1029 11.888 30.0879 12.4995 29.6934 12.8053L24.4833 16.8438C23.9883 17.2275 23.2905 16.8608 23.2925 16.218L23.3026 12.9304L17.5 12.9122L11.6975 12.9304L11.7075 16.218C11.7095 16.8608 11.0117 17.2275 10.5167 16.8438Z" fill="#194FA1"/>
</svg>
