<svg width="15" height="15" viewBox="0 0 15 15" fill="none" xmlns="http://www.w3.org/2000/svg">
<path fill-rule="evenodd" clip-rule="evenodd" d="M1.51569 6.13636C1.41618 6.57492 1.36364 7.03133 1.36364 7.5C1.36364 7.96867 1.41618 8.42508 1.51569 8.86364H4.20164C4.13768 8.41854 4.10051 7.96796 4.09106 7.5142C4.09086 7.50473 4.09086 7.49527 4.09106 7.4858C4.10051 7.03204 4.13768 6.58146 4.20164 6.13636H1.51569ZM2.00149 4.77273H4.48581C4.79891 3.63328 5.2924 2.54868 5.94935 1.56125C4.21692 2.01234 2.78235 3.20144 2.00149 4.77273ZM7.5 1.73918C6.79113 2.65246 6.2536 3.6804 5.90754 4.77273H9.09246C8.7464 3.6804 8.20887 2.65246 7.5 1.73918ZM9.41872 6.13636H5.58128C5.50755 6.5851 5.46494 7.04067 5.4547 7.5C5.46494 7.95933 5.50755 8.4149 5.58128 8.86364H9.41872C9.49245 8.4149 9.53506 7.95933 9.5453 7.5C9.53506 7.04067 9.49245 6.5851 9.41872 6.13636ZM10.7984 8.86364C10.8623 8.41854 10.8995 7.96796 10.9089 7.5142C10.9091 7.50473 10.9091 7.49527 10.9089 7.4858C10.8995 7.03204 10.8623 6.58146 10.7984 6.13636H13.4843C13.5838 6.57492 13.6364 7.03133 13.6364 7.5C13.6364 7.96867 13.5838 8.42508 13.4843 8.86364H10.7984ZM9.09246 10.2273H5.90754C6.2536 11.3196 6.79113 12.3475 7.5 13.2608C8.20887 12.3475 8.7464 11.3196 9.09246 10.2273ZM5.94935 13.4388C5.2924 12.4513 4.79891 11.3667 4.48581 10.2273H2.00149C2.78235 11.7986 4.21692 12.9877 5.94935 13.4388ZM9.05065 13.4388C9.7076 12.4513 10.2011 11.3667 10.5142 10.2273H12.9985C12.2176 11.7986 10.7831 12.9877 9.05065 13.4388ZM12.9985 4.77273H10.5142C10.2011 3.63328 9.70759 2.54868 9.05065 1.56125C10.7831 2.01234 12.2176 3.20144 12.9985 4.77273ZM0 7.5C0 3.35786 3.35786 0 7.5 0C11.6421 0 15 3.35786 15 7.5C15 11.6421 11.6421 15 7.5 15C3.35786 15 0 11.6421 0 7.5Z" fill="#1DBD55"/>
</svg>
