<svg width="16" height="16" viewBox="0 0 16 16" fill="none" xmlns="http://www.w3.org/2000/svg">
    <path d="M5.86584 5.79996C6.03825 5.30985 6.37855 4.89657 6.82647 4.63332C7.27439 4.37008 7.80103 4.27385 8.3131 4.36168C8.82517 4.44952 9.28964 4.71574 9.62423 5.11321C9.95882 5.51068 10.1419 6.01374 10.1412 6.53329C10.1412 7.99996 7.94117 8.73329 7.94117 8.73329M7.99984 11.6666H8.00717M15.3332 7.99996C15.3332 12.05 12.0499 15.3333 7.99984 15.3333C3.94975 15.3333 0.666504 12.05 0.666504 7.99996C0.666504 3.94987 3.94975 0.666626 7.99984 0.666626C12.0499 0.666626 15.3332 3.94987 15.3332 7.99996Z" stroke="#6D7881" stroke-width="1.33333" stroke-linecap="round" stroke-linejoin="round" />
</svg>