<svg width="16" height="16" viewBox="0 0 16 16" fill="none" xmlns="http://www.w3.org/2000/svg">
<path fill-rule="evenodd" clip-rule="evenodd" d="M14.6667 16H1.33333C0.596954 16 0 15.403 0 14.6667V2.66667C0 1.93029 0.596954 1.33333 1.33333 1.33333H2.66667V2.66667H1.33333V14.6667H14.6667V2.66667H13.3333V1.33333H14.6667C15.403 1.33333 16 1.93029 16 2.66667V14.6667C16 15.403 15.403 16 14.6667 16ZM11.5476 11.4286H12.5476C12.8238 11.4286 13.0476 11.727 13.0476 12.0952C13.0476 12.4634 12.8238 12.7619 12.5476 12.7619H11.5476C11.2715 12.7619 11.0476 12.4634 11.0476 12.0952C11.0476 11.727 11.2715 11.4286 11.5476 11.4286ZM11.5476 8.7619H12.5476C12.8238 8.7619 13.0476 9.06038 13.0476 9.42857C13.0476 9.79676 12.8238 10.0952 12.5476 10.0952H11.5476C11.2715 10.0952 11.0476 9.79676 11.0476 9.42857C11.0476 9.06038 11.2715 8.7619 11.5476 8.7619ZM2.57143 6.95238C2.20324 6.95238 1.90476 6.6539 1.90476 6.28571C1.90476 5.91752 2.20324 5.61905 2.57143 5.61905H13.4286C13.7968 5.61905 14.0952 5.91752 14.0952 6.28571C14.0952 6.6539 13.7968 6.95238 13.4286 6.95238H2.57143ZM12 4C11.6318 4 11.3333 3.70152 11.3333 3.33333V0.666667C11.3333 0.298477 11.6318 0 12 0C12.3682 0 12.6667 0.298477 12.6667 0.666667V3.33333C12.6667 3.70152 12.3682 4 12 4ZM9.33333 1.33333H10.6667V2.66667H9.33333V1.33333ZM7.73809 11.4286H8.7381C9.01424 11.4286 9.2381 11.727 9.2381 12.0952C9.2381 12.4634 9.01424 12.7619 8.7381 12.7619H7.73809C7.46195 12.7619 7.23809 12.4634 7.23809 12.0952C7.23809 11.727 7.46195 11.4286 7.73809 11.4286ZM7.73809 8.7619H8.7381C9.01424 8.7619 9.2381 9.06038 9.2381 9.42857C9.2381 9.79676 9.01424 10.0952 8.7381 10.0952H7.73809C7.46195 10.0952 7.23809 9.79676 7.23809 9.42857C7.23809 9.06038 7.46195 8.7619 7.73809 8.7619ZM8 4C7.63181 4 7.33333 3.70152 7.33333 3.33333V0.666667C7.33333 0.298477 7.63181 0 8 0C8.36819 0 8.66667 0.298477 8.66667 0.666667V3.33333C8.66667 3.70152 8.36819 4 8 4ZM5.33333 1.33333H6.66667V2.66667H5.33333V1.33333ZM3.92857 11.4286H4.92857C5.20471 11.4286 5.42857 11.727 5.42857 12.0952C5.42857 12.4634 5.20471 12.7619 4.92857 12.7619H3.92857C3.65243 12.7619 3.42857 12.4634 3.42857 12.0952C3.42857 11.727 3.65243 11.4286 3.92857 11.4286ZM3.92857 8.7619H4.92857C5.20471 8.7619 5.42857 9.06038 5.42857 9.42857C5.42857 9.79676 5.20471 10.0952 4.92857 10.0952H3.92857C3.65243 10.0952 3.42857 9.79676 3.42857 9.42857C3.42857 9.06038 3.65243 8.7619 3.92857 8.7619ZM4 4C3.63181 4 3.33333 3.70152 3.33333 3.33333V0.666667C3.33333 0.298477 3.63181 0 4 0C4.36819 0 4.66667 0.298477 4.66667 0.666667V3.33333C4.66667 3.70152 4.36819 4 4 4Z" fill="#6B6F7A"/>
</svg>
