<svg width="16" height="16" viewBox="0 0 16 16" fill="none" xmlns="http://www.w3.org/2000/svg">
<g id="email">
<path id="Shape" fill-rule="evenodd" clip-rule="evenodd" d="M14.5938 2H1.40625C0.631813 2 0 2.62901 0 3.40154V12.7451C0 13.515 0.629 14.1467 1.40625 14.1467H14.5938C15.3663 14.1467 16 13.5198 16 12.7451V3.40154C16 2.63163 15.371 2 14.5938 2ZM14.3996 2.93436L8.02981 9.2828L1.60497 2.93436H14.3996ZM0.9375 12.5517V3.59056L5.45247 8.05181L0.9375 12.5517ZM1.60041 13.2123L6.11822 8.70963L7.70125 10.2738C7.8845 10.4549 8.18022 10.4543 8.36272 10.2724L9.90625 8.73402L14.3996 13.2123H1.60041ZM15.0625 12.5516L10.5692 8.07333L15.0625 3.59501V12.5516Z" fill="#6D7881"/>
</g>
</svg>
