<svg width="24" height="24" viewBox="0 0 24 24" fill="none" xmlns="http://www.w3.org/2000/svg">
<path fill-rule="evenodd" clip-rule="evenodd" d="M0 12C0 5.38302 5.38338 0 12 0C18.6166 0 24 5.38302 24 12C24 18.617 18.6166 24 12 24C5.38338 24 0 18.617 0 12ZM2.23846 12C2.23846 17.3825 6.67059 21.7615 12.1185 21.7615C17.5663 21.7615 21.9985 17.3825 21.9985 12C21.9985 6.61745 17.5663 2.23846 12.1185 2.23846C6.67059 2.23846 2.23846 6.61745 2.23846 12ZM13.2706 7.21514C13.2706 7.89725 12.7176 8.45022 12.0355 8.45022C11.3534 8.45022 10.8004 7.89725 10.8004 7.21514C10.8004 6.53302 11.3534 5.98006 12.0355 5.98006C12.7176 5.98006 13.2706 6.53302 13.2706 7.21514ZM11.1275 11.2032C11.1275 10.7956 11.4583 10.4647 11.866 10.4647C12.2736 10.4647 12.6044 10.7952 12.6044 11.2032V17.4801C12.6044 17.8878 12.2736 18.2186 11.866 18.2186C11.4583 18.2186 11.1275 17.8878 11.1275 17.4801V11.2032Z" fill="#6D7881"/>
</svg>
