<svg width="18" height="18" viewBox="0 0 18 18" fill="none" xmlns="http://www.w3.org/2000/svg">
<path fill-rule="evenodd" clip-rule="evenodd" d="M0 9C0 4.03726 4.03754 0 9 0C13.9625 0 18 4.03726 18 9C18 13.9627 13.9625 18 9 18C4.03754 18 0 13.9627 0 9ZM1.67885 9C1.67885 13.0369 5.00295 16.3212 9.08885 16.3212C13.1747 16.3212 16.4988 13.0369 16.4988 9C16.4988 4.96309 13.1747 1.67885 9.08885 1.67885C5.00295 1.67885 1.67885 4.96309 1.67885 9ZM9.95294 5.41135C9.95294 5.92294 9.53821 6.33766 9.02663 6.33766C8.51504 6.33766 8.10032 5.92294 8.10032 5.41135C8.10032 4.89977 8.51504 4.48505 9.02663 4.48505C9.53821 4.48505 9.95294 4.89977 9.95294 5.41135ZM8.34563 8.4024C8.34563 8.09668 8.59375 7.84855 8.89948 7.84855C9.2052 7.84855 9.45332 8.0964 9.45332 8.4024V13.1101C9.45332 13.4158 9.2052 13.6639 8.89948 13.6639C8.59375 13.6639 8.34563 13.4158 8.34563 13.1101V8.4024Z" fill="#6D7881"/>
</svg>
