<?xml version="1.0" encoding="UTF-8" standalone="no"?>
<!-- Generated by IcoMoon.io -->

<svg
   xmlns:dc="http://purl.org/dc/elements/1.1/"
   xmlns:cc="http://creativecommons.org/ns#"
   xmlns:rdf="http://www.w3.org/1999/02/22-rdf-syntax-ns#"
   xmlns:svg="http://www.w3.org/2000/svg"
   xmlns="http://www.w3.org/2000/svg"
   xmlns:sodipodi="http://sodipodi.sourceforge.net/DTD/sodipodi-0.dtd"
   xmlns:inkscape="http://www.inkscape.org/namespaces/inkscape"
   version="1.1"
   width="26"
   height="18"
   viewBox="0 0 26 18"
   id="svg2985"
   inkscape:version="0.48.4 r9939"
   sodipodi:docname="LayoverStopUnpaidArrived.svg">
  <metadata
     id="metadata2995">
    <rdf:RDF>
      <cc:Work
         rdf:about="">
        <dc:format>image/svg+xml</dc:format>
        <dc:type
           rdf:resource="http://purl.org/dc/dcmitype/StillImage" />
        <dc:title></dc:title>
      </cc:Work>
    </rdf:RDF>
  </metadata>
  <defs
     id="defs8" />
  <sodipodi:namedview
     pagecolor="#ffffff"
     bordercolor="#666666"
     borderopacity="1"
     objecttolerance="10"
     gridtolerance="10"
     guidetolerance="10"
     inkscape:pageopacity="0"
     inkscape:pageshadow="2"
     inkscape:window-width="1520"
     inkscape:window-height="844"
     id="namedview6"
     showgrid="false"
     fit-margin-top="0"
     fit-margin-left="0"
     fit-margin-right="0"
     fit-margin-bottom="0"
     inkscape:zoom="11.313708"
     inkscape:cx="5.6083833"
     inkscape:cy="-7.4176279"
     inkscape:window-x="74"
     inkscape:window-y="87"
     inkscape:window-maximized="0"
     inkscape:current-layer="svg2" />
  <path
     d="m 3.4284079,9.1428023 19.2860801,0 q 0.289985,0 0.502138,0.2121645 0.212163,0.2121516 0.212163,0.5021347 l 0,5.0000965 -2.857197,0 0,-2.857199 -17.1431841,0 0,2.857199 -2.85719698,0 0,-13.5716876 q 0,-0.28999754 0.21214681,-0.50214704 Q 0.99550467,0.57121092 1.2855104,0.57121092 l 1.4285987,0 q 0.2900048,0 0.5021499,0.21215244 0.2121489,0.2121495 0.2121489,0.50214704 l 0,7.8572919 z M 9.8571021,5.5713058 q 0,-1.1828795 -0.8371598,-2.0200387 -0.8371584,-0.8371586 -2.020038,-0.8371586 -1.1828797,0 -2.0200386,0.8371586 -0.8371584,0.8371592 -0.8371584,2.0200387 0,1.1828798 0.8371584,2.0200387 0.8371589,0.8371583 2.0200386,0.8371583 1.1828796,0 2.020038,-0.8371583 0.8371598,-0.8371589 0.8371598,-2.0200387 z m 13.5716869,2.857197 0,-0.7142987 q 0,-1.7743196 -1.255717,-3.0300769 -1.255765,-1.255719 -3.030085,-1.255719 l -7.857286,0 q -0.289993,0 -0.502138,0.2121595 -0.21216,0.2121486 -0.21216,0.5021393 l 0,4.2857958 12.857386,0 z"
     id="path4"
     inkscape:connector-curvature="0"
     style="fill:#daa520;fill-opacity:1;stroke:#000000;stroke-width:1.14242184;stroke-miterlimit:4;stroke-dasharray:none;stroke-opacity:1" />
</svg>
