<?xml version="1.0" encoding="UTF-8" standalone="no"?>
<!-- Generated by IcoMoon.io -->

<svg
   xmlns:dc="http://purl.org/dc/elements/1.1/"
   xmlns:cc="http://creativecommons.org/ns#"
   xmlns:rdf="http://www.w3.org/1999/02/22-rdf-syntax-ns#"
   xmlns:svg="http://www.w3.org/2000/svg"
   xmlns="http://www.w3.org/2000/svg"
   xmlns:sodipodi="http://sodipodi.sourceforge.net/DTD/sodipodi-0.dtd"
   xmlns:inkscape="http://www.inkscape.org/namespaces/inkscape"
   version="1.1"
   width="26"
   height="18"
   viewBox="0 0 26 18"
   id="svg2985"
   inkscape:version="0.48.4 r9939"
   sodipodi:docname="LayoverStopPaidPending.svg">
  <metadata
     id="metadata2995">
    <rdf:RDF>
      <cc:Work
         rdf:about="">
        <dc:format>image/svg+xml</dc:format>
        <dc:type
           rdf:resource="http://purl.org/dc/dcmitype/StillImage" />
        <dc:title></dc:title>
      </cc:Work>
    </rdf:RDF>
  </metadata>
  <defs
     id="defs8" />
  <sodipodi:namedview
     pagecolor="#ffffff"
     bordercolor="#666666"
     borderopacity="1"
     objecttolerance="10"
     gridtolerance="10"
     guidetolerance="10"
     inkscape:pageopacity="0"
     inkscape:pageshadow="2"
     inkscape:window-width="1520"
     inkscape:window-height="844"
     id="namedview6"
     showgrid="false"
     fit-margin-top="0"
     fit-margin-left="0"
     fit-margin-right="0"
     fit-margin-bottom="0"
     inkscape:zoom="16.857143"
     inkscape:cx="-3.7687387"
     inkscape:cy="7.3988347"
     inkscape:window-x="90"
     inkscape:window-y="96"
     inkscape:window-maximized="0"
     inkscape:current-layer="svg2" />
  <path
     d="m 3.2335556,9.341618 19.7245094,0 q 0.296572,0 0.513544,0.2235157 0.216984,0.2235021 0.216984,0.5290013 l 0,5.267615 -2.922139,0 0,-3.010057 -17.5328984,0 0,3.010057 -2.92214818,0 0,-14.2978248 q 0,-0.30551368 0.21696958,-0.52901408 0.21696955,-0.2235037 0.5135676,-0.2235037 l 1.461074,0 q 0.2965985,0 0.5135658,0.2235037 0.2169712,0.2235004 0.2169712,0.52901408 l 0,8.2776928 z M 9.8083912,5.5790301 q 0,-1.2461687 -0.8561904,-2.1281195 Q 8.096012,2.56896 6.8862422,2.56896 q -1.2097695,0 -2.0659594,0.8819506 -0.8561889,0.8819508 -0.8561889,2.1281195 0,1.2461689 0.8561889,2.1281196 0.8561899,0.8819509 2.0659594,0.8819509 1.2097698,0 2.0659586,-0.8819509 Q 9.8083912,6.825199 9.8083912,5.5790301 Z m 13.8802018,3.0100705 0,-0.7525181 q 0,-1.8692537 -1.28426,-3.1921996 -1.284309,-1.3229052 -3.098961,-1.3229052 l -8.03591,0 q -0.296578,0 -0.513552,0.223511 -0.21698,0.2234995 -0.21698,0.529006 l 0,4.5151059 13.149663,0 z"
     id="path4"
     inkscape:connector-curvature="0"
     style="fill:none;stroke:#000000;stroke-width:0.62281483;stroke-miterlimit:4;stroke-dasharray:none;stroke-opacity:1" />
  <path
     d="m 20.577251,9.4111085 q 0,1.1447555 -0.865288,1.9711225 -0.865287,0.826368 -2.247522,1.021231 l 0,1.308974 q 0,0.104852 -0.07846,0.171881 -0.07846,0.06703 -0.199768,0.06752 l -1.173563,0 q -0.112961,0 -0.195872,-0.07086 -0.08291,-0.07086 -0.08236,-0.16853 l 0,-1.308974 q -0.573701,-0.06751 -1.108454,-0.23173 -0.534753,-0.164221 -0.882538,-0.33275 -0.347784,-0.16853 -0.643262,-0.359083 -0.295477,-0.190552 -0.404543,-0.280562 -0.109065,-0.09001 -0.151912,-0.134537 -0.148017,-0.157038 -0.01725,-0.306895 l 0.895336,-1.0097395 q 0.06065,-0.07469 0.199767,-0.08953 0.130211,-0.01483 0.208671,0.06751 l 0.01725,0.01484 q 0.9827,0.7406675 2.11286,0.9350495 0.321631,0.05984 0.643262,0.05984 0.704472,0 1.239225,-0.321737 0.534754,-0.321738 0.534754,-0.9125485 0,-0.209703 -0.13021,-0.3964263 -0.130211,-0.186725 -0.291027,-0.314081 -0.160816,-0.127347 -0.5086,-0.2805559 Q 17.099962,8.3573286 16.874042,8.2711492 16.648121,8.1849695 16.178473,8.0279307 15.839592,7.9082366 15.64372,7.8407293 15.447848,7.7732219 15.108967,7.6425155 14.770086,7.5118096 14.56531,7.4107879 14.360535,7.3097664 14.07396,7.145067 13.787386,6.9803683 13.608764,6.8271597 13.430142,6.6739511 13.230375,6.4604165 13.030607,6.2468824 12.921542,6.0266449 12.812477,5.8064079 12.739025,5.5291963 q -0.07345,-0.2772115 -0.07401,-0.5836285 0,-1.032242 0.851933,-1.8102538 0.851933,-0.7780118 2.216917,-1.0025579 l 0,-1.3463193 q 0,-0.097192 0.08236,-0.1685293 0.08235,-0.071337 0.195871,-0.070859 l 1.173564,0 q 0.121863,0 0.199767,0.067507 0.0779,0.067508 0.07846,0.1718811 l 0,1.316635 q 0.495801,0.045005 0.960999,0.1718808 0.465196,0.1268758 0.756222,0.2504001 0.291026,0.1235244 0.552003,0.2805631 0.260977,0.1570387 0.338881,0.2168857 0.0779,0.059848 0.130211,0.1048521 0.148016,0.1345361 0.0434,0.2843931 l -0.704471,1.0920892 q -0.06956,0.1120337 -0.199767,0.1196942 -0.121864,0.022503 -0.234824,-0.052187 -0.02615,-0.022503 -0.126316,-0.089531 Q 18.880063,4.4150831 18.641343,4.2838981 18.402624,4.1527134 18.132744,4.0445099 17.862862,3.9363066 17.485029,3.8501267 q -0.377833,-0.08618 -0.743424,-0.08618 -0.825778,0 -1.347734,0.3217377 -0.521954,0.3217379 -0.521954,0.8301985 0,0.1943833 0.07401,0.3590823 0.07401,0.1646991 0.256526,0.3102471 0.182517,0.1455481 0.343333,0.2470488 0.160815,0.1015005 0.486898,0.2317277 0.326082,0.1302273 0.52585,0.2020437 0.199767,0.071816 0.608762,0.2058736 0.460745,0.1498575 0.704472,0.2355584 0.243728,0.085701 0.661069,0.2618909 0.417341,0.1761894 0.656617,0.3179072 0.239276,0.1417179 0.539204,0.3739245 0.29993,0.2322066 0.460746,0.4749466 0.160815,0.2427392 0.273775,0.5721375 0.11296,0.329399 0.11296,0.7033233 z"
     id="path3343"
     inkscape:connector-curvature="0"
     style="fill:#000000;fill-opacity:1" />
</svg>
