<?xml version="1.0" encoding="UTF-8" standalone="no"?>
<!-- Generated by IcoMoon.io -->

<svg
   xmlns:dc="http://purl.org/dc/elements/1.1/"
   xmlns:cc="http://creativecommons.org/ns#"
   xmlns:rdf="http://www.w3.org/1999/02/22-rdf-syntax-ns#"
   xmlns:svg="http://www.w3.org/2000/svg"
   xmlns="http://www.w3.org/2000/svg"
   xmlns:sodipodi="http://sodipodi.sourceforge.net/DTD/sodipodi-0.dtd"
   xmlns:inkscape="http://www.inkscape.org/namespaces/inkscape"
   version="1.1"
   width="26"
   height="18"
   viewBox="0 0 26 18"
   id="svg2985"
   inkscape:version="0.48.4 r9939"
   sodipodi:docname="LayoverStopPaidArrived.svg">
  <metadata
     id="metadata2995">
    <rdf:RDF>
      <cc:Work
         rdf:about="">
        <dc:format>image/svg+xml</dc:format>
        <dc:type
           rdf:resource="http://purl.org/dc/dcmitype/StillImage" />
        <dc:title></dc:title>
      </cc:Work>
    </rdf:RDF>
  </metadata>
  <defs
     id="defs8" />
  <sodipodi:namedview
     pagecolor="#ffffff"
     bordercolor="#666666"
     borderopacity="1"
     objecttolerance="10"
     gridtolerance="10"
     guidetolerance="10"
     inkscape:pageopacity="0"
     inkscape:pageshadow="2"
     inkscape:window-width="1520"
     inkscape:window-height="844"
     id="namedview6"
     showgrid="false"
     fit-margin-top="0"
     fit-margin-left="0"
     fit-margin-right="0"
     fit-margin-bottom="0"
     inkscape:zoom="11.313708"
     inkscape:cx="5.6083833"
     inkscape:cy="-7.4176279"
     inkscape:window-x="74"
     inkscape:window-y="87"
     inkscape:window-maximized="0"
     inkscape:current-layer="svg2" />
  <path
     d="m 3.4284079,9.1428023 19.2860801,0 q 0.289985,0 0.502138,0.2121645 0.212163,0.2121516 0.212163,0.5021347 l 0,5.0000965 -2.857197,0 0,-2.857199 -17.1431841,0 0,2.857199 -2.85719698,0 0,-13.5716876 q 0,-0.28999754 0.21214681,-0.50214704 Q 0.99550467,0.57121092 1.2855104,0.57121092 l 1.4285987,0 q 0.2900048,0 0.5021499,0.21215244 0.2121489,0.2121495 0.2121489,0.50214704 l 0,7.8572919 z M 9.8571021,5.5713058 q 0,-1.1828795 -0.8371598,-2.0200387 -0.8371584,-0.8371586 -2.020038,-0.8371586 -1.1828797,0 -2.0200386,0.8371586 -0.8371584,0.8371592 -0.8371584,2.0200387 0,1.1828798 0.8371584,2.0200387 0.8371589,0.8371583 2.0200386,0.8371583 1.1828796,0 2.020038,-0.8371583 0.8371598,-0.8371589 0.8371598,-2.0200387 z m 13.5716869,2.857197 0,-0.7142987 q 0,-1.7743196 -1.255717,-3.0300769 -1.255765,-1.255719 -3.030085,-1.255719 l -7.857286,0 q -0.289993,0 -0.502138,0.2121595 -0.21216,0.2121486 -0.21216,0.5021393 l 0,4.2857958 12.857386,0 z"
     id="path4"
     inkscape:connector-curvature="0"
     style="fill:#daa520;fill-opacity:1;stroke:#000000;stroke-width:1.14242184;stroke-miterlimit:4;stroke-dasharray:none;stroke-opacity:1" />
  <path
     d="m 19.965968,9.6351244 q 0,1.1447566 -0.865288,1.9711236 -0.865287,0.826368 -2.247522,1.021231 l 0,1.308974 q 0,0.104852 -0.07846,0.171881 -0.07846,0.06703 -0.199768,0.06752 l -1.173563,0 q -0.112961,0 -0.195872,-0.07086 -0.08291,-0.07086 -0.08236,-0.16853 l 0,-1.308974 q -0.573701,-0.06751 -1.108454,-0.23173 -0.534753,-0.164221 -0.882538,-0.33275 -0.347784,-0.16853 -0.643262,-0.359083 -0.295477,-0.190552 -0.404543,-0.280562 -0.109065,-0.09001 -0.151912,-0.134537 -0.148017,-0.157038 -0.01725,-0.306895 l 0.895336,-1.0097406 q 0.06065,-0.07469 0.199767,-0.08953 0.130211,-0.01483 0.208671,0.06751 l 0.01725,0.01484 q 0.9827,0.7406676 2.11286,0.9350506 0.321631,0.05984 0.643262,0.05984 0.704472,0 1.239225,-0.321738 0.534754,-0.321738 0.534754,-0.9125486 0,-0.209703 -0.13021,-0.396426 -0.130211,-0.186725 -0.291027,-0.314081 -0.160816,-0.127347 -0.5086,-0.280555 Q 16.488679,8.5813453 16.262759,8.4951659 16.036838,8.4089862 15.56719,8.2519474 15.228309,8.1322533 15.032437,8.064746 14.836565,7.9972386 14.497684,7.8665322 14.158803,7.7358263 13.954027,7.6348046 13.749252,7.5337831 13.462677,7.3690837 13.176103,7.204385 12.997481,7.0511764 12.818859,6.8979678 12.619092,6.6844332 12.419324,6.4708991 12.310259,6.2506616 12.201194,6.0304246 12.127742,5.753213 q -0.07345,-0.2772115 -0.07401,-0.5836285 0,-1.032242 0.851933,-1.8102538 0.851933,-0.7780118 2.216917,-1.0025579 l 0,-1.3463193 q 0,-0.097192 0.08236,-0.16852932 0.08235,-0.071337 0.195871,-0.070859 l 1.173564,0 q 0.121863,0 0.199767,0.067507 0.0779,0.067508 0.07846,0.17188112 l 0,1.316635 q 0.495801,0.045005 0.960999,0.1718808 0.465196,0.1268758 0.756222,0.2504001 0.291026,0.1235244 0.552003,0.2805631 0.260977,0.1570387 0.338881,0.2168857 0.0779,0.059848 0.130211,0.1048521 0.148016,0.1345361 0.0434,0.2843931 l -0.704471,1.0920892 q -0.06956,0.1120337 -0.199767,0.1196942 -0.121864,0.022503 -0.234824,-0.052187 -0.02615,-0.022503 -0.126316,-0.089531 Q 18.26878,4.6390996 18.03006,4.5079148 17.791341,4.3767301 17.521461,4.2685266 17.251579,4.1603233 16.873746,4.0741434 q -0.377833,-0.08618 -0.743424,-0.08618 -0.825778,0 -1.347734,0.3217377 -0.521954,0.3217379 -0.521954,0.8301985 0,0.1943833 0.07401,0.3590823 0.07401,0.1646991 0.256526,0.3102471 0.182517,0.1455481 0.343333,0.2470488 0.160815,0.1015005 0.486898,0.2317277 0.326082,0.1302273 0.52585,0.2020437 0.199767,0.071816 0.608762,0.2058736 0.460745,0.1498575 0.704472,0.2355584 0.243728,0.085701 0.661069,0.2618909 0.417341,0.1761894 0.656617,0.3179072 0.239276,0.1417179 0.539204,0.3739245 0.29993,0.2322066 0.460746,0.4749466 0.160815,0.242739 0.273775,0.572137 0.11296,0.329399 0.11296,0.703323 z"
     id="path3343"
     inkscape:connector-curvature="0"
     style="fill:#000000;fill-opacity:1" />
</svg>
