<?xml version="1.0" encoding="UTF-8" standalone="no"?>
<!-- Generated by IcoMoon.io -->

<svg
   xmlns:dc="http://purl.org/dc/elements/1.1/"
   xmlns:cc="http://creativecommons.org/ns#"
   xmlns:rdf="http://www.w3.org/1999/02/22-rdf-syntax-ns#"
   xmlns:svg="http://www.w3.org/2000/svg"
   xmlns="http://www.w3.org/2000/svg"
   xmlns:sodipodi="http://sodipodi.sourceforge.net/DTD/sodipodi-0.dtd"
   xmlns:inkscape="http://www.inkscape.org/namespaces/inkscape"
   version="1.1"
   width="26"
   height="18"
   viewBox="0 0 26 18"
   id="svg2985"
   inkscape:version="0.48.4 r9939"
   sodipodi:docname="LayoverStopUnpaidPending.svg">
  <metadata
     id="metadata2995">
    <rdf:RDF>
      <cc:Work
         rdf:about="">
        <dc:format>image/svg+xml</dc:format>
        <dc:type
           rdf:resource="http://purl.org/dc/dcmitype/StillImage" />
        <dc:title></dc:title>
      </cc:Work>
    </rdf:RDF>
  </metadata>
  <defs
     id="defs8" />
  <sodipodi:namedview
     pagecolor="#ffffff"
     bordercolor="#666666"
     borderopacity="1"
     objecttolerance="10"
     gridtolerance="10"
     guidetolerance="10"
     inkscape:pageopacity="0"
     inkscape:pageshadow="2"
     inkscape:window-width="1520"
     inkscape:window-height="844"
     id="namedview6"
     showgrid="false"
     fit-margin-top="0"
     fit-margin-left="0"
     fit-margin-right="0"
     fit-margin-bottom="0"
     inkscape:zoom="16.857143"
     inkscape:cx="-3.7687387"
     inkscape:cy="-1.3629459"
     inkscape:window-x="70"
     inkscape:window-y="191"
     inkscape:window-maximized="0"
     inkscape:current-layer="svg2" />
  <path
     d="m 3.2335556,9.341618 19.7245094,0 q 0.296572,0 0.513544,0.2235157 0.216984,0.2235021 0.216984,0.5290013 l 0,5.267615 -2.922139,0 0,-3.010057 -17.5328984,0 0,3.010057 -2.92214818,0 0,-14.2978248 q 0,-0.30551368 0.21696958,-0.52901408 0.21696955,-0.2235037 0.5135676,-0.2235037 l 1.461074,0 q 0.2965985,0 0.5135658,0.2235037 0.2169712,0.2235004 0.2169712,0.52901408 l 0,8.2776928 z M 9.8083912,5.5790301 q 0,-1.2461687 -0.8561904,-2.1281195 Q 8.096012,2.56896 6.8862422,2.56896 q -1.2097695,0 -2.0659594,0.8819506 -0.8561889,0.8819508 -0.8561889,2.1281195 0,1.2461689 0.8561889,2.1281196 0.8561899,0.8819509 2.0659594,0.8819509 1.2097698,0 2.0659586,-0.8819509 Q 9.8083912,6.825199 9.8083912,5.5790301 Z m 13.8802018,3.0100705 0,-0.7525181 q 0,-1.8692537 -1.28426,-3.1921996 -1.284309,-1.3229052 -3.098961,-1.3229052 l -8.03591,0 q -0.296578,0 -0.513552,0.223511 -0.21698,0.2234995 -0.21698,0.529006 l 0,4.5151059 13.149663,0 z"
     id="path4"
     inkscape:connector-curvature="0"
     style="fill:none;stroke:#000000;stroke-width:0.62281483;stroke-miterlimit:4;stroke-dasharray:none;stroke-opacity:1" />
</svg>
