<svg xmlns="http://www.w3.org/2000/svg" width="16" height="16" viewBox="0 0 16 16" fill="none">
  <path fill-rule="evenodd" clip-rule="evenodd" d="M1.2769 7.10856C0.570351 7.10856 0 7.67902 0 8.3857C0 9.09239 0.570351 9.66285 1.2769 9.66285C1.98346 9.66285 2.55381 9.09239 2.55381 8.3857C2.55381 7.67902 1.98346 7.10856 1.2769 7.10856ZM1.2769 2C0.570351 2 0 2.57046 0 3.27714C0 3.98383 0.570351 4.55428 1.2769 4.55428C1.98346 4.55428 2.55381 3.98383 2.55381 3.27714C2.55381 2.57046 1.98346 2 1.2769 2ZM1.2769 12.3619C0.646965 12.3619 0.144716 12.8727 0.144716 13.4943C0.144716 14.1158 0.655478 14.6267 1.2769 14.6267C1.89833 14.6267 2.40909 14.1158 2.40909 13.4943C2.40909 12.8727 1.90684 12.3619 1.2769 12.3619ZM4.54655 14.3457H16V12.6428H4.54655V14.3457ZM4.54655 9.23713H16V7.53428H4.54655V9.23713ZM4.54655 2.42571V4.12857H16V2.42571H4.54655Z" fill="#6D7881"/>
</svg>