<svg width="16" height="16" viewBox="0 0 16 16" fill="none" xmlns="http://www.w3.org/2000/svg">
<g id="_Master/Loaders">
<path id="Ellipse 1" d="M0 8C0 3.58172 3.58172 0 8 0C12.4183 0 16 3.58172 16 8C16 12.4183 12.4183 16 8 16C3.58172 16 0 12.4183 0 8ZM14.8 8C14.8 4.24446 11.7555 1.2 8 1.2C4.24446 1.2 1.2 4.24446 1.2 8C1.2 11.7555 4.24446 14.8 8 14.8C11.7555 14.8 14.8 11.7555 14.8 8Z" fill="#DDE9FC"/>
<path id="Ellipse 2" d="M8 0.6C8 0.268629 8.269 -0.00234032 8.59944 0.0224895C9.44477 0.0860081 10.2759 0.283587 11.0615 0.608964C12.0321 1.011 12.914 1.60028 13.6569 2.34315C14.3997 3.08601 14.989 3.96793 15.391 4.93853C15.7164 5.72406 15.914 6.55523 15.9775 7.40056C16.0023 7.731 15.7314 8 15.4 8C15.0686 8 14.8027 7.73085 14.7735 7.40077C14.7127 6.71317 14.5474 6.03765 14.2824 5.39775C13.9406 4.57274 13.4398 3.82311 12.8083 3.19167C12.1769 2.56024 11.4273 2.05935 10.6022 1.71762C9.96235 1.45257 9.28683 1.28728 8.59923 1.22645C8.26915 1.19725 8 0.931371 8 0.6Z" fill="#194FA1"/>
</g>
</svg>
