<svg width="96" height="96" viewBox="0 0 96 96" fill="none" xmlns="http://www.w3.org/2000/svg">
<path d="M0 48C0 21.4903 21.4903 0 48 0C74.5097 0 96 21.4903 96 48C96 74.5097 74.5097 96 48 96C21.4903 96 0 74.5097 0 48ZM88.8 48C88.8 25.4668 70.5332 7.2 48 7.2C25.4668 7.2 7.2 25.4668 7.2 48C7.2 70.5332 25.4668 88.8 48 88.8C70.5332 88.8 88.8 70.5332 88.8 48Z" fill="#DDE9FC"/>
<path d="M48 0C54.3035 0 60.5452 1.24155 66.3688 3.65379C72.1924 6.06601 77.4839 9.60166 81.9411 14.0589C86.3983 18.5161 89.934 23.8076 92.3462 29.6312C94.7584 35.4548 96 41.6966 96 48H88.8C88.8 42.6421 87.7447 37.3366 85.6943 32.3865C83.6439 27.4364 80.6386 22.9387 76.85 19.15C73.0613 15.3614 68.5636 12.3561 63.6135 10.3057C58.6634 8.25532 53.3579 7.2 48 7.2L48 0Z" fill="#194FA1"/>
</svg>
