<svg width="20" height="20" viewBox="0 0 20 20" fill="none" xmlns="http://www.w3.org/2000/svg">
<path fill-rule="evenodd" clip-rule="evenodd" d="M19.375 0H0.625C0.279822 0 0 0.279822 0 0.625V19.375C0 19.7202 0.279822 20 0.625 20H19.375C19.7202 20 20 19.7202 20 19.375V0.625C20 0.279822 19.7202 0 19.375 0ZM18.75 18.75H1.25V1.25H18.75V18.75Z" fill="#194FA1"/>
<path fill-rule="evenodd" clip-rule="evenodd" d="M12.7605 8.12614L15.625 5.25625V7.5C15.625 7.84518 15.9048 8.125 16.25 8.125C16.5952 8.125 16.875 7.84518 16.875 7.5V3.75C16.875 3.40482 16.5952 3.125 16.25 3.125H12.5C12.1548 3.125 11.875 3.40482 11.875 3.75C11.875 4.09518 12.1548 4.375 12.5 4.375H14.7438L11.8797 7.23906C11.6352 7.48353 11.6345 7.87967 11.8781 8.125C12.1204 8.36898 12.5146 8.37037 12.7586 8.12811C12.7592 8.12746 12.7599 8.1268 12.7605 8.12614Z" fill="#194FA1"/>
<path fill-rule="evenodd" clip-rule="evenodd" d="M3.75 16.875H7.5C7.84518 16.875 8.125 16.5952 8.125 16.25C8.125 15.9048 7.84518 15.625 7.5 15.625H5.25625L8.12188 12.7594C8.36523 12.516 8.36523 12.1215 8.12188 11.8781C7.87852 11.6348 7.48398 11.6348 7.24062 11.8781L4.375 14.7438V12.5C4.375 12.1548 4.09518 11.875 3.75 11.875C3.40482 11.875 3.125 12.1548 3.125 12.5V16.25C3.125 16.5952 3.40482 16.875 3.75 16.875Z" fill="#194FA1"/>
</svg>
