<?xml version="1.0" encoding="UTF-8" standalone="no"?>
<!-- Generated by IcoMoon.io -->

<svg
   xmlns:dc="http://purl.org/dc/elements/1.1/"
   xmlns:cc="http://creativecommons.org/ns#"
   xmlns:rdf="http://www.w3.org/1999/02/22-rdf-syntax-ns#"
   xmlns:svg="http://www.w3.org/2000/svg"
   xmlns="http://www.w3.org/2000/svg"
   xmlns:sodipodi="http://sodipodi.sourceforge.net/DTD/sodipodi-0.dtd"
   xmlns:inkscape="http://www.inkscape.org/namespaces/inkscape"
   version="1.1"
   width="26"
   height="18"
   viewBox="0 0 26 18"
   id="svg2985"
   inkscape:version="0.48.4 r9939"
   sodipodi:docname="MidRouteDepotStopArrived.svg">
  <metadata
     id="metadata2995">
    <rdf:RDF>
      <cc:Work
         rdf:about="">
        <dc:format>image/svg+xml</dc:format>
        <dc:type
           rdf:resource="http://purl.org/dc/dcmitype/StillImage" />
        <dc:title />
      </cc:Work>
    </rdf:RDF>
  </metadata>
  <defs
     id="defs2993" />
  <sodipodi:namedview
     pagecolor="#ffffff"
     bordercolor="#666666"
     borderopacity="1"
     objecttolerance="10"
     gridtolerance="10"
     guidetolerance="10"
     inkscape:pageopacity="0"
     inkscape:pageshadow="2"
     inkscape:window-width="1680"
     inkscape:window-height="987"
     id="namedview2991"
     showgrid="false"
     inkscape:zoom="15.455531"
     inkscape:cx="1.675153"
     inkscape:cy="-0.93298672"
     inkscape:window-x="4792"
     inkscape:window-y="532"
     inkscape:window-maximized="1"
     inkscape:current-layer="svg2985"
     borderlayer="true" />
  <g
     id="g2987"
     transform="translate(0,-14)" />
  <path
     d="m 17.666231,9.5742911 v 5.9807729 q 0,0.323775 -0.23655,0.561025 -0.236552,0.237248 -0.561026,0.236551 H 12.0839 V 11.567883 H 8.8942948 V 16.35264 H 4.1095387 q -0.3237753,0 -0.5610245,-0.236551 Q 3.3112651,15.879536 3.311963,15.555064 V 9.5742911 q 0,-0.01256 0.00629,-0.03768 0.00629,-0.02512 0.00629,-0.03768 l 7.164924,-5.906108 7.164922,5.906108 q 0.01256,0.02512 0.01256,0.07466 z m 2.778607,-0.859679 -0.772455,0.921783 q -0.09978,0.112344 -0.261673,0.136767 h -0.03767 q -0.161887,0 -0.261671,-0.08722 L 10.488748,2.4958942 1.8661391,9.6859371 q -0.1493274,0.09979 -0.2993525,0.08723 -0.1618878,-0.02512 -0.261672,-0.136767 L 0.53265959,8.7146121 q -0.099784,-0.124905 -0.087224,-0.293072 0.01256,-0.168169 0.1367671,-0.267953 L 9.5411475,0.69000934 q 0.3984391,-0.323775 0.9469035,-0.323775 0.548464,0 0.946903,0.323775 L 14.475231,3.2320631 V 0.80235434 q 0,-0.174447 0.112344,-0.286793 0.112345,-0.112344 0.286793,-0.112344 h 2.392728 q 0.174447,0 0.286791,0.112344 0.112344,0.112346 0.112344,0.286793 V 5.8864631 l 2.729063,2.267822 q 0.124904,0.09978 0.136766,0.267952 0.01187,0.168167 -0.08722,0.293072 z"
     id="path2989"
     style="fill:#708090;fill-opacity:1;stroke:#000000;stroke-width:0.69799999999999995;stroke-opacity:1;stroke-miterlimit:4;stroke-dasharray:none"
     inkscape:connector-curvature="0" />
  <g
     id="g4945"
     transform="matrix(0.45985557,0,0,0.45985557,12.877841,4.0111511)"
     style="fill:#708090;stroke:#000000;stroke-width:1.51786792000000000;stroke-miterlimit:4;stroke-dasharray:none;fill-opacity:1">
    <g
       id="g4935"
       style="fill:#708090;stroke:#000000;stroke-width:1.51786792000000000;stroke-miterlimit:4;stroke-dasharray:none;fill-opacity:1" />
    <path
       id="path4937"
       d="m 26.982,18.857 q 0,0.089 -0.018,0.125 -1.143,4.786 -4.786,7.759 -3.643,2.973 -8.536,2.973 -2.607,0 -5.045,-0.982 Q 6.159,27.75 4.249,25.928 l -2.304,2.304 q -0.339,0.339 -0.804,0.339 -0.465,0 -0.804,-0.339 -0.339,-0.339 -0.339,-0.804 v -8 q 0,-0.464 0.339,-0.804 0.339,-0.34 0.804,-0.339 h 8 q 0.464,0 0.804,0.339 0.34,0.339 0.339,0.804 -0.001,0.465 -0.339,0.804 l -2.446,2.446 q 1.268,1.179 2.875,1.821 1.607,0.642 3.339,0.643 2.393,0 4.464,-1.161 2.071,-1.161 3.321,-3.196 0.196,-0.304 0.946,-2.089 0.143,-0.411 0.536,-0.411 h 3.429 q 0.232,0 0.402,0.17 0.17,0.17 0.17,0.402 z M 27.429,4.571 v 8 q 0,0.464 -0.339,0.804 -0.339,0.34 -0.804,0.339 h -8 q -0.464,0 -0.804,-0.339 -0.34,-0.339 -0.339,-0.804 10e-4,-0.465 0.339,-0.804 L 19.946,9.303 Q 17.303,6.857 13.714,6.857 11.321,6.857 9.25,8.018 7.179,9.179 5.929,11.214 5.733,11.518 4.983,13.303 4.84,13.714 4.447,13.714 H 0.893 q -0.232,0 -0.402,-0.17 -0.17,-0.17 -0.17,-0.402 v -0.125 q 1.161,-4.786 4.821,-7.759 3.66,-2.973 8.571,-2.973 2.607,0 5.071,0.991 2.464,0.991 4.375,2.795 L 25.48,3.767 q 0.339,-0.339 0.804,-0.339 0.465,0 0.804,0.339 0.339,0.339 0.339,0.804 z"
       inkscape:connector-curvature="0"
       style="fill:#708090;stroke:#000000;stroke-width:1.51786792000000000;stroke-miterlimit:4;stroke-dasharray:none;fill-opacity:1" />
  </g>
</svg>
