<svg width="20" height="20" viewBox="0 0 20 20" fill="none" xmlns="http://www.w3.org/2000/svg">
<g clip-path="url(#clip0_6995_2588)">
<path fill-rule="evenodd" clip-rule="evenodd" d="M19.375 0H0.625C0.279822 0 0 0.279822 0 0.625V19.375C0 19.7202 0.279822 20 0.625 20H19.375C19.7202 20 20 19.7202 20 19.375V0.625C20 0.279822 19.7202 0 19.375 0ZM18.75 18.75H1.25V1.25H18.75V18.75Z" fill="#194FA1"/>
<path fill-rule="evenodd" clip-rule="evenodd" d="M15.8116 3.308L12.9471 6.17789V3.93414C12.9471 3.58897 12.6673 3.30914 12.3221 3.30914C11.9769 3.30914 11.6971 3.58897 11.6971 3.93414V7.68414C11.6971 8.02932 11.9769 8.30914 12.3221 8.30914H16.0721C16.4173 8.30914 16.6971 8.02932 16.6971 7.68414C16.6971 7.33897 16.4173 7.05914 16.0721 7.05914H13.8284L16.6924 4.19508C16.9369 3.95062 16.9376 3.55447 16.694 3.30914C16.4517 3.06516 16.0576 3.06377 15.8136 3.30603L15.8116 3.308Z" fill="#194FA1"/>
<path fill-rule="evenodd" clip-rule="evenodd" d="M7.72377 11.73L3.97434 11.6645C3.62921 11.6585 3.34455 11.9334 3.33853 12.2785C3.3325 12.6237 3.6074 12.9083 3.95252 12.9144L6.19593 12.9535L3.28073 15.7687C3.03317 16.0078 3.02628 16.4022 3.26535 16.6498C3.50442 16.8974 3.89891 16.9042 4.14647 16.6652L7.06167 13.85L7.02251 16.0934C7.01649 16.4385 7.29138 16.7232 7.63651 16.7292C7.98163 16.7353 8.2663 16.4604 8.27232 16.1152L8.33777 12.3658C8.34379 12.0207 8.06889 11.736 7.72377 11.73Z" fill="#194FA1"/>
</g>
<defs>
<clipPath id="clip0_6995_2588">
<rect width="20" height="20" fill="white"/>
</clipPath>
</defs>
</svg>
