<svg id="Layer_1" data-name="Layer 1" xmlns="http://www.w3.org/2000/svg" viewBox="0 0 54 54"><defs><style>.cls-1{fill:#f7991f;}.cls-2{fill:#fff;}.cls-3{fill:#231f20;}</style></defs><title>nav_client_exit</title><path class="cls-1" d="M27,53.06a26,26,0,1,1,26-26A26,26,0,0,1,27,53.06Z" transform="translate(0 -0.06)"/><path class="cls-2" d="M27,2.06a25,25,0,1,1-25,25,25,25,0,0,1,25-25m0-2a27,27,0,1,0,27,27,27,27,0,0,0-27-27h0Z" transform="translate(0 -0.06)"/><polygon class="cls-3" points="35.25 40.39 21.69 40.39 21.69 36.92 31.78 36.92 31.78 15.1 21.69 15.1 21.69 11.63 35.25 11.63 35.25 40.39"/><rect class="cls-3" x="18.2" y="24.28" width="9.68" height="3.47"/><polygon class="cls-3" points="19.46 21.68 11.96 26.01 19.46 30.34 19.46 21.68"/></svg>