<?xml version="1.0"?>
<svg xmlns="http://www.w3.org/2000/svg" xmlns:xlink="http://www.w3.org/1999/xlink" version="1.1" id="Capa_1" x="0px" y="0px" viewBox="0 0 512 512" style="enable-background:new 0 0 512 512;" xml:space="preserve" width="64px" height="64px" class=""><g transform="matrix(0.784893 0 0 0.784893 55.0674 62.9163)"><g>
	<title>RoutePathDeviation</title>
	<g>
		<g>
			<circle id="Oval" fill="#228B22" cx="256" cy="240" r="324" />
			<rect x="240" y="480" width="32" height="32" data-original="#000000" class="active-path" data-old_color="#000000" fill="#3F3F3F"/>
			<rect x="240" y="416" width="32" height="32" data-original="#000000" class="active-path" data-old_color="#000000" fill="#3F3F3F"/>
			<polygon points="176,32 176,0 64,0 64,112 96,112 96,52.4 212.672,158.384 234.192,134.688 121.136,32    " data-original="#000000" class="active-path" data-old_color="#000000" fill="#3F3F3F"/>
			<polygon points="336,0 336,32 392.416,32 240,184.416 240,384 272,384 272,197.664 416,53.664 416,112 448,112 448,0    " data-original="#000000" class="active-path" data-old_color="#000000" fill="#3F3F3F"/>
		</g>
	</g>
</g></g> </svg>
