<svg id="Layer_1" data-name="Layer 1" xmlns="http://www.w3.org/2000/svg" viewBox="0 0 125.78 197.15"><title>map_marker</title><path d="M100.1,4.08a60.28,60.28,0,0,1,53.22,85.59L105.09,191.86a7.13,7.13,0,0,1-12.89,0L44,89.68A60.28,60.28,0,0,1,100.1,4.08ZM128.8,64.3A30.15,30.15,0,1,0,98.65,94.45,30.15,30.15,0,0,0,128.8,64.3Z" transform="translate(-35.76 -1.43)" fill="#f8991d"/><path d="M98.65,198.58a9.68,9.68,0,0,1-8.83-5.6L41.59,90.8A62.87,62.87,0,1,1,161.53,63.67a62.36,62.36,0,0,1-5.82,27.12L107.48,193A9.68,9.68,0,0,1,98.65,198.58Zm0-191.88A57.65,57.65,0,0,0,46.36,88.57L94.58,190.74a4.49,4.49,0,0,0,8.13,0L150.94,88.55A57.74,57.74,0,0,0,100,6.72Zm0,90.38A32.78,32.78,0,1,1,131.43,64.3,32.82,32.82,0,0,1,98.65,97.08Zm0-60.3A27.51,27.51,0,1,0,126.16,64.3,27.55,27.55,0,0,0,98.65,36.78Z" transform="translate(-35.76 -1.43)"/></svg>