<svg width="16" height="16" viewBox="0 0 16 16" fill="none" xmlns="http://www.w3.org/2000/svg">
<path fill-rule="evenodd" clip-rule="evenodd" d="M6.95456 1.90343L0.164844 12.9396C-0.0546597 13.2968 -0.055236 13.7396 0.164844 14.0964C0.384924 14.4532 0.785208 14.6676 1.21597 14.6666H14.784C15.2148 14.6683 15.6151 14.4532 15.8352 14.0964C16.0552 13.7396 16.0547 13.2968 15.8352 12.9396L9.04545 1.90343C8.82599 1.54728 8.42984 1.33325 8 1.33325C7.57017 1.33325 7.17401 1.54728 6.95456 1.90343ZM7.9772 3.04377C8.11624 3.04377 8.27005 3.12909 8.33611 3.23715L14.1321 12.7315C14.1981 12.8398 14.1983 13.0006 14.1321 13.1088C14.0658 13.217 13.9076 13.3072 13.7683 13.3069H2.18608C2.04679 13.3069 1.88856 13.217 1.82232 13.1088C1.75608 13.0006 1.75627 12.8398 1.82232 12.7315L7.61829 3.23715C7.68436 3.12909 7.83817 3.04377 7.9772 3.04377ZM8 5.99992C7.63181 5.99992 7.33333 6.33156 7.33333 6.74066L7.46667 9.40731C7.46667 9.7346 7.70545 9.99992 8 9.99992C8.29455 9.99992 8.53333 9.7346 8.53333 9.40731L8.66667 6.74066C8.66667 6.33156 8.36819 5.99992 8 5.99992ZM8 10.6666C7.63181 10.6666 7.33333 10.9651 7.33333 11.3333C7.33333 11.7014 7.63181 11.9999 8 11.9999C8.36819 11.9999 8.66667 11.7014 8.66667 11.3333C8.66667 10.9651 8.36819 10.6666 8 10.6666Z" fill="#D0021B"/>
</svg>
