<svg width="16" height="17" viewBox="0 0 16 17" fill="none" xmlns="http://www.w3.org/2000/svg">
<path fill-rule="evenodd" clip-rule="evenodd" d="M6.95456 2.40416L0.164844 13.4403C-0.0546597 13.7975 -0.055236 14.2403 0.164844 14.5971C0.384924 14.954 0.785208 15.1683 1.21597 15.1673H14.784C15.2148 15.1691 15.6151 14.954 15.8352 14.5971C16.0552 14.2403 16.0547 13.7975 15.8352 13.4403L9.04545 2.40416C8.82599 2.04801 8.42984 1.83398 8 1.83398C7.57017 1.83398 7.17401 2.04801 6.95456 2.40416ZM7.9772 3.54451C8.11624 3.54451 8.27005 3.62983 8.33611 3.73788L14.1321 13.2322C14.1981 13.3406 14.1983 13.5013 14.1321 13.6096C14.0658 13.7178 13.9076 13.808 13.7683 13.8076H2.18608C2.04679 13.8076 1.88856 13.7178 1.82232 13.6096C1.75608 13.5013 1.75627 13.3406 1.82232 13.2322L7.61829 3.73788C7.68436 3.62983 7.83817 3.54451 7.9772 3.54451ZM8 6.50065C7.63181 6.50065 7.33333 6.83229 7.33333 7.24139L7.46667 9.90805C7.46667 10.2353 7.70545 10.5007 8 10.5007C8.29455 10.5007 8.53333 10.2353 8.53333 9.90805L8.66667 7.24139C8.66667 6.83229 8.36819 6.50065 8 6.50065ZM8 11.1673C7.63181 11.1673 7.33333 11.4658 7.33333 11.834C7.33333 12.2022 7.63181 12.5007 8 12.5007C8.36819 12.5007 8.66667 12.2022 8.66667 11.834C8.66667 11.4658 8.36819 11.1673 8 11.1673Z" fill="#D0021B"/>
</svg>
