<svg width="16" height="16" viewBox="0 0 16 16" fill="none" xmlns="http://www.w3.org/2000/svg">
<path fill-rule="evenodd" clip-rule="evenodd" d="M0 8C0 12.4113 3.58892 16 8 16C12.4111 16 16 12.4113 16 8C16 3.58868 12.4111 0 8 0C3.58892 0 0 3.58868 0 8ZM1.41282 8C1.41282 4.36781 4.36781 1.41282 8 1.41282C11.6322 1.41282 14.5872 4.36781 14.5872 8C14.5872 11.6322 11.6322 14.5872 8 14.5872C4.36781 14.5872 1.41282 11.6322 1.41282 8ZM8.84705 11.1899C8.84705 10.7352 8.47841 10.3665 8.02367 10.3665C7.56893 10.3665 7.20028 10.7352 7.20028 11.1899C7.20028 11.6447 7.56893 12.0133 8.02367 12.0133C8.47841 12.0133 8.84705 11.6447 8.84705 11.1899ZM7.41834 8.5312C7.41834 8.80295 7.63889 9.02351 7.91065 9.02351C8.1824 9.02351 8.40295 8.8032 8.40295 8.5312V4.34658C8.40295 4.07483 8.1824 3.85428 7.91065 3.85428C7.63889 3.85428 7.41834 4.07483 7.41834 4.34658V8.5312Z" fill="#FFB132"/>
</svg>
