<svg width="16" height="16" viewBox="0 0 16 16" fill="none" xmlns="http://www.w3.org/2000/svg">
<path fill-rule="evenodd" clip-rule="evenodd" d="M0 8C0 3.58868 3.58892 0 8 0C12.4111 0 16 3.58868 16 8C16 12.4113 12.4111 16 8 16C3.58892 16 0 12.4113 0 8ZM1.49231 8C1.49231 11.5884 4.44706 14.5077 8.07897 14.5077C11.7109 14.5077 14.6656 11.5884 14.6656 8C14.6656 4.41164 11.7109 1.49231 8.07897 1.49231C4.44706 1.49231 1.49231 4.41164 1.49231 8ZM8.84705 4.81009C8.84705 5.26483 8.47841 5.63348 8.02367 5.63348C7.56893 5.63348 7.20028 5.26483 7.20028 4.81009C7.20028 4.35535 7.56893 3.98671 8.02367 3.98671C8.47841 3.98671 8.84705 4.35535 8.84705 4.81009ZM7.41834 7.4688C7.41834 7.19705 7.63889 6.97649 7.91065 6.97649C8.1824 6.97649 8.40295 7.1968 8.40295 7.4688V11.6534C8.40295 11.9252 8.1824 12.1457 7.91065 12.1457C7.63889 12.1457 7.41834 11.9252 7.41834 11.6534V7.4688Z" fill="#194FA1"/>
</svg>
