<?xml version="1.0" encoding="UTF-8" standalone="no"?>
<!-- Generated by IcoMoon.io -->

<svg
   xmlns:dc="http://purl.org/dc/elements/1.1/"
   xmlns:cc="http://creativecommons.org/ns#"
   xmlns:rdf="http://www.w3.org/1999/02/22-rdf-syntax-ns#"
   xmlns:svg="http://www.w3.org/2000/svg"
   xmlns="http://www.w3.org/2000/svg"
   xmlns:sodipodi="http://sodipodi.sourceforge.net/DTD/sodipodi-0.dtd"
   xmlns:inkscape="http://www.inkscape.org/namespaces/inkscape"
   version="1.1"
   width="26"
   height="18"
   viewBox="0 0 26 18"
   id="svg2985"
   inkscape:version="0.48.4 r9939"
   sodipodi:docname="DestinationDepotIconImage.svg">
  <metadata
     id="metadata2995">
    <rdf:RDF>
      <cc:Work
         rdf:about="">
        <dc:format>image/svg+xml</dc:format>
        <dc:type
           rdf:resource="http://purl.org/dc/dcmitype/StillImage" />
        <dc:title />
      </cc:Work>
    </rdf:RDF>
  </metadata>
  <defs
     id="defs2993" />
  <sodipodi:namedview
     pagecolor="#ffffff"
     bordercolor="#666666"
     borderopacity="1"
     objecttolerance="10"
     gridtolerance="10"
     guidetolerance="10"
     inkscape:pageopacity="0"
     inkscape:pageshadow="2"
     inkscape:window-width="1373"
     inkscape:window-height="889"
     id="namedview2991"
     showgrid="false"
     inkscape:zoom="15.5"
     inkscape:cx="4.9354839"
     inkscape:cy="3.0967742"
     inkscape:window-x="0"
     inkscape:window-y="0"
     inkscape:window-maximized="0"
     inkscape:current-layer="svg2985" />
  <g
     id="g2987"
     transform="translate(0,-14)" />
  <path
     d="m 17.726631,10.339753 v 5.980773 q 0,0.323775 -0.23655,0.561025 -0.236552,0.237248 -0.561026,0.236551 H 12.1443 V 12.333345 H 8.9546951 v 4.784757 H 4.169939 q -0.3237753,0 -0.5610245,-0.236551 -0.2372491,-0.236553 -0.2365512,-0.561025 v -5.980773 q 0,-0.01256 0.00629,-0.03768 0.00629,-0.02512 0.00629,-0.03768 l 7.1649237,-5.9061078 7.164922,5.9061078 q 0.01256,0.02512 0.01256,0.07466 z m 2.778607,-0.8596788 -0.772455,0.9217828 q -0.09978,0.112344 -0.261673,0.136767 h -0.03767 q -0.161887,0 -0.261671,-0.08722 L 10.549148,3.2613562 1.9265394,10.451399 q -0.1493274,0.09979 -0.2993525,0.08723 -0.1618878,-0.02512 -0.261672,-0.136767 L 0.5930599,9.4800742 Q 0.4932757,9.3551692 0.505836,9.1870022 0.5183963,9.0188332 0.64260313,8.9190492 L 9.6015478,1.4554712 q 0.3984391,-0.323775 0.9469032,-0.323775 0.548464,0 0.946903,0.323775 l 3.040277,2.542054 v -2.429709 q 0,-0.174447 0.112344,-0.286793 0.112345,-0.112344 0.286793,-0.112344 h 2.392728 q 0.174447,0 0.286791,0.112344 0.112344,0.112346 0.112344,0.286793 v 5.084109 l 2.729063,2.267822 q 0.124904,0.09978 0.136766,0.267952 0.01187,0.168167 -0.08722,0.293072 z"
     id="path2989"
     style="fill:#ffffff;fill-opacity:1;stroke:#000000;stroke-width:0.69779146;stroke-opacity:1"
     inkscape:connector-curvature="0" />
  <g
     id="g3813"
     transform="matrix(0.40658429,0,0,0.40658429,14.931505,2.6150782)"
     style="fill:#ffffff;fill-opacity:1;stroke:#000000;stroke-width:1.75309598;stroke-miterlimit:4;stroke-opacity:1;stroke-dasharray:none">
    <g
       id="g3803"
       style="fill:#ffffff;fill-opacity:1;stroke:#000000;stroke-width:1.75309598;stroke-miterlimit:4;stroke-opacity:1;stroke-dasharray:none" />
    <path
       id="path3805"
       d="m 26.286,17.143 q 0,0.964 -0.661,1.625 L 14,30.393 q -0.696,0.661 -1.625,0.661 -0.911,0 -1.607,-0.661 L 9.429,29.054 Q 8.75,28.375 8.75,27.429 q 0,-0.946 0.679,-1.625 l 5.232,-5.232 H 2.09 q -0.929,0 -1.509,-0.67 -0.58,-0.67 -0.58,-1.616 V 16 q 0,-0.946 0.58,-1.616 0.58,-0.67 1.509,-0.67 H 14.661 L 9.429,8.464 Q 8.75,7.821 8.75,6.857 8.75,5.893 9.429,5.25 l 1.339,-1.339 q 0.679,-0.679 1.607,-0.679 0.946,0 1.625,0.679 l 11.625,11.625 q 0.661,0.625 0.661,1.607 z"
       inkscape:connector-curvature="0"
       style="fill:#ffffff;fill-opacity:1;stroke:#000000;stroke-width:1.75309598;stroke-miterlimit:4;stroke-opacity:1;stroke-dasharray:none" />
  </g>
</svg>
