<svg id="Layer_1" data-name="Layer 1" xmlns="http://www.w3.org/2000/svg" viewBox="0 0 54 54"><defs><style>.cls-1{fill:#f7991f;}.cls-2{fill:#fff;}.cls-3{fill:#221f1f;}</style></defs><title>path_generation</title><path class="cls-1" d="M27,53A26,26,0,1,1,53,27,26,26,0,0,1,27,53Z" transform="translate(-0.02 -0.04)"/><path class="cls-2" d="M27,2A25,25,0,1,1,2,27,25,25,0,0,1,27,2m0-2A27,27,0,1,0,54,27,27,27,0,0,0,27,0h0Z" transform="translate(-0.02 -0.04)"/><polygon class="cls-3" points="7.45 23.09 7.45 30.91 13.09 27 7.45 23.09"/><polygon class="cls-3" points="15.75 23.09 15.75 30.91 21.39 27 15.75 23.09"/><polygon class="cls-3" points="24.45 23.09 24.45 30.91 30.08 27 24.45 23.09"/><polygon class="cls-3" points="32.74 23.09 32.74 30.91 38.38 27 32.74 23.09"/><polygon class="cls-3" points="40.91 23.09 40.91 30.91 46.55 27 40.91 23.09"/></svg>