<svg width="15" height="16" viewBox="0 0 15 16" fill="none" xmlns="http://www.w3.org/2000/svg">
<path fill-rule="evenodd" clip-rule="evenodd" d="M8.96364 0.740351C8.64342 0.42013 8.12418 0.420313 7.80418 0.740761C7.4845 1.06089 7.48509 1.57991 7.80499 1.89981L4.32781 5.37696L1.80252 5.88173C1.55867 5.93047 1.33471 6.05036 1.15893 6.22627C0.66766 6.71788 0.667848 7.51464 1.15935 8.00603L3.74746 10.5935L0.26947 14.0715C-0.0505979 14.3915 -0.0505981 14.9105 0.26947 15.2305C0.589533 15.5506 1.10846 15.5506 1.42852 15.2305L4.90652 11.7526L7.49401 14.3406C7.98541 14.8321 8.78219 14.8323 9.27382 14.341C9.44971 14.1653 9.5696 13.9413 9.61836 13.6975L10.1231 11.173L13.6003 7.69588C13.9204 8.01597 14.4393 8.01607 14.7596 7.69609C15.0799 7.37595 15.08 6.85667 14.7598 6.53642L8.96364 0.740351ZM5.14627 6.91383L8.9695 3.0585L12.4416 6.56132L8.61836 10.4167L8.15673 12.7464L2.83645 7.38027L5.14627 6.91383Z" fill="#444854"/>
</svg>
