<svg width="18" height="18" viewBox="0 0 18 18" fill="none" xmlns="http://www.w3.org/2000/svg">
<path fill-rule="evenodd" clip-rule="evenodd" d="M1.7932 11.4657C1.40603 11.4657 1.07221 11.2027 0.98137 10.8259C0.273364 7.90299 1.21713 4.83222 3.44425 2.81282C5.05348 1.35207 7.15947 0.591981 9.34261 0.705016C10.8423 0.781097 12.2568 1.24917 13.4753 2.06722L13.4291 0.869495C13.4205 0.644876 13.4998 0.4304 13.6519 0.265921C13.8033 0.103615 14.0095 0.00869495 14.233 0H14.2345C14.7168 0 15.0831 0.354319 15.1011 0.805732L15.2179 3.91852C15.2179 4.44022 14.8646 4.80831 14.4133 4.82642L11.2691 4.94308H11.2684C10.7875 4.94308 10.4205 4.58876 10.4017 4.13735C10.3931 3.91128 10.4724 3.6968 10.6252 3.53305C10.7759 3.37002 10.9828 3.2751 11.2063 3.2664L12.1617 3.23017C11.1854 2.6737 10.0694 2.37517 8.93021 2.37517C7.31304 2.37517 5.76221 2.97222 4.56465 4.0562C2.79464 5.65824 2.0441 8.10007 2.60502 10.4289C2.6591 10.6441 2.62449 10.8709 2.50697 11.0629C2.39161 11.2527 2.2092 11.3875 1.99363 11.4418C1.92946 11.4578 1.86529 11.4657 1.7932 11.4657ZM3.8516 18C3.4219 18 3.05636 17.6638 3.02031 17.2341L2.7384 14.0996C2.69515 13.6409 3.03401 13.2315 3.49327 13.1873L6.70597 12.9019C7.14001 12.9019 7.49689 13.2294 7.53727 13.6627C7.5798 14.1228 7.24166 14.5322 6.78168 14.5764L5.67929 14.6756C6.69155 15.2915 7.86676 15.6234 9.0708 15.6234C10.6865 15.6234 12.2374 15.0263 13.4363 13.9424C15.2092 12.3381 15.9598 9.89631 15.396 7.57041C15.3419 7.35521 15.3758 7.12914 15.4933 6.9364C15.6094 6.74656 15.7918 6.61179 16.0067 6.55817C16.4479 6.44658 16.9072 6.72844 17.0189 7.17044C17.7262 10.097 16.7832 13.1685 14.5568 15.1865C13.0441 16.5523 11.0975 17.3044 9.0744 17.3044C8.93814 17.3044 8.79899 17.3008 8.65912 17.2935C7.18543 17.2189 5.79249 16.7639 4.58412 15.969L4.6829 17.0834C4.72543 17.5413 4.38657 17.9507 3.92731 17.9949L3.8516 18Z" fill="#194FA1"/>
</svg>
