<svg width="16" height="16" viewBox="0 0 16 16" fill="none" xmlns="http://www.w3.org/2000/svg">
    <path fill-rule="evenodd" clip-rule="evenodd" d="M7.32911 0.0300008C5.56509 0.179005 3.96706 0.896023 2.71705 1.99905L3.98506 3.40309C4.96308 2.56006 6.2241 2.02405 7.61512 1.93305C10.6142 1.73704 13.3072 3.75709 13.9562 6.69317C14.6052 9.62724 13.0182 12.5993 10.2152 13.6863C7.59512 14.7054 4.64207 13.7893 3.04705 11.5323H4.80308C5.33308 11.5323 5.76409 11.1023 5.76409 10.5723C5.76409 10.0423 5.33308 9.61124 4.80308 9.61124H0.961021C0.429013 9.61124 -0.0019931 10.0423 6.9326e-06 10.5723V14.4174C6.9326e-06 14.9464 0.429013 15.3774 0.961021 15.3774C1.49103 15.3774 1.92103 14.9464 1.91903 14.4174L1.92103 13.1953C4.19007 15.8584 7.97812 16.7614 11.2462 15.3114C14.8152 13.7263 16.7182 9.79625 15.7482 6.01315C14.8332 2.45206 11.6262 0 8.00812 0C7.78212 0 7.55712 0.0100003 7.32911 0.0300008Z" fill="#6D7881" />
</svg>