<svg width="12" height="12" viewBox="0 0 12 12" fill="none" xmlns="http://www.w3.org/2000/svg">
     <path fill-rule="evenodd" clip-rule="evenodd" d="M2.28676 3.68168L4.79443 1.38014C4.96688 1.22563 5.04375 0.989414 4.99568 0.761711C4.94761 0.534009 4.78204 0.349996 4.56219 0.279959C4.34235 0.209922 4.1022 0.264679 3.93347 0.423316L0.209571 3.84169C0.0760968 3.96421 0 4.13793 0 4.3201C0 4.50226 0.0760968 4.67598 0.209571 4.79851L3.93347 8.21688C4.1022 8.37551 4.34235 8.43027 4.56219 8.36023C4.78204 8.2902 4.94761 8.10618 4.99568 7.87848C5.04375 7.65078 4.96688 7.41456 4.79443 7.26006L2.30436 4.97468H8.22548C9.65222 5.0737 10.7595 6.27148 10.7595 7.71584C10.7595 9.1602 9.65222 10.358 8.22548 10.457H6.14508C5.79156 10.457 5.50496 10.7464 5.50496 11.1035C5.50496 11.4606 5.79156 11.75 6.14508 11.75H8.22548C10.3438 11.6288 12 9.85865 12 7.71584C12 5.57302 10.3438 3.80284 8.22548 3.68168H2.28676Z" fill="#6D7881"/>
</svg>
