<?xml version="1.0" encoding="UTF-8" standalone="no"?>
<!-- Generated by IcoMoon.io -->

<svg
   xmlns:dc="http://purl.org/dc/elements/1.1/"
   xmlns:cc="http://creativecommons.org/ns#"
   xmlns:rdf="http://www.w3.org/1999/02/22-rdf-syntax-ns#"
   xmlns:svg="http://www.w3.org/2000/svg"
   xmlns="http://www.w3.org/2000/svg"
   xmlns:sodipodi="http://sodipodi.sourceforge.net/DTD/sodipodi-0.dtd"
   xmlns:inkscape="http://www.inkscape.org/namespaces/inkscape"
   version="1.1"
   width="18"
   height="18"
   viewBox="0 0 18 18"
   id="svg2"
   inkscape:version="0.48.5 r10040"
   sodipodi:docname="RestrictedStopIconImage16x16.svg">
  <metadata
     id="metadata11">
    <rdf:RDF>
      <cc:Work
         rdf:about="">
        <dc:format>image/svg+xml</dc:format>
        <dc:type
           rdf:resource="http://purl.org/dc/dcmitype/StillImage" />
        <dc:title />
      </cc:Work>
    </rdf:RDF>
  </metadata>
  <defs
     id="defs9" />
  <sodipodi:namedview
     pagecolor="#ffffff"
     bordercolor="#666666"
     borderopacity="1"
     objecttolerance="10"
     gridtolerance="10"
     guidetolerance="10"
     inkscape:pageopacity="0"
     inkscape:pageshadow="2"
     inkscape:window-width="1266"
     inkscape:window-height="852"
     id="namedview7"
     showgrid="false"
     inkscape:zoom="16"
     inkscape:cx="18.673357"
     inkscape:cy="5.9703762"
     inkscape:window-x="25"
     inkscape:window-y="22"
     inkscape:window-maximized="0"
     inkscape:current-layer="svg2" />
  <g
     id="icomoon-ignore"
     transform="translate(0,-10)" />
  <g
     id="g3002"
     transform="translate(-0.3125,0)">
    <path
       transform="matrix(1.068858,0,0,0.96668778,-0.72869793,-0.24193261)"
       d="m 16.607355,9.6963224 c 0,4.4549656 -3.26625,8.0664296 -7.2953738,8.0664296 -4.0291235,0 -7.2953734,-3.611464 -7.2953734,-8.0664296 0,-4.4549658 3.2662499,-8.0664291 7.2953734,-8.0664291 4.0291238,0 7.2953738,3.6114633 7.2953738,8.0664291 z"
       sodipodi:ry="8.0664291"
       sodipodi:rx="7.2953734"
       sodipodi:cy="9.6963224"
       sodipodi:cx="9.3119812"
       id="path2995"
       style="fill:#ffffff;stroke:#000000;stroke-width:0.398;stroke-miterlimit:4;stroke-opacity:1;stroke-dasharray:none"
       sodipodi:type="arc" />
    <path
       inkscape:transform-center-y="-0.05003408"
       inkscape:transform-center-x="0.95725733"
       style="fill:#ff0000;stroke:#000000;stroke-width:0.398;stroke-miterlimit:4;stroke-dasharray:none"
       inkscape:connector-curvature="0"
       id="path5"
       d="M 2.699,9.176635 Q 2.699,7.840209 3.216092,6.62691 3.733185,5.413611 4.602421,4.537007 5.471657,3.660403 6.679472,3.1411964 q 1.207814,-0.519207 2.530659,-0.519207 1.322846,0 2.530661,0.519207 1.207815,0.5192066 2.077051,1.3958106 0.869236,0.876604 1.386328,2.089903 0.517093,1.213299 0.517093,2.549725 0,1.336428 -0.517093,2.554085 -0.517092,1.217658 -1.386328,2.094262 -0.869236,0.876604 -2.077051,1.395811 Q 10.532977,15.74 9.210131,15.74 7.887286,15.74 6.679472,15.220793 5.471657,14.701586 4.602421,13.824982 3.733185,12.948378 3.216092,11.73072 2.699,10.513063 2.699,9.176635 z m 1.89908,0 q 0,1.378923 0.754749,2.545368 L 11.753815,5.303559 Q 10.609483,4.528835 9.210131,4.528835 q -1.254478,0 -2.314707,0.621631 Q 5.835195,5.772098 5.216637,6.844291 4.59808,7.916482 4.597537,9.176635 z m 2.093871,3.898683 q 1.161695,0.757836 2.51818,0.757836 0.94086,0 1.793275,-0.370472 0.852416,-0.370474 1.470973,-0.99156 0.618557,-0.621089 0.983724,-1.485707 0.365166,-0.864618 0.364623,-1.80878 0,-1.37075 -0.737385,-2.511043 z" />
  </g>
</svg>
