<?xml version="1.0" encoding="UTF-8" standalone="no"?>
<!-- Created with Inkscape (http://www.inkscape.org/) -->

<svg
   xmlns:dc="http://purl.org/dc/elements/1.1/"
   xmlns:cc="http://creativecommons.org/ns#"
   xmlns:rdf="http://www.w3.org/1999/02/22-rdf-syntax-ns#"
   xmlns:svg="http://www.w3.org/2000/svg"
   xmlns="http://www.w3.org/2000/svg"
   xmlns:sodipodi="http://sodipodi.sourceforge.net/DTD/sodipodi-0.dtd"
   xmlns:inkscape="http://www.inkscape.org/namespaces/inkscape"
   width="32px"
   height="32px"
   id="svg2985"
   version="1.1"
   inkscape:version="0.48.4 r9939"
   sodipodi:docname="New document 1">
  <defs
     id="defs2987" />
  <sodipodi:namedview
     id="base"
     pagecolor="#ffffff"
     bordercolor="#666666"
     borderopacity="1.0"
     inkscape:pageopacity="0.0"
     inkscape:pageshadow="2"
     inkscape:zoom="22.395604"
     inkscape:cx="5.3111121"
     inkscape:cy="14.477877"
     inkscape:current-layer="layer1"
     showgrid="true"
     inkscape:grid-bbox="true"
     inkscape:document-units="px"
     inkscape:window-width="1920"
     inkscape:window-height="1137"
     inkscape:window-x="2872"
     inkscape:window-y="532"
     inkscape:window-maximized="1" />
  <metadata
     id="metadata2990">
    <rdf:RDF>
      <cc:Work
         rdf:about="">
        <dc:format>image/svg+xml</dc:format>
        <dc:type
           rdf:resource="http://purl.org/dc/dcmitype/StillImage" />
        <dc:title></dc:title>
      </cc:Work>
    </rdf:RDF>
  </metadata>
  <g
     id="layer1"
     inkscape:label="Layer 1"
     inkscape:groupmode="layer">
    <g
       id="g3017"
       transform="translate(0.95827992,-0.58406704)"
       style="fill:#ffffff;fill-opacity:1;stroke:#000000;stroke-opacity:1;stroke-width:1;stroke-miterlimit:4;stroke-dasharray:none">
      <g
         id="g3007"
         style="fill:#ffffff;fill-opacity:1;stroke:#000000;stroke-opacity:1;stroke-width:1;stroke-miterlimit:4;stroke-dasharray:none" />
      <path
         id="path3009"
         d="m 6.857,26.286 q 0,-0.464 -0.339,-0.804 -0.339,-0.34 -0.804,-0.339 -0.465,10e-4 -0.804,0.339 -0.339,0.338 -0.339,0.804 0,0.466 0.339,0.804 0.339,0.338 0.804,0.339 0.465,0.001 0.804,-0.339 0.339,-0.34 0.339,-0.804 z m 11.5,-7.5 -12.179,12.179 q -0.661,0.661 -1.607,0.661 -0.929,0 -1.625,-0.661 L 1.053,29.036 q -0.679,-0.643 -0.679,-1.607 0,-0.946 0.679,-1.625 L 13.214,13.643 q 0.696,1.75 2.045,3.098 1.349,1.348 3.098,2.045 z m 11.322,-7.768 q 0,0.696 -0.411,1.893 -0.839,2.393 -2.938,3.884 -2.099,1.491 -4.616,1.491 -3.304,0 -5.652,-2.348 -2.348,-2.348 -2.348,-5.652 0,-3.304 2.348,-5.652 2.348,-2.348 5.652,-2.348 1.036,0 2.17,0.295 1.134,0.295 1.92,0.83 0.286,0.196 0.286,0.5 0,0.304 -0.286,0.5 l -5.232,3.018 v 4 l 3.446,1.911 q 0.089,-0.054 1.411,-0.866 1.322,-0.812 2.42,-1.446 1.098,-0.634 1.259,-0.634 0.268,0 0.42,0.179 0.152,0.179 0.152,0.446 z"
         inkscape:connector-curvature="0"
         style="fill:#ffffff;fill-opacity:1;stroke:#000000;stroke-opacity:1;stroke-width:1;stroke-miterlimit:4;stroke-dasharray:none" />
    </g>
  </g>
</svg>
