<?xml version="1.0" encoding="UTF-8" standalone="no"?>
<!-- Generated by IcoMoon.io -->

<svg
   xmlns:dc="http://purl.org/dc/elements/1.1/"
   xmlns:cc="http://creativecommons.org/ns#"
   xmlns:rdf="http://www.w3.org/1999/02/22-rdf-syntax-ns#"
   xmlns:svg="http://www.w3.org/2000/svg"
   xmlns="http://www.w3.org/2000/svg"
   xmlns:sodipodi="http://sodipodi.sourceforge.net/DTD/sodipodi-0.dtd"
   xmlns:inkscape="http://www.inkscape.org/namespaces/inkscape"
   version="1.1"
   width="32"
   height="32"
   viewBox="0 0 32 32"
   id="svg3007"
   inkscape:version="0.48.4 r9939"
   sodipodi:docname="RoutePositionMarker.svg">
  <metadata
     id="metadata3017">
    <rdf:RDF>
      <cc:Work
         rdf:about="">
        <dc:format>image/svg+xml</dc:format>
        <dc:type
           rdf:resource="http://purl.org/dc/dcmitype/StillImage" />
        <dc:title />
      </cc:Work>
    </rdf:RDF>
  </metadata>
  <defs
     id="defs3015" />
  <sodipodi:namedview
     pagecolor="#ffffff"
     bordercolor="#666666"
     borderopacity="1"
     objecttolerance="10"
     gridtolerance="10"
     guidetolerance="10"
     inkscape:pageopacity="0"
     inkscape:pageshadow="2"
     inkscape:window-width="1405"
     inkscape:window-height="864"
     id="namedview3013"
     showgrid="false"
     inkscape:zoom="8"
     inkscape:cx="6.0322186"
     inkscape:cy="-1.1216255"
     inkscape:window-x="68"
     inkscape:window-y="34"
     inkscape:window-maximized="0"
     inkscape:current-layer="svg3007" />
  <g
     id="g4328">
    <path
       transform="matrix(1.4615385,0,0,1.5857143,44.240385,-14.128572)"
       d="m -14.875,14.625 a 4.875,4.375 0 1 1 -9.75,0 4.875,4.375 0 1 1 9.75,0 z"
       sodipodi:ry="4.375"
       sodipodi:rx="4.875"
       sodipodi:cy="14.625"
       sodipodi:cx="-19.75"
       id="path4324"
       style="fill:#ffffff;fill-opacity:1;stroke:none"
       sodipodi:type="arc" />
    <path
       id="path4183"
       d="M 15.65625 1.40625 C 15.358405 1.41199 15.078041 1.466055 14.78125 1.5 C 14.74657 1.50397 14.690884 1.49565 14.65625 1.5 C 10.9389 1.7191432 7.4610465 4.0847985 7.28125 7.75 C 7.1614208 10.192755 7.4249684 11.477941 10.09375 15.5 C 11.855628 18.155288 13.66979 21.630236 14.28125 23.875 L 15.5 28.5 L 15.53125 28.34375 L 15.5625 28.4375 L 16.65625 24.28125 L 16.8125 23.8125 C 16.8193 23.78767 16.80544 23.77513 16.8125 23.75 C 17.442752 21.503094 19.226359 18.063417 20.96875 15.4375 C 23.637531 11.415443 23.901078 10.130254 23.78125 7.6875 C 23.589236 3.7733064 19.64798 1.3293132 15.65625 1.40625 z M 15.5625 1.78125 C 19.791438 1.78125 23.21875 4.9930796 23.21875 8.9375 C 23.21875 12.88192 19.791438 16.0625 15.5625 16.0625 C 11.333562 16.0625 7.90625 12.88192 7.90625 8.9375 C 7.90625 4.9930796 11.333562 1.78125 15.5625 1.78125 z "
       style="fill:#ff0000;stroke:#ff0000;stroke-width:2.19200000000000020;stroke-miterlimit:4;stroke-dasharray:none" />
    <g
       style="fill:#000000;stroke:none"
       transform="matrix(-0.34568859,0,0,0.36253396,21.576903,3.3165503)"
       id="g4061">
      <g
         style="fill:#000000;stroke:none"
         id="g4051" />
      <path
         style="fill:#000000;stroke:none"
         inkscape:connector-curvature="0"
         d="m 11.429,25.143 q 0,-0.929 -0.679,-1.607 -0.679,-0.678 -1.607,-0.679 -0.928,-10e-4 -1.607,0.679 -0.679,0.68 -0.679,1.607 0,0.927 0.679,1.607 0.679,0.68 1.607,0.679 0.928,-10e-4 1.607,-0.679 0.679,-0.678 0.679,-1.607 z M 4.571,16 h 6.857 V 11.429 H 8.607 q -0.232,0 -0.393,0.161 l -3.482,3.482 q -0.161,0.161 -0.161,0.393 v 0.536 z m 22.858,9.143 q 0,-0.929 -0.679,-1.607 -0.679,-0.678 -1.607,-0.679 -0.928,-10e-4 -1.607,0.679 -0.679,0.68 -0.679,1.607 0,0.927 0.679,1.607 0.679,0.68 1.607,0.679 0.928,-10e-4 1.607,-0.679 0.679,-0.678 0.679,-1.607 z M 32,5.714 V 24 q 0,0.268 -0.071,0.473 -0.071,0.205 -0.241,0.33 -0.17,0.125 -0.295,0.205 -0.125,0.08 -0.42,0.107 -0.295,0.027 -0.402,0.036 -0.107,0.009 -0.455,0 -0.348,-0.009 -0.402,-0.009 0,1.893 -1.339,3.232 -1.339,1.339 -3.232,1.339 -1.893,0 -3.232,-1.339 -1.339,-1.339 -1.339,-3.232 h -6.857 q 0,1.893 -1.339,3.232 -1.339,1.339 -3.232,1.339 -1.893,0 -3.232,-1.339 Q 4.573,27.035 4.573,25.142 H 3.43 q -0.054,0 -0.402,0.009 -0.348,0.009 -0.455,0 Q 2.466,25.142 2.171,25.115 1.876,25.088 1.751,25.008 1.626,24.928 1.456,24.803 1.286,24.678 1.215,24.473 1.144,24.268 1.144,24 q 0,-0.464 0.339,-0.804 0.339,-0.34 0.804,-0.339 v -5.714 q 0,-0.143 -0.009,-0.625 -0.009,-0.482 0,-0.679 0.009,-0.197 0.045,-0.616 0.036,-0.419 0.116,-0.661 0.08,-0.242 0.25,-0.545 0.17,-0.303 0.402,-0.536 L 6.627,9.945 Q 6.966,9.606 7.529,9.374 8.092,9.142 8.574,9.142 h 2.857 V 5.713 q 0,-0.464 0.339,-0.804 0.339,-0.34 0.804,-0.339 H 30.86 q 0.464,0 0.804,0.339 0.34,0.339 0.339,0.804 z"
         id="path4053" />
    </g>
  </g>
</svg>
