<svg id="Layer_1" data-name="Layer 1" xmlns="http://www.w3.org/2000/svg" viewBox="0 0 54 54"><defs><style>.cls-1{fill:#f7991f;}.cls-2{fill:#fff;}.cls-3,.cls-4{fill:none;stroke-miterlimit:10;stroke-width:3px;}.cls-3{stroke:#221f1f;}.cls-4{stroke:#231f20;stroke-linecap:round;}</style></defs><title>route_cancellation</title><path class="cls-1" d="M27,53.06a26,26,0,1,1,26-26A26,26,0,0,1,27,53.06Z" transform="translate(0 -0.06)"/><path class="cls-2" d="M27,2.06a25,25,0,1,1-25,25,25,25,0,0,1,25-25m0-2a27,27,0,1,0,27,27,27,27,0,0,0-27-27h0Z" transform="translate(0 -0.06)"/><circle class="cls-3" cx="27" cy="27" r="14.96"/><line class="cls-4" x1="19.91" y1="19.91" x2="34.09" y2="34.09"/><line class="cls-4" x1="19.91" y1="34.09" x2="34.09" y2="19.91"/></svg>