<svg width="15" height="15" viewBox="0 0 15 15" fill="none" xmlns="http://www.w3.org/2000/svg">
<path fill-rule="evenodd" clip-rule="evenodd" d="M6.75 1.5C3.8505 1.5 1.5 3.8505 1.5 6.75C1.5 9.6495 3.8505 12 6.75 12C8.16446 12 9.44827 11.4406 10.3923 10.531C10.412 10.5054 10.4337 10.4807 10.4572 10.4572C10.4807 10.4337 10.5054 10.412 10.531 10.3923C11.4406 9.44827 12 8.16446 12 6.75C12 3.8505 9.6495 1.5 6.75 1.5ZM12.0239 10.9633C12.9476 9.80851 13.5 8.34376 13.5 6.75C13.5 3.02208 10.4779 0 6.75 0C3.02208 0 0 3.02208 0 6.75C0 10.4779 3.02208 13.5 6.75 13.5C8.34376 13.5 9.80851 12.9476 10.9633 12.0239L13.7197 14.7803C14.0126 15.0732 14.4874 15.0732 14.7803 14.7803C15.0732 14.4874 15.0732 14.0126 14.7803 13.7197L12.0239 10.9633ZM6.75 3.75C7.16421 3.75 7.5 4.08579 7.5 4.5V6H9C9.41421 6 9.75 6.33579 9.75 6.75C9.75 7.16421 9.41421 7.5 9 7.5H7.5V9C7.5 9.41421 7.16421 9.75 6.75 9.75C6.33579 9.75 6 9.41421 6 9V7.5H4.5C4.08579 7.5 3.75 7.16421 3.75 6.75C3.75 6.33579 4.08579 6 4.5 6H6V4.5C6 4.08579 6.33579 3.75 6.75 3.75Z" fill="#1DBD55"/>
</svg>
