<svg width="14" height="14" viewBox="0 0 14 14" fill="none" xmlns="http://www.w3.org/2000/svg">
<path fill-rule="evenodd" clip-rule="evenodd" d="M7.00094 4.93224C5.86153 4.93224 4.93411 5.85903 4.93411 6.99844C4.93411 8.13785 5.86153 9.06464 7.00094 9.06464C8.14035 9.06464 9.06714 8.13785 9.06714 6.99844C9.06714 5.85903 8.14035 4.93224 7.00094 4.93224ZM7.00094 10.0909C5.29557 10.0909 3.90914 8.70318 3.90914 6.99844C3.90914 5.2937 5.29557 3.90602 7.00094 3.90602C8.7063 3.90602 10.0927 5.2937 10.0927 6.99844C10.0927 8.70318 8.7063 10.0909 7.00094 10.0909ZM6.43686 12.9794H7.56251L7.7595 11.8144C7.78952 11.6155 7.93773 11.4535 8.13597 11.4041C8.55121 11.2972 8.94457 11.1333 9.30665 10.9176C9.483 10.8144 9.70125 10.8225 9.86573 10.9413L10.8275 11.6261L11.6255 10.8282L10.9401 9.8626C10.8238 9.69813 10.815 9.47925 10.917 9.30478C11.1327 8.94269 11.2966 8.54871 11.4035 8.13347C11.4529 7.93898 11.6142 7.79077 11.8137 7.757L12.9794 7.56314L12.9819 6.43686L11.8169 6.23987C11.618 6.20923 11.4554 6.06164 11.406 5.86278C11.2991 5.44879 11.1352 5.05481 10.9207 4.69272C10.8169 4.51575 10.8257 4.29624 10.9439 4.13365L11.628 3.17184L10.8238 2.367L9.87448 3.06178C9.70876 3.17872 9.49051 3.1881 9.31541 3.08492C8.94206 2.86479 8.53808 2.69907 8.11596 2.59338C7.9196 2.54398 7.77013 2.38138 7.73636 2.17939L7.54188 1.02309H6.41622L6.21673 2.1969C6.18171 2.39326 6.03538 2.55398 5.84152 2.60714C5.4344 2.7122 5.04168 2.87729 4.67209 3.09867C4.49824 3.20248 4.27686 3.19373 4.11114 3.07679L3.15433 2.39451L2.35637 3.19185L3.04739 4.16304C3.16496 4.32626 3.17559 4.54389 3.07366 4.71836C2.86166 5.07795 2.70094 5.47255 2.59588 5.89154C2.54648 6.08791 2.38451 6.23737 2.18189 6.27176L1.02497 6.46625V7.59128L2.19878 7.7914C2.39514 7.82517 2.55586 7.97213 2.60901 8.16599C2.7147 8.57435 2.88042 8.96708 3.1018 9.33542C3.20498 9.51177 3.1956 9.7319 3.07929 9.89699L2.39702 10.8544L3.20123 11.6586L4.16492 10.9607C4.31751 10.8488 4.54764 10.8357 4.71961 10.9338C5.08483 11.1433 5.47005 11.3016 5.8659 11.4041C6.06039 11.4535 6.2086 11.6149 6.24237 11.8144L6.43686 12.9794ZM7.60441 14H6.39183C5.91343 14 5.50882 13.6573 5.4294 13.1858L5.28182 12.2959C5.00603 12.2065 4.74213 12.0976 4.49511 11.9726L3.7503 12.5029C3.37571 12.7718 2.82852 12.728 2.4977 12.3978L1.6422 11.5417C1.30263 11.2059 1.2576 10.6781 1.53652 10.2866L2.05744 9.5618C1.92174 9.30165 1.80667 9.02836 1.71475 8.74945L0.812972 8.59499C0.342074 8.51557 0 8.11158 0 7.63318V6.42435C0 5.94595 0.342074 5.54134 0.812972 5.46192L1.69161 5.31371C1.78041 5.03104 1.89235 4.75651 2.02367 4.49573L1.49337 3.7503C1.21633 3.36195 1.26011 2.83414 1.59843 2.4952L2.45705 1.63908C2.78224 1.31014 3.33756 1.26511 3.7134 1.53402L4.44008 2.05807C4.70273 1.92174 4.97601 1.80605 5.25305 1.71537L5.40689 0.813597C5.48631 0.342699 5.89092 0 6.3687 0H7.57815C8.05655 0 8.46116 0.342699 8.53996 0.814223L8.68817 1.69161C8.97583 1.78228 9.261 1.89923 9.53866 2.04118L10.2741 1.51713C10.6468 1.24822 11.1971 1.292 11.5267 1.62282L12.3828 2.47831C12.7218 2.81413 12.7668 3.34256 12.4879 3.73342L11.9644 4.46697C12.0958 4.72524 12.209 4.99915 12.3015 5.28244L13.1908 5.43315C13.6661 5.5132 14.0056 5.91843 13.9987 6.39684V7.60441C13.9987 8.08282 13.6573 8.48742 13.1858 8.56685L12.2965 8.71506C12.2096 8.98396 12.0958 9.25787 11.9582 9.52991L12.4829 10.266C12.7599 10.6556 12.7155 11.184 12.3772 11.5217L11.5217 12.3778C11.1877 12.7093 10.6387 12.7511 10.2653 12.4822L9.53241 11.9588C9.27413 12.0908 9.00022 12.204 8.71693 12.2959L8.56622 13.1858C8.4868 13.6573 8.08219 14 7.60441 14Z" fill="#444854"/>
</svg>
