<svg id="Layer_2" data-name="Layer 2" xmlns="http://www.w3.org/2000/svg" viewBox="0 0 99.15 99.15"><title>Generated_Path_Icon_07-27-16</title><polygon points="16.85 40.98 16.85 57.64 28.88 49.32 16.85 40.98" fill="#454545"/><polygon points="34.55 40.98 34.55 57.64 46.56 49.32 34.55 40.98" fill="#454545"/><polygon points="53.1 40.98 53.1 57.64 65.1 49.32 53.1 40.98" fill="#454545"/><polygon points="70.77 40.98 70.77 57.64 82.8 49.32 70.77 40.98" fill="#454545"/><path d="M250.79,254.85a49.57,49.57,0,1,0,49.57,49.57A49.57,49.57,0,0,0,250.79,254.85Zm0,90.33a40.76,40.76,0,1,1,40.76-40.76A40.81,40.81,0,0,1,250.79,345.19Z" transform="translate(-201.22 -254.85)" fill="#454545"/></svg>