<?xml version="1.0" ?><!DOCTYPE svg  PUBLIC '-//W3C//DTD SVG 1.1//EN'  'http://www.w3.org/Graphics/SVG/1.1/DTD/svg11.dtd'><svg enable-background="new 0 0 128 128" height="128px" id="Layer_1" version="1.1" viewBox="0 0 128 128" width="128px" xml:space="preserve" xmlns="http://www.w3.org/2000/svg" xmlns:xlink="http://www.w3.org/1999/xlink"><g><path d="M64,29c-24.853,0-45,20.147-45,45c0,24.853,20.147,45,45,45s45-20.147,45-45C109,49.147,88.853,29,64,29z    M64,111c-20.402,0-37-16.598-37-37c0-20.402,16.598-37,37-37s37,16.598,37,37C101,94.402,84.402,111,64,111z" fill="#454545"/><path d="M74,9H54c-2.209,0-4,1.791-4,4v5c0,2.209,1.791,4,4,4h6v3h8v-3h6c2.209,0,4-1.791,4-4v-5   C78,10.791,76.209,9,74,9z" fill="#454545"/><path d="M26.016,43.087l7.071-7.071l-1.614-1.614c-1.562-1.562-4.095-1.562-5.657,0l-1.414,1.414   c-1.562,1.562-1.562,4.095,0,5.657L26.016,43.087z" fill="#454545"/><path d="M101.984,43.087l1.614-1.614c1.562-1.562,1.562-4.095,0-5.657l-1.414-1.414   c-1.562-1.562-4.095-1.562-5.657,0l-1.614,1.614L101.984,43.087z" fill="#454545"/><path d="M68.528,70.483L79.555,49.9c0.522-0.974,0.155-2.186-0.819-2.707c-0.974-0.522-2.186-0.155-2.707,0.819   L65.002,68.594c-2.441-0.37-4.963,0.794-6.194,3.091c-1.562,2.916-0.461,6.56,2.456,8.122c2.916,1.562,6.56,0.461,8.122-2.456   C70.617,75.054,70.189,72.31,68.528,70.483z" fill="#454545"/></g></svg>