<?xml version="1.0" ?><!DOCTYPE svg  PUBLIC '-//W3C//DTD SVG 1.1//EN'  'http://www.w3.org/Graphics/SVG/1.1/DTD/svg11.dtd'><svg enable-background="new 0 0 128 128" height="128px" id="Layer_1" version="1.1" viewBox="0 0 128 128" width="128px" xml:space="preserve" xmlns="http://www.w3.org/2000/svg" xmlns:xlink="http://www.w3.org/1999/xlink"><g id="done_x5F_completed"><path d="M81,45H35c-1.104,0-2-0.896-2-2s0.896-2,2-2h46c1.104,0,2,0.896,2,2S82.104,45,81,45z" fill="#454545"/><path d="M81,55H35c-1.104,0-2-0.896-2-2s0.896-2,2-2h46c1.104,0,2,0.896,2,2S82.104,55,81,55z" fill="#454545"/><path d="M81,65H35c-1.104,0-2-0.896-2-2s0.896-2,2-2h46c1.104,0,2,0.896,2,2S82.104,65,81,65z" fill="#454545"/><path d="M81,76H35c-1.104,0-2-0.896-2-2s0.896-2,2-2h46c1.104,0,2,0.896,2,2S82.104,76,81,76z" fill="#454545"/><path d="M81,86H35c-1.104,0-2-0.896-2-2s0.896-2,2-2h46c1.104,0,2,0.896,2,2S82.104,86,81,86z" fill="#454545"/><path d="M67,13h-1.333c0-4.234-3.432-7.667-7.667-7.667S50.333,8.766,50.333,13H49c-2.2,0-4,1.8-4,4v6   c0,2.2,1.8,4,4,4h18c2.2,0,4-1.8,4-4v-6C71,14.8,69.2,13,67,13z M58,9.333c2.022,0,3.667,1.645,3.667,3.667h-7.334   C54.333,10.978,55.978,9.333,58,9.333z" fill="#454545"/><path d="M91,97.687l8-8V23.5c0-4.418-2.582-7.5-7-7.5H75v8h16V97.687z" fill="#454545"/><path d="M79.342,120.654L71.687,113H24V24h17v-8H25c-4.418,0-9,3.082-9,7.5v89c0,4.418,4.582,8.5,9,8.5h54.722   C79.594,120.887,79.464,120.776,79.342,120.654z" fill="#454545"/><path d="M114.578,85.422c-1.561-1.562-4.096-1.562-5.656,0L85,109.344L73.328,97.672   c-1.561-1.562-4.096-1.562-5.656,0c-1.562,1.562-1.562,4.095,0,5.656l14.5,14.5C82.952,118.609,83.977,119,85,119   s2.048-0.391,2.828-1.172l26.75-26.75C116.141,89.517,116.141,86.983,114.578,85.422z" fill="#454545"/></g></svg>