<svg width="16" height="16" viewBox="0 0 16 16" fill="none" xmlns="http://www.w3.org/2000/svg">
<path fill-rule="evenodd" clip-rule="evenodd" d="M13.4054 0H2.59459C1.16757 0 0 1.16757 0 2.59459V13.4054C0 14.8324 1.16757 16 2.59459 16H13.4054C14.8324 16 16 14.8324 16 13.4054V2.59459C16 1.16757 14.8324 0 13.4054 0ZM14.7027 13.4054C14.7027 14.1206 14.1206 14.7027 13.4054 14.7027H2.59459C1.87935 14.7027 1.2973 14.1206 1.2973 13.4054V2.59459C1.2973 1.87935 1.87935 1.2973 2.59459 1.2973H13.4054C14.1206 1.2973 14.7027 1.87935 14.7027 2.59459V13.4054Z" fill="#6D7881"/>
<path d="M3.45947 7.3514V8.6487H12.5406V7.3514H3.45947Z" fill="#6D7881"/>
</svg>
