<svg width="20" height="20" viewBox="0 0 20 20" fill="none" xmlns="http://www.w3.org/2000/svg">
<path fill-rule="evenodd" clip-rule="evenodd" d="M0 2C0 0.895431 0.895431 0 2 0H18C19.1046 0 20 0.895431 20 2V18C20 19.1046 19.1046 20 18 20H2C0.895431 20 0 19.1046 0 18V2ZM1.66667 1.66667H9.16667V4.16667H1.66667V1.66667ZM9.16667 5.83333H1.66667V18.3333H9.16667V5.83333ZM18.3333 5.83333H10.8333V18.3333H18.3333V5.83333ZM18.3333 1.66667H10.8333V4.16667H18.3333V1.66667ZM3.33333 8.33333C3.33333 7.8731 3.70643 7.5 4.16667 7.5H6.66667C7.1269 7.5 7.5 7.8731 7.5 8.33333C7.5 8.79357 7.1269 9.16667 6.66667 9.16667H4.16667C3.70643 9.16667 3.33333 8.79357 3.33333 8.33333ZM12.5 8.33333C12.5 7.8731 12.8731 7.5 13.3333 7.5H15.8333C16.2936 7.5 16.6667 7.8731 16.6667 8.33333C16.6667 8.79357 16.2936 9.16667 15.8333 9.16667H13.3333C12.8731 9.16667 12.5 8.79357 12.5 8.33333ZM4.16667 10.8333C3.70643 10.8333 3.33333 11.2064 3.33333 11.6667C3.33333 12.1269 3.70643 12.5 4.16667 12.5H6.66667C7.1269 12.5 7.5 12.1269 7.5 11.6667C7.5 11.2064 7.1269 10.8333 6.66667 10.8333H4.16667ZM12.5 11.6667C12.5 11.2064 12.8731 10.8333 13.3333 10.8333H15.8333C16.2936 10.8333 16.6667 11.2064 16.6667 11.6667C16.6667 12.1269 16.2936 12.5 15.8333 12.5H13.3333C12.8731 12.5 12.5 12.1269 12.5 11.6667ZM4.16667 14.1667C3.70643 14.1667 3.33333 14.5398 3.33333 15C3.33333 15.4602 3.70643 15.8333 4.16667 15.8333H6.66667C7.1269 15.8333 7.5 15.4602 7.5 15C7.5 14.5398 7.1269 14.1667 6.66667 14.1667H4.16667ZM12.5 15C12.5 14.5398 12.8731 14.1667 13.3333 14.1667H15.8333C16.2936 14.1667 16.6667 14.5398 16.6667 15C16.6667 15.4602 16.2936 15.8333 15.8333 15.8333H13.3333C12.8731 15.8333 12.5 15.4602 12.5 15Z" fill="#194FA1"/>
</svg>
