<svg width="16" height="16" viewBox="0 0 16 16" fill="none" xmlns="http://www.w3.org/2000/svg">
<g id="Functional/time">
<path id="icon-historic" fill-rule="evenodd" clip-rule="evenodd" d="M8.00002 15.3334C12.0501 15.3334 15.3334 12.0502 15.3334 8.00008C15.3334 3.94999 12.0501 0.666748 8.00002 0.666748C3.94993 0.666748 0.666687 3.94999 0.666687 8.00008C0.666687 12.0502 3.94993 15.3334 8.00002 15.3334ZM8.00002 13.8497C4.76934 13.8497 2.15036 11.2308 2.15036 8.00008C2.15036 4.7694 4.76934 2.15042 8.00002 2.15042C11.2307 2.15042 13.8497 4.7694 13.8497 8.00008C13.8497 11.2308 11.2307 13.8497 8.00002 13.8497ZM7.33335 4.72726C7.33335 4.32513 7.65913 4.00008 8.06054 4.00008C8.46194 4.00008 8.78772 4.32513 8.78772 4.72726V8.36317H10.9693C11.3707 8.36317 11.6964 8.68822 11.6964 9.09035C11.6964 9.49249 11.3707 9.81754 10.9693 9.81754H8.06054C7.65913 9.81754 7.33335 9.49249 7.33335 9.09035V4.72726Z" fill="#6D7881"/>
</g>
</svg>
