<svg width="24" height="16" viewBox="0 0 24 16" fill="none" xmlns="http://www.w3.org/2000/svg">
<path fill-rule="evenodd" clip-rule="evenodd" d="M16.6451 13.0581C16.6451 11.7095 17.7383 10.6162 19.0869 10.6162C20.4356 10.6162 21.5288 11.7095 21.5288 13.0581C21.5288 14.4067 20.4356 15.4999 19.0869 15.4999C17.7383 15.4999 16.6451 14.4067 16.6451 13.0581ZM20.1335 13.0581C20.1335 12.4801 19.6649 12.0116 19.0869 12.0116C18.509 12.0116 18.0404 12.4801 18.0404 13.0581C18.0404 13.636 18.509 14.1046 19.0869 14.1046C19.6649 14.1046 20.1335 13.636 20.1335 13.0581ZM11.0637 13.0581C11.0637 11.7095 12.1569 10.6162 13.5056 10.6162C14.8542 10.6162 15.9474 11.7095 15.9474 13.0581C15.9474 14.4067 14.8542 15.4999 13.5056 15.4999C12.1569 15.4999 11.0637 14.4067 11.0637 13.0581ZM14.5521 13.0581C14.5521 12.4801 14.0835 12.0116 13.5056 12.0116C12.9276 12.0116 12.459 12.4801 12.459 13.0581C12.459 13.636 12.9276 14.1046 13.5056 14.1046C14.0835 14.1046 14.5521 13.636 14.5521 13.0581Z" fill="black"/>
<path fill-rule="evenodd" clip-rule="evenodd" d="M11.4686 9.9186H21.124L22.1445 11.7046C22.2394 11.8707 22.4553 11.9307 22.6242 11.8342L23.2242 11.4913C23.3957 11.3934 23.4521 11.1804 23.356 11.0123L22.7311 9.9186H23.273C23.6583 9.9186 23.9707 9.60625 23.9707 9.22093V1.19767C23.9707 0.812359 23.6583 0.5 23.273 0.5H0.947449C0.562134 0.5 0.249773 0.812359 0.249773 1.19767V9.22093C0.249773 9.60625 0.562134 9.9186 0.947449 9.9186H1.64512V10.9683C1.64512 11.1566 1.80276 11.314 1.99723 11.314H2.68837C2.88581 11.314 3.04047 11.1592 3.04047 10.9683V9.9186H9.86151L9.23653 11.0123C9.14164 11.1784 9.1995 11.3949 9.36834 11.4913L9.96842 11.8342C10.1398 11.9322 10.352 11.8727 10.448 11.7046L11.4686 9.9186Z" fill="black"/>
</svg>
