<svg width="15" height="16" viewBox="0 0 15 16" fill="none" xmlns="http://www.w3.org/2000/svg">
<path fill-rule="evenodd" clip-rule="evenodd" d="M11.2019 1.1198C11.2019 0.777495 10.9207 0.5 10.5707 0.5H4.42932C4.0807 0.5 3.79808 0.780141 3.79808 1.1198V2.46016C3.79808 2.56106 3.71964 2.64286 3.60909 2.64286H1.12079C0.846974 2.64286 0.625 2.87008 0.625 3.14093V3.21621C0.625 3.49129 0.849309 3.71429 1.12906 3.71429H1.37107C1.54317 3.71429 1.68269 3.85486 1.68269 4.02953V14.8747C1.68269 15.22 1.95882 15.5 2.30822 15.5H12.6918C13.0372 15.5 13.3173 15.2203 13.3173 14.8747V4.02953C13.3173 3.85542 13.4556 3.71429 13.6289 3.71429H13.8709C14.1493 3.71429 14.375 3.48706 14.375 3.21621V3.14093C14.375 2.86585 14.1468 2.64286 13.8792 2.64286H11.3909C11.2865 2.64286 11.2019 2.56147 11.2019 2.46016V1.1198ZM9.82925 1.57143C10.0032 1.57143 10.1442 1.7115 10.1442 1.8871V2.32719C10.1442 2.50153 10.0028 2.64286 9.82925 2.64286H5.17075C4.99679 2.64286 4.85577 2.50279 4.85577 2.32719V1.8871C4.85577 1.71276 4.99722 1.57143 5.17075 1.57143H9.82925ZM11.9429 3.71429C12.1178 3.71429 12.2596 3.84975 12.2596 4.02339V14.1195C12.2596 14.2902 12.125 14.4286 11.9429 14.4286H3.05711C2.88219 14.4286 2.74038 14.2931 2.74038 14.1195V4.02339C2.74038 3.85268 2.87495 3.71429 3.05711 3.71429H11.9429ZM5.38462 5.85714L5.31788 5.86124C5.07762 5.891 4.88954 6.07945 4.85986 6.31723L4.85577 6.38322V11.7596C4.85577 12.027 5.05752 12.249 5.31828 12.2816L5.38462 12.2857L5.45135 12.2816C5.69161 12.2519 5.8797 12.0634 5.90937 11.8256L5.91346 11.7596V6.38322C5.91346 6.11584 5.71171 5.89383 5.45095 5.86126L5.38462 5.85714ZM7.5 5.85714L7.43326 5.86124C7.19301 5.891 7.00492 6.07945 6.97524 6.31723L6.97115 6.38322V11.7596C6.97115 12.027 7.1729 12.249 7.43366 12.2816L7.5 12.2857L7.56674 12.2816C7.80699 12.2519 7.99508 12.0634 8.02476 11.8256L8.02885 11.7596V6.38322C8.02885 6.11584 7.8271 5.89383 7.56634 5.86126L7.5 5.85714ZM9.61538 5.85714L9.54865 5.86124C9.30839 5.891 9.12031 6.07945 9.09063 6.31723L9.08654 6.38322V11.7596C9.08654 12.027 9.28829 12.249 9.54905 12.2816L9.61538 12.2857L9.68212 12.2816C9.92238 12.2519 10.1105 12.0634 10.1401 11.8256L10.1442 11.7596V6.38322C10.1442 6.11584 9.94248 5.89383 9.68172 5.86126L9.61538 5.85714Z" fill="#194FA1"/>
</svg>
