<svg width="16" height="16" viewBox="0 0 16 16" fill="none" xmlns="http://www.w3.org/2000/svg">
<g id="truck">
<path id="Shape" fill-rule="evenodd" clip-rule="evenodd" d="M1.66012 14.2682V14.9923C1.66012 15.5473 2.13066 16 2.70817 16H3.67842C4.25593 16 4.72646 15.5473 4.72646 14.9923V14.3697H11.2743V14.9923C11.2743 15.5473 11.7434 16 12.3216 16H13.2919C13.8701 16 14.3399 15.5473 14.3399 14.9923V14.2682C14.9189 14.0559 15.3334 13.5189 15.3334 12.8862V10.3821V9.03253V1.00769C15.3334 0.452022 14.8628 0 14.2861 0H1.71399C1.13648 0 0.666687 0.452022 0.666687 1.00769V9.03253V10.3821V12.8862C0.666687 13.5189 1.08112 14.0559 1.66012 14.2682ZM3.61708 14.9326H2.77026V14.369H3.61708V14.9326ZM13.232 14.9326H12.3837V14.369H13.232V14.9326ZM1.77608 1.06671H14.2247V7.616C14.1402 7.59152 14.0534 7.57569 13.9629 7.56633L13.6076 4.79518C13.5874 3.99478 12.9044 3.34914 12.0673 3.34914H3.93276C3.09567 3.34914 2.41268 3.99406 2.39249 4.79518L2.0379 7.56633C1.94738 7.57569 1.86061 7.59224 1.77533 7.616V1.06671H1.77608ZM12.8423 7.54978H3.15851L3.49739 4.89667C3.49963 4.87507 3.50113 4.85348 3.50113 4.83189C3.50113 4.603 3.69488 4.41657 3.93276 4.41657H12.068C12.3052 4.41657 12.4989 4.603 12.4989 4.83189C12.4989 4.85348 12.5004 4.87579 12.5034 4.89667L12.8423 7.54978ZM1.77608 10.3821V9.03253C1.77608 8.80364 1.96983 8.61649 2.20771 8.61649H13.7938C14.031 8.61649 14.2247 8.80292 14.2247 9.03253V10.3821V12.8862C14.2247 13.1151 14.031 13.3008 13.7938 13.3008H2.20771C1.96983 13.3008 1.77608 13.1151 1.77608 12.8862V10.3821ZM4.21379 11.8462C4.76407 11.8462 5.21017 11.4157 5.21017 10.8846C5.21017 10.3536 4.76407 9.92308 4.21379 9.92308C3.6635 9.92308 3.21741 10.3536 3.21741 10.8846C3.21741 11.4157 3.6635 11.8462 4.21379 11.8462ZM11.866 11.8462C12.4162 11.8462 12.8623 11.4157 12.8623 10.8846C12.8623 10.3536 12.4162 9.92308 11.866 9.92308C11.3157 9.92308 10.8696 10.3536 10.8696 10.8846C10.8696 11.4157 11.3157 11.8462 11.866 11.8462Z" fill="#6D7881"/>
</g>
</svg>
