<svg width="26" height="10" viewBox="0 0 26 10" fill="none" xmlns="http://www.w3.org/2000/svg">
<path d="M6.01672 9.84377L0.80659 5.80532C0.412081 5.49953 0.397145 4.88798 0.768488 4.57052C0.819483 4.51103 0.879236 4.45995 0.945675 4.41946L5.96125 0.174586C6.44909 -0.238669 7.18034 0.128318 7.18231 0.787394L7.19267 4.33232L13 4.35066L18.8073 4.33232L18.8177 0.787394C18.8197 0.128318 19.5509 -0.238669 20.0388 0.174586L25.0543 4.41946C25.1208 4.45995 25.1805 4.51103 25.2315 4.57052C25.6029 4.88798 25.5879 5.49953 25.1934 5.80532L19.9833 9.84377C19.4883 10.2275 18.7905 9.86082 18.7925 9.21801L18.8026 5.93043L13 5.91217L7.19745 5.93043L7.20753 9.21801C7.20945 9.86082 6.51174 10.2275 6.01672 9.84377Z" fill="white"/>
</svg>
