<svg width="25" height="10" viewBox="0 0 25 10" fill="none" xmlns="http://www.w3.org/2000/svg">
<path d="M5.51672 9.84377L0.30659 5.80532C-0.0879191 5.49953 -0.102855 4.88798 0.268488 4.57052C0.319483 4.51103 0.379236 4.45995 0.445675 4.41946L5.46125 0.174586C5.94909 -0.238669 6.68034 0.128318 6.68231 0.787394L6.69267 4.33232L12.5 4.35066L18.3073 4.33232L18.3177 0.787394C18.3197 0.128318 19.0509 -0.238669 19.5388 0.174586L24.5543 4.41946C24.6208 4.45995 24.6805 4.51103 24.7315 4.57052C25.1029 4.88798 25.0879 5.49953 24.6934 5.80532L19.4833 9.84377C18.9883 10.2275 18.2905 9.86082 18.2925 9.21801L18.3026 5.93043L12.5 5.91217L6.69745 5.93043L6.70753 9.21801C6.70945 9.86082 6.01174 10.2275 5.51672 9.84377Z" fill="#6D7881"/>
</svg>
