<svg width="24" height="24" viewBox="0 0 24 24" fill="none" xmlns="http://www.w3.org/2000/svg">
<path fill-rule="evenodd" clip-rule="evenodd" d="M10.8711 5.61176C7.96886 5.61176 5.6087 7.972 5.6087 10.8727C5.6087 13.7756 7.96886 16.1379 10.8711 16.1379C13.7733 16.1379 16.1334 13.7756 16.1334 10.8727C16.1334 7.972 13.7733 5.61176 10.8711 5.61176M19.197 20C18.9869 20 18.7796 19.913 18.6286 19.7621L15.1329 16.2666C13.9222 17.2231 12.422 17.7462 10.8745 17.7462C7.0838 17.7462 4 14.6632 4 10.8727C4 7.083 7.0838 4 10.8745 4C14.6653 4 17.7498 7.083 17.7498 10.8727C17.7498 12.4205 17.2265 13.9196 16.2698 15.1306L19.7648 18.6248C19.9165 18.7757 20 18.9774 20 19.1924C20 19.4087 19.9172 19.6105 19.7655 19.7621C19.6215 19.9117 19.4127 20 19.197 20" fill="#6D7881"/>
<path fill-rule="evenodd" clip-rule="evenodd" d="M14.3901 11.4282C14.5429 11.4282 14.6668 11.2639 14.6668 11.0615C14.6668 10.8591 14.5429 10.6948 14.3901 10.6948H7.61023C7.45747 10.6948 7.3335 10.8591 7.3335 11.0615C7.3335 11.2639 7.45747 11.4282 7.61023 11.4282H14.3901Z" fill="#6D7881"/>
</svg>
