<svg width="24" height="24" viewBox="0 0 24 24" fill="none" xmlns="http://www.w3.org/2000/svg">
<path fill-rule="evenodd" clip-rule="evenodd" d="M10.8711 5.61176C7.96886 5.61176 5.6087 7.972 5.6087 10.8727C5.6087 13.7756 7.96886 16.1379 10.8711 16.1379C13.7733 16.1379 16.1334 13.7756 16.1334 10.8727C16.1334 7.972 13.7733 5.61176 10.8711 5.61176ZM19.197 20C18.9869 20 18.7796 19.913 18.6286 19.7621L15.1329 16.2666C13.9222 17.2231 12.422 17.7462 10.8745 17.7462C7.0838 17.7462 4 14.6632 4 10.8727C4 7.083 7.0838 4 10.8745 4C14.6653 4 17.7498 7.083 17.7498 10.8727C17.7498 12.4205 17.2265 13.9196 16.2698 15.1306L19.7648 18.6248C19.9165 18.7757 20 18.9774 20 19.1924C20 19.4087 19.9172 19.6105 19.7655 19.7621C19.6215 19.9117 19.4127 20 19.197 20Z" fill="#194FA1"/>
<path d="M10.9999 7.33326C11.2023 7.33326 11.3666 7.45723 11.3666 7.60999V10.6333H14.3899C14.5426 10.6333 14.6666 10.7975 14.6666 10.9999C14.6666 11.2023 14.5426 11.3666 14.3899 11.3666H11.3666V14.3899C11.3666 14.5426 11.2023 14.6666 10.9999 14.6666C10.7975 14.6666 10.6333 14.5426 10.6333 14.3899V11.3666H7.60999C7.45723 11.3666 7.33326 11.2023 7.33326 10.9999C7.33326 10.7975 7.45723 10.6333 7.60999 10.6333H10.6333V7.60999C10.6333 7.45723 10.7975 7.33326 10.9999 7.33326Z" fill="#194FA1"/>
</svg>
