<svg width="16" height="16" viewBox="0 0 16 16" fill="none" xmlns="http://www.w3.org/2000/svg">
<path fill-rule="evenodd" clip-rule="evenodd" d="M6.87106 1.61176C3.96886 1.61176 1.6087 3.972 1.6087 6.87274C1.6087 9.77557 3.96886 12.1379 6.87106 12.1379C9.77326 12.1379 12.1334 9.77557 12.1334 6.87274C12.1334 3.972 9.77326 1.61176 6.87106 1.61176ZM15.197 16C14.9869 16 14.7796 15.913 14.6286 15.7621L11.1329 12.2666C9.92216 13.2231 8.422 13.7462 6.87454 13.7462C3.0838 13.7462 0 10.6632 0 6.87275C0 3.083 3.0838 0 6.87454 0C10.6653 0 13.7498 3.083 13.7498 6.87275C13.7498 8.4205 13.2265 9.91957 12.2698 11.1306L15.7648 14.6248C15.9165 14.7757 16 14.9774 16 15.1924C16 15.4087 15.9172 15.6105 15.7655 15.7621C15.6215 15.9117 15.4127 16 15.197 16Z" fill="#6D7881"/>
<path fill-rule="evenodd" clip-rule="evenodd" d="M6.99992 3.33325C7.20232 3.33325 7.36659 3.45723 7.36659 3.60998V6.63325H10.3899C10.5426 6.63325 10.6666 6.79752 10.6666 6.99992C10.6666 7.20232 10.5426 7.36659 10.3899 7.36659H7.36659V10.3899C7.36659 10.5426 7.20232 10.6666 6.99992 10.6666C6.79752 10.6666 6.63325 10.5426 6.63325 10.3899V7.36659H3.60998C3.45723 7.36659 3.33325 7.20232 3.33325 6.99992C3.33325 6.79752 3.45723 6.63325 3.60998 6.63325H6.63325V3.60998C6.63325 3.45723 6.79752 3.33325 6.99992 3.33325Z" fill="#6D7881"/>
</svg>
